<svg xmlns="http://www.w3.org/2000/svg" xmlns:xlink="http://www.w3.org/1999/xlink" width="176" zoomAndPan="magnify" viewBox="0 0 132 34.499999" height="46" preserveAspectRatio="xMidYMid meet" version="1.2"><defs><clipPath id="e112f66bfc"><path d="M 47 1 L 54 1 L 54 9 L 47 9 Z M 47 1 "/></clipPath><clipPath id="a406285eab"><path d="M 46.617188 4.417969 L 52.410156 1.140625 L 59.6875 14.011719 L 53.894531 17.289062 Z M 46.617188 4.417969 "/></clipPath><clipPath id="d0b4d2102d"><path d="M 46.617188 4.417969 L 52.410156 1.140625 L 59.6875 14.011719 L 53.894531 17.289062 Z M 46.617188 4.417969 "/></clipPath><clipPath id="d3a81bfcd4"><path d="M 46.617188 4.417969 L 52.410156 1.140625 L 59.6875 14.011719 L 53.894531 17.289062 Z M 46.617188 4.417969 "/></clipPath><clipPath id="26be9a6938"><path d="M 49 6 L 57 6 L 57 16 L 49 16 Z M 49 6 "/></clipPath><clipPath id="65cd8557ed"><path d="M 46.617188 4.417969 L 52.410156 1.140625 L 59.6875 14.011719 L 53.894531 17.289062 Z M 46.617188 4.417969 "/></clipPath><clipPath id="15d70e9d9d"><path d="M 46.617188 4.417969 L 52.410156 1.140625 L 59.6875 14.011719 L 53.894531 17.289062 Z M 46.617188 4.417969 "/></clipPath><clipPath id="015a240f66"><path d="M 46.617188 4.417969 L 52.410156 1.140625 L 59.6875 14.011719 L 53.894531 17.289062 Z M 46.617188 4.417969 "/></clipPath><clipPath id="45cbe8f335"><path d="M 47 1 L 54 1 L 54 8 L 47 8 Z M 47 1 "/></clipPath><clipPath id="530e1c8c58"><path d="M 46.617188 4.417969 L 52.410156 1.140625 L 59.6875 14.011719 L 53.894531 17.289062 Z M 46.617188 4.417969 "/></clipPath><clipPath id="fb6ade064e"><path d="M 46.617188 4.417969 L 52.410156 1.140625 L 59.6875 14.011719 L 53.894531 17.289062 Z M 46.617188 4.417969 "/></clipPath><clipPath id="be354c3891"><path d="M 46.617188 4.417969 L 52.410156 1.140625 L 59.6875 14.011719 L 53.894531 17.289062 Z M 46.617188 4.417969 "/></clipPath><clipPath id="d37d0e1c05"><path d="M 50 6 L 57 6 L 57 16 L 50 16 Z M 50 6 "/></clipPath><clipPath id="fe160d66ad"><path d="M 46.617188 4.417969 L 52.410156 1.140625 L 59.6875 14.011719 L 53.894531 17.289062 Z M 46.617188 4.417969 "/></clipPath><clipPath id="1dfca60325"><path d="M 46.617188 4.417969 L 52.410156 1.140625 L 59.6875 14.011719 L 53.894531 17.289062 Z M 46.617188 4.417969 "/></clipPath><clipPath id="16693b5335"><path d="M 46.617188 4.417969 L 52.410156 1.140625 L 59.6875 14.011719 L 53.894531 17.289062 Z M 46.617188 4.417969 "/></clipPath><clipPath id="f8d0781bba"><path d="M 49 5 L 55 5 L 55 10 L 49 10 Z M 49 5 "/></clipPath><clipPath id="6d46137788"><path d="M 46.617188 4.417969 L 52.410156 1.140625 L 59.6875 14.011719 L 53.894531 17.289062 Z M 46.617188 4.417969 "/></clipPath><clipPath id="c64045f347"><path d="M 46.617188 4.417969 L 52.410156 1.140625 L 59.6875 14.011719 L 53.894531 17.289062 Z M 46.617188 4.417969 "/></clipPath><clipPath id="e632744ce0"><path d="M 46.617188 4.417969 L 52.410156 1.140625 L 59.6875 14.011719 L 53.894531 17.289062 Z M 46.617188 4.417969 "/></clipPath><clipPath id="d86ee74827"><path d="M 50 7 L 57 7 L 57 16 L 50 16 Z M 50 7 "/></clipPath><clipPath id="a705a66e10"><path d="M 46.617188 4.417969 L 52.410156 1.140625 L 59.6875 14.011719 L 53.894531 17.289062 Z M 46.617188 4.417969 "/></clipPath><clipPath id="352861eedd"><path d="M 46.617188 4.417969 L 52.410156 1.140625 L 59.6875 14.011719 L 53.894531 17.289062 Z M 46.617188 4.417969 "/></clipPath><clipPath id="a771a11046"><path d="M 46.617188 4.417969 L 52.410156 1.140625 L 59.6875 14.011719 L 53.894531 17.289062 Z M 46.617188 4.417969 "/></clipPath><clipPath id="7801363f31"><path d="M 49 5 L 54 5 L 54 9 L 49 9 Z M 49 5 "/></clipPath><clipPath id="81dbf09aee"><path d="M 46.617188 4.417969 L 52.410156 1.140625 L 59.6875 14.011719 L 53.894531 17.289062 Z M 46.617188 4.417969 "/></clipPath><clipPath id="084118fcee"><path d="M 46.617188 4.417969 L 52.410156 1.140625 L 59.6875 14.011719 L 53.894531 17.289062 Z M 46.617188 4.417969 "/></clipPath><clipPath id="b496455e80"><path d="M 46.617188 4.417969 L 52.410156 1.140625 L 59.6875 14.011719 L 53.894531 17.289062 Z M 46.617188 4.417969 "/></clipPath><clipPath id="145b0379bb"><path d="M 56.886719 0 L 75.371094 0 L 75.371094 15.523438 L 56.886719 15.523438 Z M 56.886719 0 "/></clipPath><clipPath id="39e8938e63"><path d="M 78 1 L 86 1 L 86 8 L 78 8 Z M 78 1 "/></clipPath><clipPath id="40b265024e"><path d="M 79.746094 1.238281 L 85.542969 4.507812 L 78.273438 17.382812 L 72.480469 14.113281 Z M 79.746094 1.238281 "/></clipPath><clipPath id="9257291331"><path d="M 79.746094 1.238281 L 85.542969 4.507812 L 78.273438 17.382812 L 72.480469 14.113281 Z M 79.746094 1.238281 "/></clipPath><clipPath id="1d1059875c"><path d="M 79.746094 1.238281 L 85.542969 4.507812 L 78.273438 17.382812 L 72.480469 14.113281 Z M 79.746094 1.238281 "/></clipPath><clipPath id="7090c2b659"><path d="M 74 6 L 82 6 L 82 16 L 74 16 Z M 74 6 "/></clipPath><clipPath id="1538cad6fb"><path d="M 79.746094 1.238281 L 85.542969 4.507812 L 78.273438 17.382812 L 72.480469 14.113281 Z M 79.746094 1.238281 "/></clipPath><clipPath id="8414c07f8b"><path d="M 79.746094 1.238281 L 85.542969 4.507812 L 78.273438 17.382812 L 72.480469 14.113281 Z M 79.746094 1.238281 "/></clipPath><clipPath id="5708d7cb03"><path d="M 79.746094 1.238281 L 85.542969 4.507812 L 78.273438 17.382812 L 72.480469 14.113281 Z M 79.746094 1.238281 "/></clipPath><clipPath id="f653b9c01d"><path d="M 78 1 L 85 1 L 85 8 L 78 8 Z M 78 1 "/></clipPath><clipPath id="c48b219bba"><path d="M 79.746094 1.238281 L 85.542969 4.507812 L 78.273438 17.382812 L 72.480469 14.113281 Z M 79.746094 1.238281 "/></clipPath><clipPath id="1879277001"><path d="M 79.746094 1.238281 L 85.542969 4.507812 L 78.273438 17.382812 L 72.480469 14.113281 Z M 79.746094 1.238281 "/></clipPath><clipPath id="20e539159f"><path d="M 79.746094 1.238281 L 85.542969 4.507812 L 78.273438 17.382812 L 72.480469 14.113281 Z M 79.746094 1.238281 "/></clipPath><clipPath id="f043c20254"><path d="M 75 6 L 82 6 L 82 16 L 75 16 Z M 75 6 "/></clipPath><clipPath id="a978cbe088"><path d="M 79.746094 1.238281 L 85.542969 4.507812 L 78.273438 17.382812 L 72.480469 14.113281 Z M 79.746094 1.238281 "/></clipPath><clipPath id="8fed9c0cf6"><path d="M 79.746094 1.238281 L 85.542969 4.507812 L 78.273438 17.382812 L 72.480469 14.113281 Z M 79.746094 1.238281 "/></clipPath><clipPath id="9de5c7af4f"><path d="M 79.746094 1.238281 L 85.542969 4.507812 L 78.273438 17.382812 L 72.480469 14.113281 Z M 79.746094 1.238281 "/></clipPath><clipPath id="96ae302e37"><path d="M 77 5 L 83 5 L 83 10 L 77 10 Z M 77 5 "/></clipPath><clipPath id="5222bba0e6"><path d="M 79.746094 1.238281 L 85.542969 4.507812 L 78.273438 17.382812 L 72.480469 14.113281 Z M 79.746094 1.238281 "/></clipPath><clipPath id="e5c4568bc4"><path d="M 79.746094 1.238281 L 85.542969 4.507812 L 78.273438 17.382812 L 72.480469 14.113281 Z M 79.746094 1.238281 "/></clipPath><clipPath id="0b9965c655"><path d="M 79.746094 1.238281 L 85.542969 4.507812 L 78.273438 17.382812 L 72.480469 14.113281 Z M 79.746094 1.238281 "/></clipPath><clipPath id="3cc0c539e1"><path d="M 77 5 L 83 5 L 83 9 L 77 9 Z M 77 5 "/></clipPath><clipPath id="296b221a2a"><path d="M 79.746094 1.238281 L 85.542969 4.507812 L 78.273438 17.382812 L 72.480469 14.113281 Z M 79.746094 1.238281 "/></clipPath><clipPath id="9d5376c1fb"><path d="M 79.746094 1.238281 L 85.542969 4.507812 L 78.273438 17.382812 L 72.480469 14.113281 Z M 79.746094 1.238281 "/></clipPath><clipPath id="34b6e085da"><path d="M 79.746094 1.238281 L 85.542969 4.507812 L 78.273438 17.382812 L 72.480469 14.113281 Z M 79.746094 1.238281 "/></clipPath><clipPath id="781cd10c32"><path d="M 75 7 L 80 7 L 80 16 L 75 16 Z M 75 7 "/></clipPath><clipPath id="10f14a4ef4"><path d="M 79.746094 1.238281 L 85.542969 4.507812 L 78.273438 17.382812 L 72.480469 14.113281 Z M 79.746094 1.238281 "/></clipPath><clipPath id="476fab7044"><path d="M 79.746094 1.238281 L 85.542969 4.507812 L 78.273438 17.382812 L 72.480469 14.113281 Z M 79.746094 1.238281 "/></clipPath><clipPath id="2ba340a5f3"><path d="M 79.746094 1.238281 L 85.542969 4.507812 L 78.273438 17.382812 L 72.480469 14.113281 Z M 79.746094 1.238281 "/></clipPath><clipPath id="d2ba10f5af"><path d="M 77 5 L 82 5 L 82 9 L 77 9 Z M 77 5 "/></clipPath><clipPath id="058c564d6b"><path d="M 79.746094 1.238281 L 85.542969 4.507812 L 78.273438 17.382812 L 72.480469 14.113281 Z M 79.746094 1.238281 "/></clipPath><clipPath id="30d1106570"><path d="M 79.746094 1.238281 L 85.542969 4.507812 L 78.273438 17.382812 L 72.480469 14.113281 Z M 79.746094 1.238281 "/></clipPath><clipPath id="f0867d7562"><path d="M 79.746094 1.238281 L 85.542969 4.507812 L 78.273438 17.382812 L 72.480469 14.113281 Z M 79.746094 1.238281 "/></clipPath><clipPath id="340cf5529f"><path d="M 5.378906 10.292969 L 46.777344 10.292969 L 46.777344 12.488281 L 5.378906 12.488281 Z M 5.378906 10.292969 "/></clipPath><clipPath id="35a4d44606"><path d="M 83.984375 10.292969 L 125.382812 10.292969 L 125.382812 12.488281 L 83.984375 12.488281 Z M 83.984375 10.292969 "/></clipPath></defs><g id="5e419e5efb"><g clip-rule="nonzero" clip-path="url(#e112f66bfc)"><g clip-rule="nonzero" clip-path="url(#a406285eab)"><g clip-rule="nonzero" clip-path="url(#d0b4d2102d)"><g clip-rule="nonzero" clip-path="url(#d3a81bfcd4)"><path style=" stroke:none;fill-rule:evenodd;fill:#000000;fill-opacity:1;" d="M 52.222656 8.046875 C 52.238281 8.035156 52.253906 8.019531 52.265625 8 L 53.578125 5.792969 C 53.625 5.714844 53.613281 5.585938 53.550781 5.472656 C 53.492188 5.375 53.449219 5.292969 53.414062 5.023438 C 53.375 4.753906 53.359375 4.320312 53.40625 3.644531 C 53.453125 2.992188 53.007812 2.242188 52.53125 1.757812 C 52.480469 1.707031 52.421875 1.679688 52.367188 1.671875 C 52.292969 1.585938 52.199219 1.546875 52.125 1.570312 C 52.046875 1.597656 52.007812 1.6875 52.023438 1.800781 C 52.023438 1.804688 52.023438 1.804688 52.023438 1.808594 C 52 1.820312 51.984375 1.839844 51.972656 1.867188 C 51.929688 1.8125 51.882812 1.765625 51.828125 1.742188 C 51.757812 1.710938 51.6875 1.722656 51.644531 1.769531 C 51.558594 1.863281 51.390625 1.917969 51.195312 2.003906 C 50.996094 2.089844 50.765625 2.222656 50.625 2.53125 C 50.609375 2.5625 50.605469 2.59375 50.597656 2.625 C 50.523438 2.574219 50.449219 2.554688 50.390625 2.585938 C 50.257812 2.664062 50.152344 2.75 50.0625 2.84375 C 50.019531 2.835938 49.980469 2.835938 49.949219 2.855469 C 49.875 2.898438 49.804688 2.953125 49.738281 3.015625 C 49.695312 3.003906 49.65625 3.003906 49.621094 3.023438 C 49.578125 3.046875 49.542969 3.078125 49.511719 3.109375 C 49.464844 3.09375 49.417969 3.09375 49.382812 3.113281 C 49.230469 3.203125 49.109375 3.320312 49.015625 3.457031 C 48.929688 3.382812 48.832031 3.355469 48.765625 3.402344 C 48.628906 3.503906 48.523438 3.625 48.441406 3.753906 C 48.382812 3.703125 48.324219 3.671875 48.265625 3.679688 C 48.082031 3.695312 47.945312 3.773438 47.835938 3.882812 C 47.742188 3.832031 47.648438 3.839844 47.605469 3.917969 C 47.5 4.097656 47.441406 4.289062 47.414062 4.484375 C 47.335938 4.484375 47.277344 4.535156 47.261719 4.625 C 47.203125 5.019531 47.273438 5.4375 47.453125 5.828125 C 47.621094 6.195312 47.875 6.523438 48.183594 6.808594 C 48.203125 6.839844 48.226562 6.867188 48.253906 6.890625 C 48.753906 7.308594 49.105469 7.589844 49.40625 7.957031 C 49.46875 8.03125 49.550781 8.078125 49.621094 8.078125 L 52.144531 8.070312 C 52.171875 8.070312 52.199219 8.0625 52.222656 8.046875 Z M 52.222656 8.046875 "/></g></g></g></g><g clip-rule="nonzero" clip-path="url(#26be9a6938)"><g clip-rule="nonzero" clip-path="url(#65cd8557ed)"><g clip-rule="nonzero" clip-path="url(#15d70e9d9d)"><g clip-rule="nonzero" clip-path="url(#015a240f66)"><path style=" stroke:none;fill-rule:nonzero;fill:#000000;fill-opacity:1;" d="M 56.59375 15.757812 C 56.730469 15.679688 56.828125 15.539062 56.859375 15.378906 C 56.863281 15.367188 56.863281 15.363281 56.863281 15.351562 C 56.863281 15.351562 56.886719 15.050781 56.898438 14.703125 C 56.910156 14.355469 56.921875 13.984375 56.871094 13.75 C 56.769531 13.265625 56.449219 12.84375 56.105469 12.449219 C 55.765625 12.058594 55.394531 11.6875 55.164062 11.363281 L 53.839844 9.492188 C 53.746094 9.359375 53.683594 9.261719 53.660156 9.191406 C 53.636719 9.117188 53.636719 9.054688 53.6875 8.917969 L 54.386719 7.046875 C 54.425781 6.941406 54.417969 6.820312 54.367188 6.726562 C 54.3125 6.628906 54.210938 6.5625 54.101562 6.539062 C 54.050781 6.53125 54 6.542969 53.957031 6.566406 L 50.078125 8.757812 C 50.035156 8.785156 50 8.824219 49.980469 8.871094 C 49.941406 8.976562 49.949219 9.097656 50.003906 9.191406 C 50.058594 9.289062 50.15625 9.355469 50.269531 9.375 L 52.21875 9.738281 C 52.363281 9.765625 52.421875 9.804688 52.480469 9.871094 C 52.539062 9.9375 52.589844 10.042969 52.652344 10.183594 L 53.566406 12.269531 C 53.726562 12.632812 53.851562 13.140625 54.011719 13.636719 C 54.175781 14.132812 54.371094 14.621094 54.730469 14.960938 C 54.90625 15.125 55.230469 15.304688 55.53125 15.472656 C 55.835938 15.644531 56.109375 15.78125 56.109375 15.78125 C 56.117188 15.785156 56.125 15.789062 56.132812 15.789062 C 56.285156 15.847656 56.457031 15.832031 56.59375 15.757812 Z M 55.535156 14.058594 C 55.457031 14.101562 55.347656 14.058594 55.292969 13.957031 C 55.234375 13.855469 55.253906 13.738281 55.332031 13.695312 C 55.410156 13.648438 55.519531 13.695312 55.574219 13.796875 C 55.632812 13.894531 55.613281 14.011719 55.535156 14.058594 Z M 55.535156 14.058594 "/></g></g></g></g><g clip-rule="nonzero" clip-path="url(#45cbe8f335)"><g clip-rule="nonzero" clip-path="url(#530e1c8c58)"><g clip-rule="nonzero" clip-path="url(#fb6ade064e)"><g clip-rule="nonzero" clip-path="url(#be354c3891)"><path style=" stroke:none;fill-rule:evenodd;fill:#ffffff;fill-opacity:1;" d="M 51.988281 7.808594 L 53.265625 5.578125 C 53.113281 5.308594 52.960938 4.882812 53.027344 3.476562 C 53.054688 2.964844 52.671875 2.292969 52.253906 1.859375 C 52.359375 2.476562 52.152344 2.863281 52.089844 3.25 C 52.09375 3 52.136719 2.722656 52.167969 2.511719 C 52.207031 2.238281 52.195312 1.960938 52.078125 1.75 C 52.148438 2.160156 52.117188 2.34375 52.066406 2.535156 C 51.964844 2.90625 51.9375 3.355469 51.988281 3.664062 C 51.914062 3.40625 51.90625 3.085938 51.96875 2.8125 C 52.035156 2.523438 52.078125 2.285156 52.011719 1.976562 C 51.894531 2.378906 51.691406 2.476562 51.597656 2.664062 C 51.484375 2.902344 51.394531 3.074219 51.34375 3.234375 C 51.355469 3.117188 51.375 3.003906 51.402344 2.921875 C 51.558594 2.386719 51.832031 2.316406 51.777344 2.121094 C 51.558594 2.375 50.984375 2.332031 50.8125 2.753906 C 50.746094 2.917969 50.792969 3.335938 50.941406 3.660156 C 50.875 3.5625 50.824219 3.457031 50.789062 3.328125 C 50.730469 3.117188 50.707031 2.929688 50.746094 2.761719 C 50.871094 2.210938 51.648438 2.371094 51.660156 1.910156 C 51.421875 2.1875 50.910156 2.101562 50.679688 2.632812 C 50.589844 2.832031 50.578125 3.121094 50.757812 3.519531 L 50.8125 3.617188 C 50.574219 3.359375 50.546875 3.140625 50.539062 2.820312 C 50.375 3.039062 50.410156 3.351562 50.5625 3.660156 C 50.371094 3.449219 50.292969 3.226562 50.386719 2.753906 C 49.703125 3.140625 49.699219 3.824219 49.960938 4.339844 C 49.789062 4.15625 49.738281 3.957031 49.71875 3.753906 C 49.695312 3.453125 49.816406 3.1875 49.949219 3.019531 C 49.792969 3.109375 49.660156 3.230469 49.617188 3.414062 C 49.558594 3.65625 49.601562 3.964844 49.683594 4.238281 C 49.511719 3.84375 49.480469 3.488281 49.625 3.183594 C 49.289062 3.375 49.242188 3.953125 49.363281 4.429688 C 49.164062 3.996094 49.222656 3.503906 49.386719 3.273438 C 48.929688 3.53125 48.796875 4.101562 48.890625 4.5625 C 48.753906 4.269531 48.796875 3.992188 48.855469 3.796875 C 48.699219 4.050781 48.644531 4.34375 48.722656 4.625 C 48.574219 4.226562 48.664062 3.929688 48.785156 3.550781 C 48.371094 3.859375 48.269531 4.277344 48.382812 4.808594 C 48.238281 4.507812 48.277344 4.226562 48.335938 4.027344 C 48.21875 4.226562 48.175781 4.425781 48.210938 4.636719 C 48.152344 4.441406 48.171875 4.214844 48.222656 3.847656 C 47.683594 3.886719 47.601562 4.523438 47.742188 4.992188 C 47.792969 5.171875 47.902344 5.390625 48.042969 5.613281 C 47.566406 5.152344 47.585938 4.640625 47.671875 4.011719 C 47.246094 4.761719 47.648438 5.605469 48.199219 6.214844 C 47.648438 5.765625 47.453125 5.175781 47.367188 4.65625 C 47.273438 5.347656 47.621094 6.027344 48.238281 6.59375 L 48.234375 6.605469 C 48.742188 7.039062 49.117188 7.347656 49.464844 7.773438 Z M 51.988281 7.808594 "/></g></g></g></g><g clip-rule="nonzero" clip-path="url(#d37d0e1c05)"><g clip-rule="nonzero" clip-path="url(#fe160d66ad)"><g clip-rule="nonzero" clip-path="url(#1dfca60325)"><g clip-rule="nonzero" clip-path="url(#16693b5335)"><path style=" stroke:none;fill-rule:nonzero;fill:#ffffff;fill-opacity:1;" d="M 56.339844 15.457031 C 56.417969 15.414062 56.476562 15.335938 56.496094 15.230469 C 56.496094 15.230469 56.574219 14.058594 56.5 13.722656 C 56.320312 12.902344 55.347656 12.140625 54.863281 11.457031 L 53.570312 9.621094 C 53.382812 9.355469 53.269531 9.199219 53.390625 8.871094 L 54.0625 7.046875 C 54.097656 6.941406 54.042969 6.84375 53.933594 6.820312 L 50.179688 8.945312 C 50.144531 9.046875 50.199219 9.148438 50.308594 9.167969 L 52.207031 9.53125 C 52.554688 9.597656 52.652344 9.8125 52.773438 10.085938 L 53.671875 12.128906 C 54.007812 12.898438 54.160156 14.125 54.769531 14.699219 C 55.019531 14.9375 56.066406 15.472656 56.066406 15.472656 C 56.164062 15.511719 56.261719 15.5 56.339844 15.457031 Z M 55.609375 14.34375 C 55.40625 14.460938 55.121094 14.34375 54.972656 14.082031 C 54.824219 13.820312 54.871094 13.515625 55.074219 13.398438 C 55.28125 13.285156 55.566406 13.402344 55.714844 13.664062 C 55.863281 13.921875 55.816406 14.230469 55.609375 14.34375 Z M 55.609375 14.34375 "/></g></g></g></g><g clip-rule="nonzero" clip-path="url(#f8d0781bba)"><g clip-rule="nonzero" clip-path="url(#6d46137788)"><g clip-rule="nonzero" clip-path="url(#c64045f347)"><g clip-rule="nonzero" clip-path="url(#e632744ce0)"><path style=" stroke:none;fill-rule:nonzero;fill:#000000;fill-opacity:1;" d="M 49.378906 7.667969 C 49.332031 7.691406 49.296875 7.738281 49.285156 7.785156 C 49.273438 7.832031 49.28125 7.875 49.296875 7.914062 C 49.496094 8.410156 49.742188 8.875 50.066406 9.277344 C 50.09375 9.308594 50.125 9.335938 50.167969 9.347656 C 50.214844 9.363281 50.273438 9.359375 50.320312 9.328125 C 51.640625 8.488281 52.980469 7.742188 54.324219 7.0625 C 54.375 7.039062 54.40625 6.992188 54.417969 6.945312 C 54.429688 6.902344 54.425781 6.859375 54.410156 6.820312 C 54.230469 6.351562 53.902344 5.824219 53.640625 5.457031 C 53.613281 5.421875 53.578125 5.394531 53.535156 5.382812 C 53.488281 5.367188 53.433594 5.375 53.386719 5.402344 C 52.03125 6.226562 50.71875 7.003906 49.378906 7.667969 Z M 49.378906 7.667969 "/><path style=" stroke:none;fill-rule:nonzero;fill:#ffffff;fill-opacity:1;" d="M 49.484375 7.71875 C 50.742188 7.09375 51.972656 6.367188 53.242188 5.59375 C 53.28125 5.570312 53.328125 5.585938 53.351562 5.625 C 53.601562 5.96875 53.910156 6.472656 54.078125 6.90625 C 54.09375 6.949219 54.085938 6.996094 54.046875 7.015625 C 52.785156 7.652344 51.53125 8.351562 50.289062 9.140625 C 50.25 9.167969 50.207031 9.148438 50.179688 9.109375 C 49.875 8.734375 49.644531 8.296875 49.453125 7.828125 C 49.4375 7.785156 49.445312 7.738281 49.484375 7.71875 Z M 49.484375 7.71875 "/></g></g></g></g><g clip-rule="nonzero" clip-path="url(#d86ee74827)"><g clip-rule="nonzero" clip-path="url(#a705a66e10)"><g clip-rule="nonzero" clip-path="url(#352861eedd)"><g clip-rule="nonzero" clip-path="url(#a771a11046)"><path style=" stroke:none;fill-rule:nonzero;fill:#000000;fill-opacity:1;" d="M 52.078125 8.339844 C 51.628906 8.597656 51.179688 8.871094 50.734375 9.160156 C 50.71875 9.167969 50.726562 9.179688 50.75 9.183594 L 52.296875 9.445312 C 52.597656 9.523438 52.695312 9.722656 52.816406 9.984375 L 53.796875 12.082031 C 53.894531 12.289062 53.976562 12.527344 54.058594 12.777344 C 53.996094 12.542969 53.929688 12.316406 53.855469 12.125 L 53 9.921875 C 52.886719 9.632812 52.824219 9.460938 52.558594 9.378906 L 51.183594 9.117188 C 51.160156 9.113281 51.15625 9.101562 51.167969 9.089844 C 51.664062 8.714844 52.167969 8.351562 52.6875 8.007812 L 52.742188 7.972656 C 52.519531 8.09375 52.300781 8.214844 52.078125 8.339844 Z M 54.445312 11.03125 L 54.734375 11.535156 C 55.128906 12.21875 55.894531 12.996094 56.066406 13.792969 C 56.128906 14.085938 56.125 15.007812 56.125 15.207031 C 56.125 15.324219 56.164062 15.332031 56.269531 15.277344 C 56.339844 15.242188 56.382812 15.171875 56.390625 15.078125 C 56.390625 15.078125 56.394531 14.003906 56.3125 13.691406 C 56.109375 12.929688 55.234375 12.179688 54.78125 11.527344 Z M 54.996094 13.898438 C 55.007812 13.925781 55.019531 13.957031 55.03125 13.988281 C 55.15625 14.246094 55.375 14.371094 55.527344 14.269531 C 55.546875 14.257812 55.566406 14.238281 55.582031 14.21875 C 55.414062 14.3125 55.160156 14.191406 55.019531 13.945312 C 55.011719 13.929688 55.003906 13.914062 54.996094 13.898438 Z M 54.996094 13.898438 "/></g></g></g></g><g clip-rule="nonzero" clip-path="url(#7801363f31)"><g clip-rule="nonzero" clip-path="url(#81dbf09aee)"><g clip-rule="nonzero" clip-path="url(#084118fcee)"><g clip-rule="nonzero" clip-path="url(#b496455e80)"><path style=" stroke:none;fill-rule:nonzero;fill:#000000;fill-opacity:1;" d="M 49.601562 7.769531 C 49.558594 7.789062 49.550781 7.832031 49.566406 7.871094 C 49.695312 8.207031 49.855469 8.519531 50.054688 8.800781 C 49.914062 8.53125 49.808594 8.230469 49.726562 7.914062 C 49.71875 7.875 49.730469 7.832031 49.769531 7.808594 C 50.671875 7.3125 51.570312 6.753906 52.488281 6.164062 C 51.515625 6.738281 50.566406 7.285156 49.601562 7.769531 Z M 53.4375 5.894531 C 53.582031 6.175781 53.726562 6.519531 53.796875 6.824219 C 53.808594 6.863281 53.796875 6.90625 53.757812 6.929688 C 52.851562 7.433594 51.949219 7.976562 51.046875 8.5625 C 52 7.988281 52.964844 7.457031 53.929688 6.964844 C 53.96875 6.945312 53.980469 6.902344 53.964844 6.863281 C 53.84375 6.542969 53.632812 6.179688 53.4375 5.894531 Z M 53.4375 5.894531 "/></g></g></g></g><g clip-rule="nonzero" clip-path="url(#145b0379bb)"><path style=" stroke:none;fill-rule:nonzero;fill:#000000;fill-opacity:1;" d="M 75.246094 6.972656 L 72.96875 5.21875 C 72.96875 5.207031 72.976562 5.199219 72.976562 5.1875 L 72.976562 1.171875 C 72.976562 1.011719 72.84375 0.882812 72.675781 0.882812 L 70.890625 0.882812 C 70.722656 0.882812 70.589844 1.011719 70.589844 1.171875 L 70.589844 3.386719 L 66.3125 0.0859375 C 66.203125 0 66.050781 0 65.9375 0.0859375 L 57.007812 6.972656 C 56.941406 7.023438 56.902344 7.101562 56.898438 7.183594 C 56.894531 7.265625 56.921875 7.34375 56.984375 7.398438 L 57.875 8.261719 C 57.984375 8.363281 58.15625 8.375 58.273438 8.28125 L 58.386719 8.195312 L 58.386719 15.238281 C 58.386719 15.398438 58.519531 15.523438 58.683594 15.523438 L 73.570312 15.523438 C 73.734375 15.523438 73.867188 15.398438 73.867188 15.238281 L 73.867188 8.191406 L 73.980469 8.277344 C 74.035156 8.320312 74.101562 8.34375 74.167969 8.34375 C 74.246094 8.34375 74.320312 8.3125 74.378906 8.257812 L 75.269531 7.394531 C 75.332031 7.339844 75.363281 7.257812 75.355469 7.179688 C 75.351562 7.101562 75.3125 7.023438 75.246094 6.972656 Z M 71.1875 3.75 L 71.1875 1.457031 L 72.378906 1.457031 L 72.378906 4.761719 L 71.171875 3.828125 C 71.179688 3.804688 71.1875 3.78125 71.1875 3.75 Z M 64.042969 14.949219 L 64.042969 10.640625 L 68.210938 10.640625 L 68.210938 14.949219 Z M 73.273438 7.769531 L 73.273438 14.945312 L 68.808594 14.945312 L 68.808594 10.355469 C 68.808594 10.195312 68.675781 10.066406 68.507812 10.066406 L 63.746094 10.066406 C 63.578125 10.066406 63.445312 10.195312 63.445312 10.355469 L 63.445312 14.945312 L 58.980469 14.945312 L 58.980469 7.769531 C 58.980469 7.753906 58.972656 7.746094 58.972656 7.730469 L 66.128906 2.113281 L 73.28125 7.734375 C 73.277344 7.746094 73.273438 7.757812 73.273438 7.769531 Z M 74.144531 7.671875 L 66.316406 1.519531 C 66.261719 1.476562 66.195312 1.457031 66.128906 1.457031 C 66.058594 1.457031 65.992188 1.476562 65.9375 1.519531 L 58.109375 7.671875 L 57.640625 7.222656 L 66.128906 0.675781 L 74.613281 7.222656 Z M 74.144531 7.671875 "/></g><g clip-rule="nonzero" clip-path="url(#39e8938e63)"><g clip-rule="nonzero" clip-path="url(#40b265024e)"><g clip-rule="nonzero" clip-path="url(#9257291331)"><g clip-rule="nonzero" clip-path="url(#1d1059875c)"><path style=" stroke:none;fill-rule:evenodd;fill:#000000;fill-opacity:1;" d="M 79.53125 7.910156 C 79.550781 7.921875 79.570312 7.925781 79.59375 7.925781 L 82.160156 7.910156 C 82.25 7.910156 82.355469 7.832031 82.417969 7.722656 C 82.472656 7.621094 82.523438 7.542969 82.734375 7.371094 C 82.949219 7.199219 83.308594 6.964844 83.914062 6.65625 C 84.496094 6.355469 84.910156 5.585938 85.078125 4.929688 C 85.09375 4.859375 85.089844 4.796875 85.070312 4.746094 C 85.101562 4.636719 85.085938 4.535156 85.027344 4.484375 C 84.964844 4.433594 84.867188 4.445312 84.777344 4.519531 C 84.777344 4.519531 84.773438 4.519531 84.773438 4.523438 C 84.75 4.511719 84.722656 4.507812 84.695312 4.507812 C 84.722656 4.445312 84.738281 4.378906 84.726562 4.320312 C 84.714844 4.242188 84.671875 4.191406 84.609375 4.175781 C 84.484375 4.15625 84.351562 4.039062 84.175781 3.914062 C 84 3.785156 83.769531 3.660156 83.429688 3.699219 C 83.398438 3.703125 83.367188 3.710938 83.335938 3.722656 C 83.339844 3.632812 83.320312 3.558594 83.261719 3.527344 C 83.128906 3.453125 83 3.40625 82.871094 3.378906 C 82.859375 3.335938 82.835938 3.304688 82.804688 3.285156 C 82.730469 3.246094 82.648438 3.210938 82.5625 3.1875 C 82.546875 3.144531 82.527344 3.109375 82.492188 3.09375 C 82.449219 3.066406 82.40625 3.054688 82.363281 3.039062 C 82.347656 2.992188 82.328125 2.957031 82.292969 2.933594 C 82.136719 2.847656 81.972656 2.808594 81.808594 2.796875 C 81.828125 2.683594 81.800781 2.585938 81.722656 2.554688 C 81.566406 2.488281 81.410156 2.460938 81.257812 2.457031 C 81.269531 2.382812 81.265625 2.316406 81.230469 2.269531 C 81.121094 2.121094 80.984375 2.042969 80.832031 2.007812 C 80.832031 1.898438 80.773438 1.824219 80.683594 1.824219 C 80.476562 1.828125 80.28125 1.878906 80.101562 1.953125 C 80.0625 1.886719 79.988281 1.863281 79.902344 1.898438 C 79.535156 2.050781 79.210938 2.324219 78.96875 2.679688 C 78.742188 3.011719 78.59375 3.402344 78.507812 3.8125 C 78.492188 3.847656 78.480469 3.878906 78.472656 3.914062 C 78.375 4.558594 78.3125 5.003906 78.15625 5.449219 C 78.121094 5.542969 78.125 5.636719 78.160156 5.699219 L 79.472656 7.855469 C 79.488281 7.882812 79.507812 7.898438 79.53125 7.910156 Z M 79.53125 7.910156 "/></g></g></g></g><g clip-rule="nonzero" clip-path="url(#7090c2b659)"><g clip-rule="nonzero" clip-path="url(#1538cad6fb)"><g clip-rule="nonzero" clip-path="url(#8414c07f8b)"><g clip-rule="nonzero" clip-path="url(#5708d7cb03)"><path style=" stroke:none;fill-rule:nonzero;fill:#000000;fill-opacity:1;" d="M 75.183594 15.632812 C 75.320312 15.710938 75.492188 15.722656 75.644531 15.667969 C 75.652344 15.664062 75.660156 15.660156 75.667969 15.65625 C 75.667969 15.65625 75.9375 15.519531 76.242188 15.351562 C 76.546875 15.183594 76.871094 15.003906 77.046875 14.835938 C 77.40625 14.5 77.601562 14.007812 77.761719 13.511719 C 77.925781 13.015625 78.046875 12.507812 78.207031 12.144531 L 79.128906 10.042969 C 79.195312 9.894531 79.242188 9.792969 79.292969 9.734375 C 79.34375 9.675781 79.394531 9.644531 79.539062 9.617188 L 81.503906 9.25 C 81.613281 9.230469 81.714844 9.160156 81.769531 9.066406 C 81.824219 8.96875 81.828125 8.847656 81.789062 8.742188 C 81.773438 8.695312 81.738281 8.65625 81.691406 8.632812 L 77.816406 6.441406 C 77.769531 6.417969 77.71875 6.410156 77.667969 6.417969 C 77.558594 6.4375 77.460938 6.503906 77.40625 6.601562 C 77.351562 6.699219 77.34375 6.820312 77.382812 6.925781 L 78.082031 8.785156 C 78.132812 8.917969 78.125 8.992188 78.097656 9.074219 C 78.074219 9.160156 78.007812 9.257812 77.921875 9.382812 L 76.609375 11.238281 C 76.378906 11.566406 76.007812 11.933594 75.667969 12.328125 C 75.324219 12.722656 75.007812 13.144531 74.902344 13.628906 C 74.851562 13.863281 74.863281 14.234375 74.875 14.582031 C 74.890625 14.925781 74.910156 15.230469 74.910156 15.230469 C 74.910156 15.238281 74.914062 15.246094 74.914062 15.253906 C 74.945312 15.417969 75.046875 15.554688 75.183594 15.632812 Z M 76.09375 13.851562 C 76.015625 13.808594 75.996094 13.691406 76.050781 13.589844 C 76.109375 13.488281 76.21875 13.445312 76.296875 13.488281 C 76.375 13.53125 76.394531 13.652344 76.335938 13.75 C 76.28125 13.851562 76.171875 13.894531 76.09375 13.851562 Z M 76.09375 13.851562 "/></g></g></g></g><g clip-rule="nonzero" clip-path="url(#f653b9c01d)"><g clip-rule="nonzero" clip-path="url(#c48b219bba)"><g clip-rule="nonzero" clip-path="url(#1879277001)"><g clip-rule="nonzero" clip-path="url(#20e539159f)"><path style=" stroke:none;fill-rule:evenodd;fill:#ffffff;fill-opacity:1;" d="M 79.613281 7.589844 L 82.183594 7.53125 C 82.335938 7.261719 82.621094 6.910156 83.863281 6.242188 C 84.3125 6.003906 84.691406 5.328125 84.847656 4.746094 C 84.371094 5.152344 83.933594 5.175781 83.570312 5.324219 C 83.789062 5.195312 84.046875 5.089844 84.242188 5.007812 C 84.5 4.902344 84.730469 4.75 84.847656 4.539062 C 84.535156 4.808594 84.363281 4.878906 84.171875 4.933594 C 83.804688 5.039062 83.402344 5.246094 83.164062 5.449219 C 83.347656 5.253906 83.617188 5.082031 83.882812 4.992188 C 84.164062 4.902344 84.390625 4.816406 84.621094 4.597656 C 84.21875 4.703125 84.027344 4.582031 83.816406 4.601562 C 83.554688 4.625 83.363281 4.636719 83.199219 4.675781 C 83.308594 4.625 83.410156 4.585938 83.496094 4.5625 C 84.035156 4.421875 84.238281 4.617188 84.378906 4.472656 C 84.046875 4.417969 83.789062 3.902344 83.335938 3.972656 C 83.164062 4 82.828125 4.257812 82.628906 4.550781 C 82.679688 4.445312 82.742188 4.347656 82.835938 4.25 C 82.984375 4.089844 83.132812 3.976562 83.296875 3.921875 C 83.832031 3.742188 84.09375 4.492188 84.496094 4.265625 C 84.136719 4.203125 83.945312 3.722656 83.371094 3.796875 C 83.15625 3.824219 82.902344 3.960938 82.652344 4.320312 L 82.597656 4.417969 C 82.695312 4.082031 82.871094 3.945312 83.140625 3.773438 C 82.867188 3.746094 82.617188 3.9375 82.433594 4.226562 C 82.511719 3.953125 82.667969 3.773438 83.117188 3.609375 C 82.433594 3.222656 81.84375 3.570312 81.539062 4.058594 C 81.609375 3.820312 81.75 3.671875 81.917969 3.554688 C 82.164062 3.375 82.453125 3.34375 82.664062 3.371094 C 82.507812 3.28125 82.335938 3.234375 82.15625 3.289062 C 81.917969 3.363281 81.675781 3.5625 81.480469 3.773438 C 81.730469 3.421875 82.019531 3.210938 82.355469 3.175781 C 82.019531 2.988281 81.5 3.246094 81.15625 3.59375 C 81.421875 3.199219 81.871094 2.996094 82.15625 3.019531 C 81.699219 2.761719 81.144531 2.941406 80.796875 3.261719 C 80.980469 2.992188 81.238281 2.882812 81.433594 2.832031 C 81.136719 2.835938 80.859375 2.933594 80.65625 3.148438 C 80.921875 2.8125 81.222656 2.738281 81.609375 2.648438 C 81.132812 2.453125 80.722656 2.582031 80.324219 2.953125 C 80.503906 2.671875 80.769531 2.5625 80.972656 2.507812 C 80.734375 2.511719 80.542969 2.578125 80.382812 2.714844 C 80.519531 2.566406 80.722656 2.464844 81.066406 2.316406 C 80.75 1.878906 80.164062 2.136719 79.835938 2.496094 C 79.707031 2.636719 79.578125 2.84375 79.460938 3.078125 C 79.609375 2.429688 80.054688 2.183594 80.640625 1.929688 C 79.777344 1.953125 79.261719 2.734375 79.023438 3.519531 C 79.125 2.816406 79.527344 2.34375 79.929688 2 C 79.289062 2.28125 78.886719 2.929688 78.71875 3.75 L 78.707031 3.753906 C 78.597656 4.410156 78.527344 4.890625 78.34375 5.40625 Z M 79.613281 7.589844 "/></g></g></g></g><g clip-rule="nonzero" clip-path="url(#f043c20254)"><g clip-rule="nonzero" clip-path="url(#a978cbe088)"><g clip-rule="nonzero" clip-path="url(#8fed9c0cf6)"><g clip-rule="nonzero" clip-path="url(#9de5c7af4f)"><path style=" stroke:none;fill-rule:nonzero;fill:#ffffff;fill-opacity:1;" d="M 75.308594 15.261719 C 75.386719 15.308594 75.484375 15.316406 75.582031 15.28125 C 75.582031 15.28125 76.628906 14.742188 76.878906 14.503906 C 77.484375 13.925781 77.636719 12.699219 77.972656 11.933594 L 78.878906 9.875 C 79.007812 9.582031 79.085938 9.40625 79.425781 9.339844 L 81.335938 8.972656 C 81.445312 8.949219 81.5 8.851562 81.464844 8.746094 L 77.710938 6.625 C 77.601562 6.648438 77.542969 6.746094 77.582031 6.851562 L 78.25 8.664062 C 78.371094 8.996094 78.242188 9.191406 78.066406 9.4375 L 76.78125 11.261719 C 76.296875 11.945312 75.328125 12.707031 75.144531 13.527344 C 75.070312 13.863281 75.152344 15.035156 75.152344 15.035156 C 75.171875 15.140625 75.230469 15.21875 75.308594 15.261719 Z M 75.882812 14.0625 C 75.679688 13.949219 75.632812 13.640625 75.78125 13.382812 C 75.925781 13.121094 76.214844 13.003906 76.417969 13.117188 C 76.621094 13.234375 76.667969 13.539062 76.523438 13.800781 C 76.375 14.0625 76.089844 14.179688 75.882812 14.0625 Z M 75.882812 14.0625 "/></g></g></g></g><g clip-rule="nonzero" clip-path="url(#96ae302e37)"><g clip-rule="nonzero" clip-path="url(#5222bba0e6)"><g clip-rule="nonzero" clip-path="url(#e5c4568bc4)"><g clip-rule="nonzero" clip-path="url(#0b9965c655)"><path style=" stroke:none;fill-rule:nonzero;fill:#000000;fill-opacity:1;" d="M 78.390625 5.28125 C 78.34375 5.25 78.285156 5.246094 78.238281 5.261719 C 78.195312 5.273438 78.160156 5.300781 78.136719 5.335938 C 77.8125 5.761719 77.542969 6.214844 77.363281 6.699219 C 77.351562 6.738281 77.347656 6.78125 77.355469 6.824219 C 77.367188 6.871094 77.402344 6.917969 77.453125 6.941406 C 78.851562 7.640625 80.179688 8.402344 81.457031 9.207031 C 81.503906 9.234375 81.5625 9.238281 81.605469 9.226562 C 81.652344 9.210938 81.683594 9.183594 81.710938 9.152344 C 82.015625 8.757812 82.304688 8.203125 82.480469 7.789062 C 82.496094 7.75 82.503906 7.707031 82.492188 7.660156 C 82.480469 7.617188 82.445312 7.570312 82.398438 7.542969 C 80.992188 6.808594 79.648438 6.082031 78.390625 5.28125 Z M 78.390625 5.28125 "/></g></g></g></g><g clip-rule="nonzero" clip-path="url(#3cc0c539e1)"><g clip-rule="nonzero" clip-path="url(#296b221a2a)"><g clip-rule="nonzero" clip-path="url(#9d5376c1fb)"><g clip-rule="nonzero" clip-path="url(#34b6e085da)"><path style=" stroke:none;fill-rule:nonzero;fill:#ffffff;fill-opacity:1;" d="M 78.402344 5.398438 C 79.582031 6.152344 80.839844 6.828125 82.160156 7.519531 C 82.199219 7.539062 82.207031 7.589844 82.191406 7.628906 C 82.023438 8.019531 81.75 8.546875 81.464844 8.914062 C 81.4375 8.949219 81.394531 8.96875 81.355469 8.945312 C 80.15625 8.191406 78.910156 7.476562 77.597656 6.820312 C 77.554688 6.800781 77.546875 6.753906 77.5625 6.710938 C 77.730469 6.257812 77.984375 5.832031 78.289062 5.425781 C 78.316406 5.390625 78.363281 5.371094 78.402344 5.398438 Z M 78.402344 5.398438 "/></g></g></g></g><g clip-rule="nonzero" clip-path="url(#781cd10c32)"><g clip-rule="nonzero" clip-path="url(#10f14a4ef4)"><g clip-rule="nonzero" clip-path="url(#476fab7044)"><g clip-rule="nonzero" clip-path="url(#2ba340a5f3)"><path style=" stroke:none;fill-rule:nonzero;fill:#000000;fill-opacity:1;" d="M 79.207031 7.941406 C 78.75 7.6875 78.285156 7.445312 77.808594 7.210938 C 77.792969 7.203125 77.789062 7.214844 77.796875 7.238281 L 78.371094 8.699219 C 78.457031 8.996094 78.339844 9.183594 78.175781 9.417969 L 76.886719 11.34375 C 76.761719 11.53125 76.597656 11.726562 76.429688 11.925781 C 76.59375 11.75 76.753906 11.578125 76.882812 11.414062 L 78.324219 9.542969 C 78.515625 9.300781 78.628906 9.15625 78.5625 8.890625 L 78.078125 7.574219 C 78.070312 7.554688 78.078125 7.542969 78.09375 7.546875 C 78.671875 7.777344 79.242188 8.023438 79.804688 8.289062 L 79.863281 8.316406 C 79.644531 8.191406 79.425781 8.0625 79.207031 7.941406 Z M 78.121094 11.355469 L 77.835938 11.863281 C 77.457031 12.550781 77.1875 13.613281 76.59375 14.167969 C 76.375 14.375 75.578125 14.847656 75.410156 14.949219 C 75.308594 15.007812 75.324219 15.046875 75.425781 15.109375 C 75.488281 15.152344 75.574219 15.152344 75.660156 15.113281 C 75.660156 15.113281 76.578125 14.558594 76.804688 14.328125 C 77.355469 13.761719 77.542969 12.625 77.871094 11.898438 Z M 75.953125 13.308594 C 75.929688 13.332031 75.910156 13.355469 75.890625 13.382812 C 75.734375 13.621094 75.742188 13.878906 75.90625 13.953125 C 75.925781 13.964844 75.953125 13.972656 75.976562 13.972656 C 75.808594 13.878906 75.785156 13.601562 75.921875 13.351562 C 75.933594 13.335938 75.941406 13.320312 75.953125 13.308594 Z M 75.953125 13.308594 "/></g></g></g></g><g clip-rule="nonzero" clip-path="url(#d2ba10f5af)"><g clip-rule="nonzero" clip-path="url(#058c564d6b)"><g clip-rule="nonzero" clip-path="url(#30d1106570)"><g clip-rule="nonzero" clip-path="url(#f0867d7562)"><path style=" stroke:none;fill-rule:nonzero;fill:#000000;fill-opacity:1;" d="M 78.414062 5.523438 C 78.378906 5.5 78.335938 5.515625 78.3125 5.546875 C 78.09375 5.828125 77.90625 6.128906 77.765625 6.441406 C 77.925781 6.183594 78.128906 5.941406 78.359375 5.707031 C 78.386719 5.679688 78.429688 5.664062 78.46875 5.6875 C 79.359375 6.203125 80.300781 6.6875 81.28125 7.164062 C 80.285156 6.632812 79.328125 6.097656 78.414062 5.523438 Z M 82 7.84375 C 81.835938 8.109375 81.617188 8.410156 81.390625 8.632812 C 81.363281 8.660156 81.316406 8.671875 81.28125 8.648438 C 80.378906 8.136719 79.449219 7.640625 78.480469 7.167969 C 79.46875 7.691406 80.417969 8.242188 81.339844 8.816406 C 81.375 8.839844 81.417969 8.824219 81.441406 8.796875 C 81.65625 8.527344 81.859375 8.160156 82 7.84375 Z M 82 7.84375 "/></g></g></g></g><g clip-rule="nonzero" clip-path="url(#340cf5529f)"><path style=" stroke:none;fill-rule:nonzero;fill:#231f20;fill-opacity:1;" d="M 23.925781 11.835938 C 23.707031 11.890625 23.511719 11.941406 23.355469 12.078125 C 23.320312 12.105469 23.285156 12.171875 23.296875 12.203125 C 23.3125 12.238281 23.378906 12.269531 23.429688 12.277344 C 23.664062 12.308594 23.898438 12.109375 23.925781 11.835938 Z M 28.222656 11.828125 C 28.234375 12.109375 28.484375 12.316406 28.726562 12.273438 C 28.773438 12.265625 28.828125 12.230469 28.847656 12.191406 C 28.859375 12.171875 28.824219 12.109375 28.792969 12.082031 C 28.636719 11.945312 28.4375 11.894531 28.222656 11.828125 Z M 15.679688 10.480469 C 15.636719 10.484375 15.59375 10.484375 15.554688 10.492188 C 15.265625 10.535156 15.015625 10.761719 14.980469 11.011719 C 14.949219 11.238281 15.113281 11.476562 15.386719 11.589844 C 15.433594 11.609375 15.503906 11.621094 15.539062 11.601562 C 15.78125 11.445312 15.992188 11.257812 16.085938 10.984375 C 16.183594 10.691406 16 10.472656 15.679688 10.480469 Z M 36.472656 10.464844 C 36.136719 10.472656 35.953125 10.699219 36.058594 10.996094 C 36.15625 11.261719 36.363281 11.445312 36.597656 11.597656 C 36.628906 11.617188 36.691406 11.617188 36.730469 11.601562 C 36.960938 11.5 37.136719 11.355469 37.160156 11.09375 C 37.179688 10.882812 37.027344 10.664062 36.785156 10.558594 C 36.6875 10.515625 36.578125 10.496094 36.472656 10.464844 Z M 5.378906 12.179688 C 5.789062 11.898438 6.242188 11.730469 6.726562 11.628906 C 7.628906 11.4375 8.535156 11.445312 9.433594 11.601562 C 10.152344 11.726562 10.859375 11.890625 11.570312 12.039062 C 12.226562 12.175781 12.882812 12.265625 13.558594 12.210938 C 14.082031 12.171875 14.589844 12.0625 15.070312 11.855469 C 15.128906 11.832031 15.183594 11.804688 15.238281 11.777344 C 15.25 11.773438 15.253906 11.757812 15.277344 11.734375 C 15.222656 11.699219 15.167969 11.664062 15.117188 11.625 C 14.65625 11.292969 14.675781 10.75 15.160156 10.445312 C 15.382812 10.304688 15.625 10.257812 15.886719 10.332031 C 16.179688 10.417969 16.339844 10.671875 16.273438 10.960938 C 16.222656 11.179688 16.085938 11.351562 15.925781 11.507812 C 15.863281 11.570312 15.796875 11.625 15.695312 11.714844 C 15.890625 11.742188 16.050781 11.773438 16.210938 11.78125 C 16.9375 11.816406 17.648438 11.695312 18.351562 11.523438 C 19.035156 11.359375 19.71875 11.167969 20.410156 11.023438 C 21.226562 10.855469 22.058594 10.816406 22.890625 10.957031 C 23.402344 11.046875 23.734375 11.210938 24.070312 11.558594 C 24.359375 11.503906 24.65625 11.441406 24.949219 11.386719 C 25.9375 11.203125 26.910156 11.285156 27.875 11.527344 C 28.007812 11.558594 28.089844 11.554688 28.191406 11.445312 C 28.46875 11.144531 28.855469 11.03125 29.253906 10.960938 C 30.148438 10.800781 31.035156 10.867188 31.914062 11.058594 C 32.597656 11.210938 33.269531 11.402344 33.953125 11.558594 C 34.582031 11.707031 35.21875 11.816406 35.871094 11.785156 C 36.046875 11.773438 36.222656 11.746094 36.398438 11.726562 C 36.40625 11.710938 36.414062 11.695312 36.421875 11.675781 C 36.371094 11.636719 36.3125 11.605469 36.273438 11.558594 C 36.160156 11.429688 36.03125 11.304688 35.949219 11.15625 C 35.703125 10.714844 35.957031 10.3125 36.480469 10.292969 C 36.828125 10.28125 37.222656 10.542969 37.324219 10.855469 C 37.40625 11.097656 37.347656 11.3125 37.167969 11.492188 C 37.082031 11.582031 36.976562 11.65625 36.863281 11.75 C 36.925781 11.78125 36.980469 11.820312 37.042969 11.84375 C 37.875 12.199219 38.753906 12.3125 39.644531 12.183594 C 40.417969 12.074219 41.179688 11.878906 41.945312 11.730469 C 42.824219 11.554688 43.707031 11.4375 44.609375 11.511719 C 45.167969 11.558594 45.710938 11.664062 46.230469 11.875 C 46.414062 11.953125 46.597656 12.042969 46.78125 12.125 C 46.773438 12.140625 46.769531 12.152344 46.761719 12.167969 C 46.585938 12.117188 46.40625 12.078125 46.230469 12.019531 C 45.011719 11.613281 43.769531 11.554688 42.511719 11.816406 C 41.785156 11.96875 41.0625 12.136719 40.335938 12.273438 C 39.285156 12.472656 38.242188 12.460938 37.226562 12.097656 C 37.058594 12.039062 36.902344 11.953125 36.738281 11.882812 C 36.679688 11.859375 36.605469 11.832031 36.550781 11.847656 C 35.894531 12.011719 35.234375 11.972656 34.582031 11.84375 C 33.890625 11.707031 33.207031 11.53125 32.515625 11.375 C 31.699219 11.1875 30.875 11.046875 30.027344 11.082031 C 29.597656 11.101562 29.175781 11.148438 28.777344 11.3125 C 28.605469 11.382812 28.441406 11.464844 28.308594 11.640625 C 28.386719 11.667969 28.457031 11.683594 28.519531 11.714844 C 28.667969 11.792969 28.832031 11.859375 28.960938 11.960938 C 29.167969 12.125 29.097656 12.382812 28.839844 12.464844 C 28.492188 12.570312 28.039062 12.289062 27.992188 11.933594 C 27.984375 11.882812 27.984375 11.832031 27.984375 11.769531 C 26.710938 11.386719 25.441406 11.386719 24.160156 11.769531 C 24.152344 11.835938 24.152344 11.898438 24.144531 11.960938 C 24.097656 12.265625 23.695312 12.539062 23.375 12.480469 C 23.230469 12.457031 23.113281 12.394531 23.074219 12.25 C 23.035156 12.109375 23.097656 12.003906 23.214844 11.925781 C 23.304688 11.867188 23.398438 11.8125 23.496094 11.765625 C 23.59375 11.71875 23.699219 11.6875 23.8125 11.644531 C 23.773438 11.527344 23.667969 11.472656 23.574219 11.417969 C 23.269531 11.238281 22.925781 11.164062 22.578125 11.121094 C 21.707031 11.015625 20.847656 11.109375 19.996094 11.296875 C 19.28125 11.457031 18.570312 11.648438 17.851562 11.792969 C 17.417969 11.878906 16.96875 11.921875 16.523438 11.9375 C 16.222656 11.949219 15.921875 11.882812 15.621094 11.855469 C 15.554688 11.847656 15.46875 11.847656 15.414062 11.878906 C 14.609375 12.300781 13.742188 12.414062 12.839844 12.394531 C 12.074219 12.375 11.347656 12.171875 10.609375 12.007812 C 9.867188 11.839844 9.121094 11.6875 8.351562 11.664062 C 7.523438 11.636719 6.722656 11.753906 5.9375 12.011719 C 5.753906 12.070312 5.566406 12.125 5.378906 12.179688 "/></g><g style="fill:#000000;fill-opacity:1;"><g transform="translate(42.911167, 22.768774)"><path style="stroke:none" d="M -0.78125 -6.28125 C -0.46875 -6.414062 -0.195312 -6.484375 0.03125 -6.484375 C 0.257812 -6.484375 0.457031 -6.457031 0.625 -6.40625 C 0.800781 -6.363281 0.976562 -6.289062 1.15625 -6.1875 C 1.34375 -6.09375 1.519531 -5.972656 1.6875 -5.828125 C 1.988281 -5.535156 2.242188 -5.207031 2.453125 -4.84375 L 4.09375 -1.765625 L 6.484375 -5.859375 L 6.546875 -5.859375 L 7.40625 -1.03125 C 7.539062 -0.289062 7.769531 0.296875 8.09375 0.734375 C 8.414062 1.179688 8.859375 1.40625 9.421875 1.40625 C 9.453125 1.40625 9.488281 1.40625 9.53125 1.40625 L 9.53125 1.484375 C 9.226562 1.566406 8.929688 1.609375 8.640625 1.609375 C 8.046875 1.609375 7.503906 1.375 7.015625 0.90625 C 6.546875 0.46875 6.226562 -0.175781 6.0625 -1.03125 L 5.65625 -3.421875 L 4.125 -0.75 C 3.914062 -0.40625 3.804688 -0.101562 3.796875 0.15625 L 3.71875 0.15625 L 1.6875 -3.703125 L 1.28125 -0.421875 C 1.257812 -0.296875 1.3125 -0.195312 1.4375 -0.125 C 1.488281 -0.09375 1.539062 -0.078125 1.59375 -0.078125 L 1.734375 -0.078125 L 1.734375 0 L 0.015625 0 L 0.015625 -0.078125 L 0.140625 -0.078125 C 0.285156 -0.078125 0.414062 -0.117188 0.53125 -0.203125 C 0.644531 -0.296875 0.710938 -0.414062 0.734375 -0.5625 L 1.296875 -4.46875 C 1.046875 -4.90625 0.765625 -5.296875 0.453125 -5.640625 C 0.0976562 -6.015625 -0.273438 -6.203125 -0.671875 -6.203125 C -0.703125 -6.203125 -0.734375 -6.203125 -0.765625 -6.203125 Z M -0.78125 -6.28125 "/></g></g><g style="fill:#000000;fill-opacity:1;"><g transform="translate(50.848541, 22.768774)"><path style="stroke:none" d="M 3.609375 -5.859375 C 4.617188 -5.859375 5.421875 -5.585938 6.015625 -5.046875 C 6.617188 -4.515625 6.921875 -3.789062 6.921875 -2.875 C 6.921875 -1.957031 6.617188 -1.226562 6.015625 -0.6875 C 5.421875 -0.15625 4.617188 0.109375 3.609375 0.109375 C 2.597656 0.109375 1.789062 -0.15625 1.1875 -0.6875 C 0.59375 -1.226562 0.296875 -1.957031 0.296875 -2.875 C 0.296875 -3.476562 0.429688 -4.003906 0.703125 -4.453125 C 0.972656 -4.910156 1.359375 -5.257812 1.859375 -5.5 C 2.359375 -5.738281 2.941406 -5.859375 3.609375 -5.859375 Z M 2.171875 -0.9375 C 2.523438 -0.46875 3.003906 -0.234375 3.609375 -0.234375 C 4.210938 -0.234375 4.6875 -0.46875 5.03125 -0.9375 C 5.382812 -1.414062 5.5625 -2.0625 5.5625 -2.875 C 5.5625 -3.40625 5.484375 -3.867188 5.328125 -4.265625 C 5.171875 -4.671875 4.941406 -4.976562 4.640625 -5.1875 C 4.347656 -5.40625 4.003906 -5.515625 3.609375 -5.515625 C 3.003906 -5.515625 2.523438 -5.273438 2.171875 -4.796875 C 1.828125 -4.328125 1.65625 -3.6875 1.65625 -2.875 C 1.65625 -2.0625 1.828125 -1.414062 2.171875 -0.9375 Z M 2.171875 -0.9375 "/></g></g><g style="fill:#000000;fill-opacity:1;"><g transform="translate(57.892063, 22.768774)"><path style="stroke:none" d="M 3.328125 -5.734375 C 4.296875 -5.734375 5.0625 -5.476562 5.625 -4.96875 C 6.1875 -4.457031 6.46875 -3.757812 6.46875 -2.875 C 6.46875 -1.988281 6.1875 -1.285156 5.625 -0.765625 C 5.0625 -0.253906 4.296875 0 3.328125 0 L 0.34375 0 L 0.34375 -0.078125 L 0.453125 -0.078125 C 0.597656 -0.078125 0.71875 -0.128906 0.8125 -0.234375 C 0.914062 -0.335938 0.96875 -0.457031 0.96875 -0.59375 L 0.96875 -5.1875 C 0.957031 -5.320312 0.898438 -5.429688 0.796875 -5.515625 C 0.703125 -5.609375 0.585938 -5.65625 0.453125 -5.65625 L 0.34375 -5.65625 L 0.34375 -5.734375 Z M 3.21875 -0.34375 C 3.613281 -0.34375 3.953125 -0.441406 4.234375 -0.640625 C 4.523438 -0.847656 4.742188 -1.140625 4.890625 -1.515625 C 5.046875 -1.898438 5.125 -2.351562 5.125 -2.875 C 5.125 -3.644531 4.953125 -4.253906 4.609375 -4.703125 C 4.265625 -5.160156 3.800781 -5.390625 3.21875 -5.390625 L 2.203125 -5.390625 L 2.203125 -0.34375 Z M 3.21875 -0.34375 "/></g></g><g style="fill:#000000;fill-opacity:1;"><g transform="translate(64.517395, 22.768774)"><path style="stroke:none" d="M 0.453125 -0.078125 C 0.597656 -0.078125 0.71875 -0.128906 0.8125 -0.234375 C 0.914062 -0.335938 0.96875 -0.457031 0.96875 -0.59375 L 0.96875 -5.171875 C 0.957031 -5.359375 0.867188 -5.5 0.703125 -5.59375 C 0.617188 -5.632812 0.535156 -5.65625 0.453125 -5.65625 L 0.34375 -5.65625 L 0.34375 -5.734375 L 3.484375 -5.734375 C 3.648438 -5.734375 3.832031 -5.75 4.03125 -5.78125 C 4.238281 -5.820312 4.382812 -5.859375 4.46875 -5.890625 L 4.46875 -4.453125 L 4.390625 -4.453125 L 4.390625 -4.546875 C 4.390625 -4.796875 4.316406 -4.992188 4.171875 -5.140625 C 4.023438 -5.296875 3.828125 -5.378906 3.578125 -5.390625 L 2.203125 -5.390625 L 2.203125 -3 L 3.296875 -3 C 3.492188 -3.007812 3.65625 -3.078125 3.78125 -3.203125 C 3.914062 -3.335938 3.984375 -3.503906 3.984375 -3.703125 L 3.984375 -3.78125 L 4.0625 -3.78125 L 4.0625 -1.890625 L 3.984375 -1.890625 L 3.984375 -1.953125 C 3.984375 -2.222656 3.875 -2.425781 3.65625 -2.5625 C 3.550781 -2.625 3.429688 -2.65625 3.296875 -2.65625 L 2.203125 -2.65625 L 2.203125 -0.359375 L 3.28125 -0.359375 C 3.675781 -0.359375 4.007812 -0.472656 4.28125 -0.703125 C 4.550781 -0.929688 4.753906 -1.253906 4.890625 -1.671875 L 4.96875 -1.671875 L 4.59375 0 L 0.34375 0 L 0.34375 -0.078125 Z M 0.453125 -0.078125 "/></g></g><g style="fill:#000000;fill-opacity:1;"><g transform="translate(69.691446, 22.768774)"><path style="stroke:none" d="M 0.40625 -0.765625 C 0.40625 -1.160156 0.492188 -1.492188 0.671875 -1.765625 L 0.734375 -1.765625 C 0.734375 -1.722656 0.734375 -1.679688 0.734375 -1.640625 C 0.734375 -1.265625 0.867188 -0.9375 1.140625 -0.65625 C 1.410156 -0.375 1.78125 -0.234375 2.25 -0.234375 C 2.613281 -0.234375 2.894531 -0.316406 3.09375 -0.484375 C 3.300781 -0.660156 3.40625 -0.882812 3.40625 -1.15625 C 3.40625 -1.476562 3.1875 -1.757812 2.75 -2 L 1.328125 -2.9375 C 1.046875 -3.101562 0.84375 -3.300781 0.71875 -3.53125 C 0.59375 -3.769531 0.53125 -4.007812 0.53125 -4.25 C 0.53125 -4.757812 0.691406 -5.15625 1.015625 -5.4375 C 1.347656 -5.71875 1.765625 -5.859375 2.265625 -5.859375 C 2.566406 -5.859375 2.941406 -5.832031 3.390625 -5.78125 L 3.90625 -5.78125 L 3.796875 -4.5625 L 3.71875 -4.5625 C 3.71875 -4.851562 3.609375 -5.082031 3.390625 -5.25 C 3.179688 -5.425781 2.90625 -5.515625 2.5625 -5.515625 C 2.132812 -5.515625 1.820312 -5.382812 1.625 -5.125 C 1.53125 -5 1.484375 -4.851562 1.484375 -4.6875 C 1.484375 -4.425781 1.675781 -4.1875 2.0625 -3.96875 L 3.625 -2.9375 C 4.113281 -2.65625 4.359375 -2.238281 4.359375 -1.6875 C 4.359375 -1.101562 4.160156 -0.65625 3.765625 -0.34375 C 3.367188 -0.0390625 2.84375 0.109375 2.1875 0.109375 C 1.8125 0.109375 1.46875 0.0664062 1.15625 -0.015625 C 0.84375 -0.109375 0.613281 -0.234375 0.46875 -0.390625 C 0.425781 -0.492188 0.40625 -0.617188 0.40625 -0.765625 Z M 0.40625 -0.765625 "/></g></g><g style="fill:#000000;fill-opacity:1;"><g transform="translate(74.430912, 22.768774)"><path style="stroke:none" d="M 3.359375 -5.40625 L 3.359375 -0.59375 C 3.359375 -0.445312 3.410156 -0.320312 3.515625 -0.21875 C 3.617188 -0.125 3.738281 -0.078125 3.875 -0.078125 L 3.984375 -0.078125 L 3.984375 0 L 1.5 0 L 1.5 -0.078125 L 1.59375 -0.078125 C 1.726562 -0.078125 1.847656 -0.125 1.953125 -0.21875 C 2.054688 -0.320312 2.113281 -0.441406 2.125 -0.578125 L 2.125 -5.40625 L 1.015625 -5.40625 C 0.765625 -5.394531 0.566406 -5.3125 0.421875 -5.15625 C 0.273438 -5.007812 0.203125 -4.8125 0.203125 -4.5625 L 0.203125 -4.46875 L 0.109375 -4.46875 L 0.109375 -5.890625 C 0.191406 -5.859375 0.332031 -5.828125 0.53125 -5.796875 C 0.726562 -5.765625 0.910156 -5.75 1.078125 -5.75 L 4.390625 -5.75 C 4.660156 -5.757812 4.878906 -5.78125 5.046875 -5.8125 C 5.210938 -5.851562 5.316406 -5.878906 5.359375 -5.890625 L 5.359375 -4.46875 L 5.28125 -4.46875 L 5.28125 -4.5625 C 5.28125 -4.8125 5.203125 -5.007812 5.046875 -5.15625 C 4.898438 -5.3125 4.703125 -5.394531 4.453125 -5.40625 Z M 3.359375 -5.40625 "/></g></g><g style="fill:#000000;fill-opacity:1;"><g transform="translate(79.809924, 22.768774)"><path style="stroke:none" d="M 3.609375 -5.859375 C 4.617188 -5.859375 5.421875 -5.585938 6.015625 -5.046875 C 6.617188 -4.515625 6.921875 -3.789062 6.921875 -2.875 C 6.921875 -1.957031 6.617188 -1.226562 6.015625 -0.6875 C 5.421875 -0.15625 4.617188 0.109375 3.609375 0.109375 C 2.597656 0.109375 1.789062 -0.15625 1.1875 -0.6875 C 0.59375 -1.226562 0.296875 -1.957031 0.296875 -2.875 C 0.296875 -3.476562 0.429688 -4.003906 0.703125 -4.453125 C 0.972656 -4.910156 1.359375 -5.257812 1.859375 -5.5 C 2.359375 -5.738281 2.941406 -5.859375 3.609375 -5.859375 Z M 2.171875 -0.9375 C 2.523438 -0.46875 3.003906 -0.234375 3.609375 -0.234375 C 4.210938 -0.234375 4.6875 -0.46875 5.03125 -0.9375 C 5.382812 -1.414062 5.5625 -2.0625 5.5625 -2.875 C 5.5625 -3.40625 5.484375 -3.867188 5.328125 -4.265625 C 5.171875 -4.671875 4.941406 -4.976562 4.640625 -5.1875 C 4.347656 -5.40625 4.003906 -5.515625 3.609375 -5.515625 C 3.003906 -5.515625 2.523438 -5.273438 2.171875 -4.796875 C 1.828125 -4.328125 1.65625 -3.6875 1.65625 -2.875 C 1.65625 -2.0625 1.828125 -1.414062 2.171875 -0.9375 Z M 2.171875 -0.9375 "/></g></g><g style="fill:#000000;fill-opacity:1;"><g transform="translate(87.022349, 22.768774)"><path style="stroke:none" d=""/></g></g><g style="fill:#000000;fill-opacity:1;"><g transform="translate(50.916778, 30.908257)"><path style="stroke:none" d="M 1.8125 -3.6875 C 2.101562 -3.6875 2.351562 -3.613281 2.5625 -3.46875 C 2.820312 -3.269531 2.953125 -2.96875 2.953125 -2.5625 C 2.953125 -2.269531 2.867188 -2.019531 2.703125 -1.8125 C 2.523438 -1.582031 2.28125 -1.46875 1.96875 -1.46875 C 1.800781 -1.46875 1.644531 -1.507812 1.5 -1.59375 C 1.363281 -1.675781 1.285156 -1.816406 1.265625 -2.015625 L 1.3125 -2.03125 C 1.351562 -1.875 1.441406 -1.769531 1.578125 -1.71875 C 1.671875 -1.675781 1.75 -1.65625 1.8125 -1.65625 C 2.09375 -1.65625 2.300781 -1.765625 2.4375 -1.984375 C 2.519531 -2.140625 2.5625 -2.332031 2.5625 -2.5625 C 2.5625 -2.914062 2.460938 -3.171875 2.265625 -3.328125 C 2.117188 -3.453125 1.929688 -3.515625 1.703125 -3.515625 C 1.640625 -3.515625 1.585938 -3.507812 1.546875 -3.5 C 1.515625 -3.5 1.34375 -3.472656 1.03125 -3.421875 L 1.03125 -0.375 C 1.039062 -0.28125 1.078125 -0.203125 1.140625 -0.140625 C 1.203125 -0.078125 1.28125 -0.046875 1.375 -0.046875 L 1.4375 -0.046875 L 1.4375 0 L 0.3125 0 L 0.3125 -0.046875 L 0.375 -0.046875 C 0.457031 -0.046875 0.53125 -0.078125 0.59375 -0.140625 C 0.664062 -0.203125 0.703125 -0.28125 0.703125 -0.375 L 0.703125 -3.15625 C 0.703125 -3.25 0.675781 -3.316406 0.625 -3.359375 C 0.570312 -3.410156 0.503906 -3.4375 0.421875 -3.4375 C 0.410156 -3.4375 0.394531 -3.4375 0.375 -3.4375 L 0.3125 -3.421875 L 0.296875 -3.484375 C 0.484375 -3.492188 0.722656 -3.523438 1.015625 -3.578125 C 1.316406 -3.628906 1.503906 -3.660156 1.578125 -3.671875 C 1.648438 -3.679688 1.726562 -3.6875 1.8125 -3.6875 Z M 1.8125 -3.6875 "/></g></g><g style="fill:#000000;fill-opacity:1;"><g transform="translate(53.70307, 30.908257)"><path style="stroke:none" d="M 3.671875 -0.046875 L 3.71875 -0.046875 L 3.71875 0 L 2.5625 0 L 2.5625 -0.046875 L 2.609375 -0.046875 C 2.679688 -0.046875 2.734375 -0.0664062 2.765625 -0.109375 C 2.804688 -0.160156 2.828125 -0.207031 2.828125 -0.25 C 2.828125 -0.289062 2.816406 -0.332031 2.796875 -0.375 L 2.46875 -1.25 L 1.078125 -1.25 L 0.734375 -0.375 C 0.722656 -0.332031 0.71875 -0.289062 0.71875 -0.25 C 0.71875 -0.207031 0.734375 -0.160156 0.765625 -0.109375 C 0.804688 -0.0664062 0.863281 -0.046875 0.9375 -0.046875 L 0.984375 -0.046875 L 0.984375 0 L -0.046875 0 L -0.046875 -0.046875 L 0 -0.046875 C 0.0820312 -0.046875 0.164062 -0.0703125 0.25 -0.125 C 0.332031 -0.1875 0.398438 -0.269531 0.453125 -0.375 L 1.609375 -3.140625 C 1.734375 -3.421875 1.796875 -3.597656 1.796875 -3.671875 L 1.84375 -3.671875 L 3.21875 -0.375 C 3.269531 -0.269531 3.335938 -0.1875 3.421875 -0.125 C 3.503906 -0.0703125 3.585938 -0.046875 3.671875 -0.046875 Z M 1.140625 -1.40625 L 2.40625 -1.40625 L 1.796875 -3.046875 Z M 1.140625 -1.40625 "/></g></g><g style="fill:#000000;fill-opacity:1;"><g transform="translate(57.363296, 30.908257)"><path style="stroke:none" d="M 0.375 -0.046875 C 0.46875 -0.046875 0.546875 -0.078125 0.609375 -0.140625 C 0.671875 -0.203125 0.703125 -0.28125 0.703125 -0.375 L 0.703125 -3.234375 C 0.703125 -3.316406 0.671875 -3.390625 0.609375 -3.453125 C 0.546875 -3.515625 0.46875 -3.546875 0.375 -3.546875 L 0.3125 -3.546875 L 0.3125 -3.59375 L 1.4375 -3.59375 L 1.4375 -3.546875 L 1.375 -3.546875 C 1.28125 -3.546875 1.203125 -3.515625 1.140625 -3.453125 C 1.078125 -3.390625 1.039062 -3.316406 1.03125 -3.234375 L 1.03125 -0.375 C 1.03125 -0.28125 1.0625 -0.203125 1.125 -0.140625 C 1.195312 -0.078125 1.28125 -0.046875 1.375 -0.046875 L 1.4375 -0.046875 L 1.4375 0 L 0.3125 0 L 0.3125 -0.046875 Z M 0.375 -0.046875 "/></g></g><g style="fill:#000000;fill-opacity:1;"><g transform="translate(59.100875, 30.908257)"><path style="stroke:none" d="M 4 -3.546875 C 3.914062 -3.546875 3.84375 -3.515625 3.78125 -3.453125 C 3.71875 -3.390625 3.6875 -3.316406 3.6875 -3.234375 L 3.6875 -0.59375 C 3.6875 -0.382812 3.695312 -0.191406 3.71875 -0.015625 L 3.734375 0.078125 L 3.6875 0.078125 L 0.875 -2.921875 L 0.875 -0.359375 C 0.875 -0.273438 0.90625 -0.203125 0.96875 -0.140625 C 1.03125 -0.078125 1.101562 -0.046875 1.1875 -0.046875 L 1.296875 -0.046875 L 1.296875 0 L 0.234375 0 L 0.234375 -0.046875 L 0.328125 -0.046875 C 0.410156 -0.046875 0.484375 -0.078125 0.546875 -0.140625 C 0.609375 -0.203125 0.640625 -0.273438 0.640625 -0.359375 L 0.640625 -3.03125 C 0.640625 -3.238281 0.628906 -3.425781 0.609375 -3.59375 L 0.59375 -3.671875 L 0.640625 -3.671875 L 3.453125 -0.6875 L 3.453125 -3.234375 C 3.441406 -3.316406 3.40625 -3.390625 3.34375 -3.453125 C 3.289062 -3.515625 3.21875 -3.546875 3.125 -3.546875 L 3.03125 -3.546875 L 3.03125 -3.59375 L 4.09375 -3.59375 L 4.09375 -3.546875 Z M 4 -3.546875 "/></g></g><g style="fill:#000000;fill-opacity:1;"><g transform="translate(63.424257, 30.908257)"><path style="stroke:none" d="M 3.03125 -3.140625 C 3.03125 -3.222656 3 -3.289062 2.9375 -3.34375 C 2.882812 -3.40625 2.816406 -3.441406 2.734375 -3.453125 L 1.765625 -3.453125 L 1.765625 -0.375 C 1.765625 -0.28125 1.796875 -0.203125 1.859375 -0.140625 C 1.921875 -0.078125 2 -0.046875 2.09375 -0.046875 L 2.15625 -0.046875 L 2.15625 0 L 1.03125 0 L 1.03125 -0.046875 L 1.09375 -0.046875 C 1.1875 -0.046875 1.265625 -0.078125 1.328125 -0.140625 C 1.390625 -0.203125 1.421875 -0.273438 1.421875 -0.359375 L 1.421875 -3.453125 L 0.453125 -3.453125 C 0.367188 -3.441406 0.296875 -3.40625 0.234375 -3.34375 C 0.179688 -3.289062 0.15625 -3.222656 0.15625 -3.140625 L 0.15625 -3.046875 L 0.109375 -3.046875 L 0.109375 -3.703125 C 0.160156 -3.679688 0.25 -3.660156 0.375 -3.640625 C 0.5 -3.617188 0.613281 -3.609375 0.71875 -3.609375 L 2.453125 -3.609375 C 2.617188 -3.609375 2.757812 -3.617188 2.875 -3.640625 C 2.988281 -3.671875 3.054688 -3.691406 3.078125 -3.703125 L 3.078125 -3.046875 L 3.03125 -3.046875 Z M 3.03125 -3.140625 "/></g></g><g style="fill:#000000;fill-opacity:1;"><g transform="translate(66.601245, 30.908257)"><path style="stroke:none" d=""/></g></g><g style="fill:#000000;fill-opacity:1;"><g transform="translate(67.886434, 30.908257)"><path style="stroke:none" d="M 1.8125 -3.6875 C 2.101562 -3.6875 2.351562 -3.613281 2.5625 -3.46875 C 2.820312 -3.269531 2.953125 -2.96875 2.953125 -2.5625 C 2.953125 -2.269531 2.867188 -2.019531 2.703125 -1.8125 C 2.523438 -1.582031 2.28125 -1.46875 1.96875 -1.46875 C 1.800781 -1.46875 1.644531 -1.507812 1.5 -1.59375 C 1.363281 -1.675781 1.285156 -1.816406 1.265625 -2.015625 L 1.3125 -2.03125 C 1.351562 -1.875 1.441406 -1.769531 1.578125 -1.71875 C 1.671875 -1.675781 1.75 -1.65625 1.8125 -1.65625 C 2.09375 -1.65625 2.300781 -1.765625 2.4375 -1.984375 C 2.519531 -2.140625 2.5625 -2.332031 2.5625 -2.5625 C 2.5625 -2.914062 2.460938 -3.171875 2.265625 -3.328125 C 2.117188 -3.453125 1.929688 -3.515625 1.703125 -3.515625 C 1.640625 -3.515625 1.585938 -3.507812 1.546875 -3.5 C 1.515625 -3.5 1.34375 -3.472656 1.03125 -3.421875 L 1.03125 -0.375 C 1.039062 -0.28125 1.078125 -0.203125 1.140625 -0.140625 C 1.203125 -0.078125 1.28125 -0.046875 1.375 -0.046875 L 1.4375 -0.046875 L 1.4375 0 L 0.3125 0 L 0.3125 -0.046875 L 0.375 -0.046875 C 0.457031 -0.046875 0.53125 -0.078125 0.59375 -0.140625 C 0.664062 -0.203125 0.703125 -0.28125 0.703125 -0.375 L 0.703125 -3.15625 C 0.703125 -3.25 0.675781 -3.316406 0.625 -3.359375 C 0.570312 -3.410156 0.503906 -3.4375 0.421875 -3.4375 C 0.410156 -3.4375 0.394531 -3.4375 0.375 -3.4375 L 0.3125 -3.421875 L 0.296875 -3.484375 C 0.484375 -3.492188 0.722656 -3.523438 1.015625 -3.578125 C 1.316406 -3.628906 1.503906 -3.660156 1.578125 -3.671875 C 1.648438 -3.679688 1.726562 -3.6875 1.8125 -3.6875 Z M 1.8125 -3.6875 "/></g></g><g style="fill:#000000;fill-opacity:1;"><g transform="translate(71.022299, 30.908257)"><path style="stroke:none" d="M 1.375 -3.4375 L 1.03125 -3.4375 L 1.03125 -0.375 C 1.03125 -0.28125 1.0625 -0.203125 1.125 -0.140625 C 1.195312 -0.078125 1.28125 -0.046875 1.375 -0.046875 L 1.421875 -0.046875 L 1.4375 0 L 0.3125 0 L 0.3125 -0.046875 L 0.375 -0.046875 C 0.46875 -0.046875 0.546875 -0.078125 0.609375 -0.140625 C 0.671875 -0.203125 0.703125 -0.28125 0.703125 -0.375 L 0.703125 -3.21875 C 0.703125 -3.3125 0.671875 -3.390625 0.609375 -3.453125 C 0.546875 -3.515625 0.46875 -3.546875 0.375 -3.546875 L 0.3125 -3.546875 L 0.3125 -3.59375 L 1.703125 -3.59375 C 2.015625 -3.59375 2.257812 -3.503906 2.4375 -3.328125 C 2.613281 -3.160156 2.703125 -2.9375 2.703125 -2.65625 C 2.703125 -2.382812 2.613281 -2.148438 2.4375 -1.953125 C 2.269531 -1.753906 2.066406 -1.65625 1.828125 -1.65625 C 1.878906 -1.625 1.9375 -1.570312 2 -1.5 C 2.070312 -1.4375 2.132812 -1.367188 2.1875 -1.296875 C 2.488281 -0.867188 2.679688 -0.601562 2.765625 -0.5 C 2.859375 -0.40625 2.921875 -0.335938 2.953125 -0.296875 C 2.992188 -0.265625 3.035156 -0.234375 3.078125 -0.203125 C 3.128906 -0.171875 3.175781 -0.144531 3.21875 -0.125 C 3.3125 -0.0703125 3.414062 -0.046875 3.53125 -0.046875 L 3.53125 0 L 3.25 0 C 3.101562 0 2.96875 -0.0234375 2.84375 -0.078125 C 2.71875 -0.128906 2.625 -0.179688 2.5625 -0.234375 C 2.5 -0.296875 2.441406 -0.351562 2.390625 -0.40625 C 2.347656 -0.457031 2.222656 -0.632812 2.015625 -0.9375 C 1.804688 -1.238281 1.679688 -1.410156 1.640625 -1.453125 C 1.609375 -1.492188 1.570312 -1.535156 1.53125 -1.578125 C 1.425781 -1.703125 1.316406 -1.765625 1.203125 -1.765625 L 1.203125 -1.8125 C 1.234375 -1.800781 1.269531 -1.796875 1.3125 -1.796875 C 1.351562 -1.796875 1.410156 -1.800781 1.484375 -1.8125 C 1.910156 -1.820312 2.175781 -2 2.28125 -2.34375 C 2.300781 -2.414062 2.3125 -2.476562 2.3125 -2.53125 C 2.3125 -2.59375 2.3125 -2.632812 2.3125 -2.65625 C 2.300781 -2.882812 2.238281 -3.066406 2.125 -3.203125 C 2.019531 -3.347656 1.867188 -3.425781 1.671875 -3.4375 C 1.585938 -3.4375 1.488281 -3.4375 1.375 -3.4375 Z M 1.375 -3.4375 "/></g></g><g style="fill:#000000;fill-opacity:1;"><g transform="translate(74.271265, 30.908257)"><path style="stroke:none" d="M 0.75 -3.15625 C 1.125 -3.5 1.601562 -3.671875 2.1875 -3.671875 C 2.769531 -3.671875 3.242188 -3.5 3.609375 -3.15625 C 3.972656 -2.8125 4.15625 -2.359375 4.15625 -1.796875 C 4.15625 -1.242188 3.972656 -0.789062 3.609375 -0.4375 C 3.242188 -0.09375 2.769531 0.078125 2.1875 0.078125 C 1.601562 0.078125 1.125 -0.09375 0.75 -0.4375 C 0.382812 -0.789062 0.203125 -1.242188 0.203125 -1.796875 C 0.203125 -2.359375 0.382812 -2.8125 0.75 -3.15625 Z M 1.03125 -0.546875 C 1.320312 -0.234375 1.703125 -0.078125 2.171875 -0.078125 C 2.648438 -0.078125 3.03125 -0.234375 3.3125 -0.546875 C 3.601562 -0.867188 3.75 -1.285156 3.75 -1.796875 C 3.75 -2.304688 3.601562 -2.71875 3.3125 -3.03125 C 3.03125 -3.351562 2.648438 -3.515625 2.171875 -3.515625 C 1.703125 -3.515625 1.320312 -3.351562 1.03125 -3.03125 C 0.738281 -2.71875 0.59375 -2.304688 0.59375 -1.796875 C 0.59375 -1.285156 0.738281 -0.867188 1.03125 -0.546875 Z M 1.03125 -0.546875 "/></g></g><g style="fill:#000000;fill-opacity:1;"><g transform="translate(78.630631, 30.908257)"><path style="stroke:none" d="M 0.3125 -0.203125 C 0.300781 -0.253906 0.296875 -0.347656 0.296875 -0.484375 C 0.296875 -0.617188 0.320312 -0.765625 0.375 -0.921875 L 0.421875 -0.921875 C 0.421875 -0.890625 0.421875 -0.851562 0.421875 -0.8125 C 0.421875 -0.601562 0.484375 -0.425781 0.609375 -0.28125 C 0.734375 -0.144531 0.898438 -0.078125 1.109375 -0.078125 C 1.328125 -0.078125 1.503906 -0.140625 1.640625 -0.265625 C 1.773438 -0.398438 1.84375 -0.566406 1.84375 -0.765625 C 1.84375 -0.960938 1.78125 -1.125 1.65625 -1.25 L 0.65625 -2.171875 C 0.476562 -2.335938 0.390625 -2.539062 0.390625 -2.78125 C 0.390625 -3.03125 0.46875 -3.238281 0.625 -3.40625 C 0.789062 -3.582031 1.015625 -3.671875 1.296875 -3.671875 C 1.421875 -3.671875 1.566406 -3.65625 1.734375 -3.625 L 1.9375 -3.625 L 1.9375 -2.984375 L 1.890625 -2.984375 C 1.890625 -3.148438 1.832031 -3.28125 1.71875 -3.375 C 1.601562 -3.46875 1.457031 -3.515625 1.28125 -3.515625 C 1.113281 -3.515625 0.96875 -3.457031 0.84375 -3.34375 C 0.726562 -3.226562 0.671875 -3.082031 0.671875 -2.90625 C 0.671875 -2.726562 0.738281 -2.578125 0.875 -2.453125 L 1.890625 -1.515625 C 2.066406 -1.359375 2.15625 -1.140625 2.15625 -0.859375 C 2.15625 -0.585938 2.066406 -0.363281 1.890625 -0.1875 C 1.710938 -0.0078125 1.476562 0.078125 1.1875 0.078125 C 1.039062 0.078125 0.878906 0.0507812 0.703125 0 C 0.535156 -0.0390625 0.40625 -0.109375 0.3125 -0.203125 Z M 0.3125 -0.203125 "/></g></g><g clip-rule="nonzero" clip-path="url(#35a4d44606)"><path style=" stroke:none;fill-rule:nonzero;fill:#231f20;fill-opacity:1;" d="M 102.53125 11.835938 C 102.316406 11.890625 102.117188 11.941406 101.960938 12.078125 C 101.925781 12.105469 101.890625 12.171875 101.902344 12.203125 C 101.917969 12.238281 101.984375 12.269531 102.035156 12.277344 C 102.269531 12.308594 102.503906 12.109375 102.53125 11.835938 Z M 106.828125 11.828125 C 106.839844 12.109375 107.089844 12.316406 107.332031 12.273438 C 107.378906 12.265625 107.433594 12.230469 107.453125 12.191406 C 107.46875 12.171875 107.429688 12.109375 107.398438 12.082031 C 107.242188 11.945312 107.042969 11.894531 106.828125 11.828125 Z M 94.285156 10.480469 C 94.242188 10.484375 94.203125 10.484375 94.160156 10.492188 C 93.871094 10.535156 93.625 10.761719 93.585938 11.011719 C 93.554688 11.238281 93.71875 11.476562 93.992188 11.589844 C 94.039062 11.609375 94.109375 11.621094 94.144531 11.601562 C 94.386719 11.445312 94.597656 11.257812 94.691406 10.984375 C 94.789062 10.691406 94.609375 10.472656 94.285156 10.480469 Z M 115.082031 10.464844 C 114.742188 10.472656 114.558594 10.699219 114.667969 10.996094 C 114.761719 11.261719 114.96875 11.445312 115.203125 11.597656 C 115.234375 11.617188 115.300781 11.617188 115.335938 11.601562 C 115.566406 11.5 115.742188 11.355469 115.765625 11.09375 C 115.785156 10.882812 115.636719 10.664062 115.390625 10.558594 C 115.292969 10.515625 115.183594 10.496094 115.082031 10.464844 Z M 83.984375 12.179688 C 84.394531 11.898438 84.847656 11.730469 85.332031 11.628906 C 86.234375 11.4375 87.140625 11.445312 88.042969 11.601562 C 88.757812 11.726562 89.464844 11.890625 90.175781 12.039062 C 90.832031 12.175781 91.492188 12.265625 92.164062 12.210938 C 92.6875 12.171875 93.195312 12.0625 93.679688 11.855469 C 93.734375 11.832031 93.789062 11.804688 93.84375 11.777344 C 93.855469 11.773438 93.863281 11.757812 93.882812 11.734375 C 93.828125 11.699219 93.777344 11.664062 93.722656 11.625 C 93.261719 11.292969 93.28125 10.75 93.765625 10.445312 C 93.988281 10.304688 94.230469 10.257812 94.492188 10.332031 C 94.789062 10.417969 94.945312 10.671875 94.878906 10.960938 C 94.828125 11.179688 94.691406 11.351562 94.53125 11.507812 C 94.46875 11.570312 94.402344 11.625 94.300781 11.714844 C 94.496094 11.742188 94.65625 11.773438 94.816406 11.78125 C 95.542969 11.816406 96.253906 11.695312 96.957031 11.523438 C 97.644531 11.359375 98.324219 11.167969 99.015625 11.023438 C 99.835938 10.855469 100.664062 10.816406 101.496094 10.957031 C 102.007812 11.046875 102.339844 11.210938 102.675781 11.558594 C 102.964844 11.503906 103.261719 11.441406 103.558594 11.386719 C 104.542969 11.203125 105.515625 11.285156 106.480469 11.527344 C 106.613281 11.558594 106.695312 11.554688 106.800781 11.445312 C 107.074219 11.144531 107.460938 11.03125 107.859375 10.960938 C 108.753906 10.800781 109.644531 10.867188 110.519531 11.058594 C 111.203125 11.210938 111.878906 11.402344 112.558594 11.558594 C 113.1875 11.707031 113.824219 11.816406 114.476562 11.785156 C 114.652344 11.773438 114.828125 11.746094 115.003906 11.726562 C 115.011719 11.710938 115.019531 11.695312 115.027344 11.675781 C 114.976562 11.636719 114.921875 11.605469 114.878906 11.558594 C 114.765625 11.429688 114.636719 11.304688 114.554688 11.15625 C 114.308594 10.714844 114.566406 10.3125 115.089844 10.292969 C 115.433594 10.28125 115.828125 10.542969 115.929688 10.855469 C 116.011719 11.097656 115.953125 11.3125 115.777344 11.492188 C 115.6875 11.582031 115.582031 11.65625 115.46875 11.75 C 115.53125 11.78125 115.585938 11.820312 115.648438 11.84375 C 116.480469 12.199219 117.359375 12.3125 118.25 12.183594 C 119.023438 12.074219 119.785156 11.878906 120.550781 11.730469 C 121.429688 11.554688 122.3125 11.4375 123.214844 11.511719 C 123.773438 11.558594 124.316406 11.664062 124.835938 11.875 C 125.023438 11.953125 125.203125 12.042969 125.386719 12.125 C 125.382812 12.140625 125.375 12.152344 125.371094 12.167969 C 125.191406 12.117188 125.011719 12.078125 124.839844 12.019531 C 123.617188 11.613281 122.375 11.554688 121.117188 11.816406 C 120.390625 11.96875 119.671875 12.136719 118.941406 12.273438 C 117.890625 12.472656 116.847656 12.460938 115.832031 12.097656 C 115.664062 12.039062 115.507812 11.953125 115.34375 11.882812 C 115.285156 11.859375 115.210938 11.832031 115.15625 11.847656 C 114.5 12.011719 113.839844 11.972656 113.191406 11.84375 C 112.496094 11.707031 111.8125 11.53125 111.125 11.375 C 110.304688 11.1875 109.480469 11.046875 108.632812 11.082031 C 108.203125 11.101562 107.78125 11.148438 107.382812 11.3125 C 107.210938 11.382812 107.046875 11.464844 106.914062 11.640625 C 106.992188 11.667969 107.0625 11.683594 107.125 11.714844 C 107.277344 11.792969 107.4375 11.859375 107.566406 11.960938 C 107.773438 12.125 107.703125 12.382812 107.445312 12.464844 C 107.097656 12.570312 106.644531 12.289062 106.597656 11.933594 C 106.589844 11.882812 106.59375 11.832031 106.589844 11.769531 C 105.316406 11.386719 104.046875 11.386719 102.765625 11.769531 C 102.761719 11.835938 102.761719 11.898438 102.75 11.960938 C 102.703125 12.265625 102.300781 12.539062 101.980469 12.480469 C 101.835938 12.457031 101.71875 12.394531 101.679688 12.25 C 101.640625 12.109375 101.703125 12.003906 101.820312 11.925781 C 101.910156 11.867188 102.003906 11.8125 102.101562 11.765625 C 102.199219 11.71875 102.304688 11.6875 102.417969 11.644531 C 102.382812 11.527344 102.277344 11.472656 102.179688 11.417969 C 101.875 11.238281 101.535156 11.164062 101.183594 11.121094 C 100.3125 11.015625 99.453125 11.109375 98.601562 11.296875 C 97.886719 11.457031 97.179688 11.648438 96.457031 11.792969 C 96.023438 11.878906 95.574219 11.921875 95.128906 11.9375 C 94.832031 11.949219 94.53125 11.882812 94.230469 11.855469 C 94.160156 11.847656 94.074219 11.847656 94.019531 11.878906 C 93.214844 12.300781 92.347656 12.414062 91.445312 12.394531 C 90.679688 12.375 89.953125 12.171875 89.21875 12.007812 C 88.472656 11.839844 87.726562 11.6875 86.960938 11.664062 C 86.128906 11.636719 85.328125 11.753906 84.546875 12.011719 C 84.359375 12.070312 84.171875 12.125 83.984375 12.179688 "/></g></g></svg>