<svg xmlns="http://www.w3.org/2000/svg" xmlns:xlink="http://www.w3.org/1999/xlink" width="176" zoomAndPan="magnify" viewBox="0 0 132 34.499999" height="46" preserveAspectRatio="xMidYMid meet" version="1.2"><defs><clipPath id="ecac89826d"><path d="M 37.800781 17.628906 L 52.585938 17.628906 L 52.585938 30.9375 L 37.800781 30.9375 Z M 37.800781 17.628906 "/></clipPath><clipPath id="5b1af433e9"><path d="M 50 28 L 52 28 L 52 30.9375 L 50 30.9375 Z M 50 28 "/></clipPath><clipPath id="3dc752dcc8"><path d="M 5.199219 2 L 37.726562 2 L 37.726562 17 L 5.199219 17 Z M 5.199219 2 "/></clipPath><clipPath id="6aa514d09d"><path d="M 6 30 L 37 30 L 37 33.414062 L 6 33.414062 Z M 6 30 "/></clipPath><clipPath id="e932f43ae0"><path d="M 5.199219 0.886719 L 37.726562 0.886719 L 37.726562 33.414062 L 5.199219 33.414062 Z M 5.199219 0.886719 "/></clipPath></defs><g id="302e9abe39"><g style="fill:#ffffff;fill-opacity:1;"><g transform="translate(45.804263, 13.718318)"><path style="stroke:none" d="M -1.421875 -11.390625 C -0.859375 -11.628906 -0.367188 -11.75 0.046875 -11.75 C 0.460938 -11.75 0.828125 -11.707031 1.140625 -11.625 C 1.460938 -11.550781 1.789062 -11.421875 2.125 -11.234375 C 2.457031 -11.054688 2.765625 -10.832031 3.046875 -10.5625 C 3.597656 -10.03125 4.070312 -9.4375 4.46875 -8.78125 L 7.4375 -3.203125 L 11.75 -10.625 L 11.890625 -10.625 L 13.4375 -1.875 C 13.675781 -0.519531 14.085938 0.550781 14.671875 1.34375 C 15.253906 2.144531 16.054688 2.546875 17.078125 2.546875 C 17.148438 2.546875 17.210938 2.546875 17.265625 2.546875 L 17.265625 2.6875 C 16.722656 2.84375 16.1875 2.921875 15.65625 2.921875 C 14.59375 2.921875 13.617188 2.5 12.734375 1.65625 C 11.878906 0.851562 11.300781 -0.320312 11 -1.875 L 10.265625 -6.203125 L 7.46875 -1.359375 C 7.09375 -0.734375 6.898438 -0.179688 6.890625 0.296875 L 6.75 0.296875 L 3.046875 -6.71875 L 2.328125 -0.78125 C 2.296875 -0.550781 2.394531 -0.363281 2.625 -0.21875 C 2.707031 -0.164062 2.800781 -0.140625 2.90625 -0.140625 L 3.140625 -0.140625 L 3.140625 0 L 0.03125 0 L 0.03125 -0.15625 L 0.265625 -0.15625 C 0.523438 -0.15625 0.753906 -0.226562 0.953125 -0.375 C 1.160156 -0.53125 1.289062 -0.742188 1.34375 -1.015625 L 2.34375 -8.109375 C 1.90625 -8.898438 1.394531 -9.601562 0.8125 -10.21875 C 0.164062 -10.914062 -0.503906 -11.265625 -1.203125 -11.265625 C -1.273438 -11.265625 -1.335938 -11.257812 -1.390625 -11.25 Z M -1.421875 -11.390625 "/></g></g><g style="fill:#ffffff;fill-opacity:1;"><g transform="translate(60.195132, 13.718318)"><path style="stroke:none" d="M 6.546875 -10.625 C 8.378906 -10.625 9.835938 -10.132812 10.921875 -9.15625 C 12.003906 -8.1875 12.546875 -6.867188 12.546875 -5.203125 C 12.546875 -3.535156 12.003906 -2.21875 10.921875 -1.25 C 9.835938 -0.28125 8.378906 0.203125 6.546875 0.203125 C 4.710938 0.203125 3.253906 -0.28125 2.171875 -1.25 C 1.085938 -2.21875 0.546875 -3.535156 0.546875 -5.203125 C 0.546875 -6.304688 0.789062 -7.265625 1.28125 -8.078125 C 1.769531 -8.898438 2.46875 -9.53125 3.375 -9.96875 C 4.28125 -10.40625 5.335938 -10.625 6.546875 -10.625 Z M 3.9375 -1.703125 C 4.582031 -0.847656 5.453125 -0.421875 6.546875 -0.421875 C 7.640625 -0.421875 8.503906 -0.847656 9.140625 -1.703125 C 9.773438 -2.554688 10.09375 -3.722656 10.09375 -5.203125 C 10.09375 -6.171875 9.945312 -7.015625 9.65625 -7.734375 C 9.375 -8.460938 8.960938 -9.019531 8.421875 -9.40625 C 7.890625 -9.800781 7.265625 -10 6.546875 -10 C 5.453125 -10 4.582031 -9.566406 3.9375 -8.703125 C 3.300781 -7.847656 2.984375 -6.679688 2.984375 -5.203125 C 2.984375 -3.722656 3.300781 -2.554688 3.9375 -1.703125 Z M 3.9375 -1.703125 "/></g></g><g style="fill:#ffffff;fill-opacity:1;"><g transform="translate(72.965385, 13.718318)"><path style="stroke:none" d="M 6.03125 -10.40625 C 7.78125 -10.40625 9.164062 -9.9375 10.1875 -9 C 11.207031 -8.070312 11.71875 -6.804688 11.71875 -5.203125 C 11.71875 -3.597656 11.207031 -2.328125 10.1875 -1.390625 C 9.164062 -0.460938 7.78125 0 6.03125 0 L 0.625 0 L 0.625 -0.15625 L 0.8125 -0.15625 C 1.070312 -0.15625 1.289062 -0.242188 1.46875 -0.421875 C 1.65625 -0.609375 1.753906 -0.828125 1.765625 -1.078125 L 1.765625 -9.421875 C 1.734375 -9.648438 1.628906 -9.847656 1.453125 -10.015625 C 1.273438 -10.179688 1.0625 -10.265625 0.8125 -10.265625 L 0.625 -10.265625 L 0.625 -10.40625 Z M 5.828125 -0.625 C 6.546875 -0.625 7.164062 -0.804688 7.6875 -1.171875 C 8.207031 -1.546875 8.601562 -2.078125 8.875 -2.765625 C 9.15625 -3.460938 9.296875 -4.273438 9.296875 -5.203125 C 9.296875 -6.609375 8.984375 -7.722656 8.359375 -8.546875 C 7.742188 -9.367188 6.898438 -9.78125 5.828125 -9.78125 L 4 -9.78125 L 4 -0.625 Z M 5.828125 -0.625 "/></g></g><g style="fill:#ffffff;fill-opacity:1;"><g transform="translate(84.977434, 13.718318)"><path style="stroke:none" d="M 0.8125 -0.15625 C 1.070312 -0.15625 1.289062 -0.242188 1.46875 -0.421875 C 1.65625 -0.609375 1.753906 -0.828125 1.765625 -1.078125 L 1.765625 -9.375 C 1.734375 -9.71875 1.570312 -9.972656 1.28125 -10.140625 C 1.132812 -10.222656 0.976562 -10.265625 0.8125 -10.265625 L 0.625 -10.265625 L 0.625 -10.40625 L 6.328125 -10.40625 C 6.628906 -10.40625 6.960938 -10.4375 7.328125 -10.5 C 7.703125 -10.5625 7.960938 -10.625 8.109375 -10.6875 L 8.109375 -8.078125 L 7.953125 -8.078125 L 7.953125 -8.25 C 7.953125 -8.695312 7.820312 -9.054688 7.5625 -9.328125 C 7.300781 -9.609375 6.945312 -9.753906 6.5 -9.765625 L 4 -9.765625 L 4 -5.4375 L 5.96875 -5.4375 C 6.332031 -5.445312 6.632812 -5.570312 6.875 -5.8125 C 7.113281 -6.0625 7.234375 -6.363281 7.234375 -6.71875 L 7.234375 -6.859375 L 7.375 -6.859375 L 7.375 -3.421875 L 7.234375 -3.421875 L 7.234375 -3.546875 C 7.234375 -4.035156 7.035156 -4.398438 6.640625 -4.640625 C 6.441406 -4.742188 6.222656 -4.800781 5.984375 -4.8125 L 4 -4.8125 L 4 -0.640625 L 5.953125 -0.640625 C 6.671875 -0.640625 7.273438 -0.847656 7.765625 -1.265625 C 8.265625 -1.679688 8.628906 -2.269531 8.859375 -3.03125 L 9.015625 -3.03125 L 8.328125 0 L 0.625 0 L 0.625 -0.15625 Z M 0.8125 -0.15625 "/></g></g><g style="fill:#ffffff;fill-opacity:1;"><g transform="translate(94.358261, 13.718318)"><path style="stroke:none" d="M 0.75 -1.390625 C 0.75 -2.097656 0.898438 -2.707031 1.203125 -3.21875 L 1.34375 -3.21875 C 1.332031 -3.132812 1.328125 -3.050781 1.328125 -2.96875 C 1.328125 -2.289062 1.570312 -1.695312 2.0625 -1.1875 C 2.550781 -0.675781 3.222656 -0.421875 4.078125 -0.421875 C 4.742188 -0.421875 5.257812 -0.578125 5.625 -0.890625 C 6 -1.210938 6.1875 -1.613281 6.1875 -2.09375 C 6.1875 -2.675781 5.789062 -3.1875 5 -3.625 L 2.40625 -5.34375 C 1.894531 -5.632812 1.523438 -5.988281 1.296875 -6.40625 C 1.078125 -6.832031 0.96875 -7.265625 0.96875 -7.703125 C 0.96875 -8.640625 1.257812 -9.359375 1.84375 -9.859375 C 2.4375 -10.367188 3.195312 -10.625 4.125 -10.625 C 4.664062 -10.625 5.335938 -10.570312 6.140625 -10.46875 L 7.078125 -10.46875 L 6.890625 -8.28125 L 6.734375 -8.28125 C 6.734375 -8.800781 6.539062 -9.21875 6.15625 -9.53125 C 5.78125 -9.84375 5.273438 -10 4.640625 -10 C 3.867188 -10 3.304688 -9.757812 2.953125 -9.28125 C 2.773438 -9.050781 2.6875 -8.796875 2.6875 -8.515625 C 2.6875 -8.035156 3.035156 -7.59375 3.734375 -7.1875 L 6.578125 -5.34375 C 7.460938 -4.820312 7.90625 -4.0625 7.90625 -3.0625 C 7.90625 -2 7.546875 -1.1875 6.828125 -0.625 C 6.109375 -0.0703125 5.15625 0.203125 3.96875 0.203125 C 3.289062 0.203125 2.664062 0.125 2.09375 -0.03125 C 1.53125 -0.195312 1.113281 -0.421875 0.84375 -0.703125 C 0.78125 -0.890625 0.75 -1.117188 0.75 -1.390625 Z M 0.75 -1.390625 "/></g></g><g style="fill:#ffffff;fill-opacity:1;"><g transform="translate(102.951159, 13.718318)"><path style="stroke:none" d="M 6.078125 -9.796875 L 6.078125 -1.078125 C 6.085938 -0.816406 6.1875 -0.597656 6.375 -0.421875 C 6.5625 -0.242188 6.78125 -0.15625 7.03125 -0.15625 L 7.21875 -0.15625 L 7.234375 0 L 2.703125 0 L 2.703125 -0.15625 L 2.90625 -0.15625 C 3.144531 -0.15625 3.359375 -0.242188 3.546875 -0.421875 C 3.734375 -0.597656 3.835938 -0.8125 3.859375 -1.0625 L 3.859375 -9.796875 L 1.84375 -9.796875 C 1.382812 -9.785156 1.019531 -9.640625 0.75 -9.359375 C 0.488281 -9.085938 0.359375 -8.726562 0.359375 -8.28125 L 0.359375 -8.109375 L 0.203125 -8.109375 L 0.203125 -10.6875 C 0.347656 -10.632812 0.597656 -10.578125 0.953125 -10.515625 C 1.316406 -10.453125 1.65625 -10.421875 1.96875 -10.421875 L 7.953125 -10.421875 C 8.441406 -10.429688 8.835938 -10.472656 9.140625 -10.546875 C 9.453125 -10.617188 9.644531 -10.664062 9.71875 -10.6875 L 9.71875 -8.109375 L 9.5625 -8.109375 L 9.5625 -8.28125 C 9.5625 -8.726562 9.425781 -9.085938 9.15625 -9.359375 C 8.894531 -9.640625 8.535156 -9.785156 8.078125 -9.796875 Z M 6.078125 -9.796875 "/></g></g><g style="fill:#ffffff;fill-opacity:1;"><g transform="translate(112.703568, 13.718318)"><path style="stroke:none" d="M 6.546875 -10.625 C 8.378906 -10.625 9.835938 -10.132812 10.921875 -9.15625 C 12.003906 -8.1875 12.546875 -6.867188 12.546875 -5.203125 C 12.546875 -3.535156 12.003906 -2.21875 10.921875 -1.25 C 9.835938 -0.28125 8.378906 0.203125 6.546875 0.203125 C 4.710938 0.203125 3.253906 -0.28125 2.171875 -1.25 C 1.085938 -2.21875 0.546875 -3.535156 0.546875 -5.203125 C 0.546875 -6.304688 0.789062 -7.265625 1.28125 -8.078125 C 1.769531 -8.898438 2.46875 -9.53125 3.375 -9.96875 C 4.28125 -10.40625 5.335938 -10.625 6.546875 -10.625 Z M 3.9375 -1.703125 C 4.582031 -0.847656 5.453125 -0.421875 6.546875 -0.421875 C 7.640625 -0.421875 8.503906 -0.847656 9.140625 -1.703125 C 9.773438 -2.554688 10.09375 -3.722656 10.09375 -5.203125 C 10.09375 -6.171875 9.945312 -7.015625 9.65625 -7.734375 C 9.375 -8.460938 8.960938 -9.019531 8.421875 -9.40625 C 7.890625 -9.800781 7.265625 -10 6.546875 -10 C 5.453125 -10 4.582031 -9.566406 3.9375 -8.703125 C 3.300781 -7.847656 2.984375 -6.679688 2.984375 -5.203125 C 2.984375 -3.722656 3.300781 -2.554688 3.9375 -1.703125 Z M 3.9375 -1.703125 "/></g></g><g style="fill:#ffffff;fill-opacity:1;"><g transform="translate(54.744998, 29.982602)"><path style="stroke:none" d="M 3.734375 -7.578125 C 4.347656 -7.578125 4.859375 -7.429688 5.265625 -7.140625 C 5.816406 -6.742188 6.09375 -6.125 6.09375 -5.28125 C 6.09375 -4.675781 5.921875 -4.160156 5.578125 -3.734375 C 5.210938 -3.273438 4.703125 -3.046875 4.046875 -3.046875 C 3.703125 -3.046875 3.390625 -3.125 3.109375 -3.28125 C 2.828125 -3.445312 2.660156 -3.734375 2.609375 -4.140625 L 2.703125 -4.171875 C 2.773438 -3.867188 2.953125 -3.65625 3.234375 -3.53125 C 3.429688 -3.445312 3.601562 -3.40625 3.75 -3.40625 C 4.332031 -3.40625 4.753906 -3.632812 5.015625 -4.09375 C 5.203125 -4.425781 5.296875 -4.820312 5.296875 -5.28125 C 5.296875 -6.007812 5.09375 -6.535156 4.6875 -6.859375 C 4.375 -7.117188 3.976562 -7.25 3.5 -7.25 C 3.382812 -7.25 3.285156 -7.242188 3.203125 -7.234375 C 3.117188 -7.222656 2.765625 -7.164062 2.140625 -7.0625 L 2.140625 -0.765625 C 2.148438 -0.578125 2.21875 -0.421875 2.34375 -0.296875 C 2.476562 -0.171875 2.632812 -0.109375 2.8125 -0.109375 L 2.953125 -0.109375 L 2.953125 0 L 0.640625 0 L 0.640625 -0.109375 L 0.765625 -0.109375 C 0.941406 -0.109375 1.097656 -0.171875 1.234375 -0.296875 C 1.367188 -0.421875 1.441406 -0.578125 1.453125 -0.765625 L 1.453125 -6.5 C 1.453125 -6.6875 1.398438 -6.832031 1.296875 -6.9375 C 1.191406 -7.039062 1.050781 -7.09375 0.875 -7.09375 C 0.84375 -7.09375 0.804688 -7.085938 0.765625 -7.078125 L 0.640625 -7.0625 L 0.625 -7.171875 C 0.988281 -7.203125 1.476562 -7.269531 2.09375 -7.375 C 2.71875 -7.476562 3.101562 -7.535156 3.25 -7.546875 C 3.394531 -7.566406 3.554688 -7.578125 3.734375 -7.578125 Z M 3.734375 -7.578125 "/></g></g><g style="fill:#ffffff;fill-opacity:1;"><g transform="translate(60.479482, 29.982602)"><path style="stroke:none" d="M 7.59375 -0.109375 L 7.671875 -0.109375 L 7.671875 0 L 5.296875 0 L 5.296875 -0.109375 L 5.390625 -0.109375 C 5.535156 -0.109375 5.644531 -0.15625 5.71875 -0.25 C 5.789062 -0.34375 5.828125 -0.429688 5.828125 -0.515625 C 5.828125 -0.597656 5.816406 -0.679688 5.796875 -0.765625 L 5.109375 -2.578125 L 2.25 -2.578125 L 1.546875 -0.765625 C 1.515625 -0.679688 1.5 -0.597656 1.5 -0.515625 C 1.5 -0.429688 1.535156 -0.34375 1.609375 -0.25 C 1.679688 -0.15625 1.789062 -0.109375 1.9375 -0.109375 L 2.03125 -0.109375 L 2.03125 0 L -0.09375 0 L -0.09375 -0.109375 L 0 -0.109375 C 0.175781 -0.109375 0.347656 -0.160156 0.515625 -0.265625 C 0.691406 -0.378906 0.832031 -0.546875 0.9375 -0.765625 L 3.328125 -6.46875 C 3.585938 -7.039062 3.71875 -7.40625 3.71875 -7.5625 L 3.8125 -7.5625 L 6.65625 -0.765625 C 6.757812 -0.546875 6.894531 -0.378906 7.0625 -0.265625 C 7.226562 -0.160156 7.40625 -0.109375 7.59375 -0.109375 Z M 2.375 -2.890625 L 4.984375 -2.890625 L 3.71875 -6.296875 Z M 2.375 -2.890625 "/></g></g><g style="fill:#ffffff;fill-opacity:1;"><g transform="translate(68.013177, 29.982602)"><path style="stroke:none" d="M 0.765625 -0.109375 C 0.953125 -0.109375 1.109375 -0.171875 1.234375 -0.296875 C 1.367188 -0.429688 1.441406 -0.585938 1.453125 -0.765625 L 1.453125 -6.65625 C 1.441406 -6.832031 1.367188 -6.984375 1.234375 -7.109375 C 1.109375 -7.242188 0.953125 -7.3125 0.765625 -7.3125 L 0.640625 -7.3125 L 0.640625 -7.421875 L 2.953125 -7.421875 L 2.953125 -7.3125 L 2.8125 -7.3125 C 2.632812 -7.3125 2.476562 -7.242188 2.34375 -7.109375 C 2.21875 -6.984375 2.148438 -6.832031 2.140625 -6.65625 L 2.140625 -0.765625 C 2.140625 -0.585938 2.207031 -0.429688 2.34375 -0.296875 C 2.476562 -0.171875 2.632812 -0.109375 2.8125 -0.109375 L 2.953125 -0.109375 L 2.953125 0 L 0.640625 0 L 0.640625 -0.109375 Z M 0.765625 -0.109375 "/></g></g><g style="fill:#ffffff;fill-opacity:1;"><g transform="translate(71.589569, 29.982602)"><path style="stroke:none" d="M 8.234375 -7.3125 C 8.066406 -7.3125 7.914062 -7.25 7.78125 -7.125 C 7.65625 -7 7.585938 -6.847656 7.578125 -6.671875 L 7.578125 -1.203125 C 7.578125 -0.796875 7.601562 -0.410156 7.65625 -0.046875 L 7.6875 0.140625 L 7.578125 0.140625 L 1.8125 -6.015625 L 1.8125 -0.734375 C 1.8125 -0.566406 1.875 -0.421875 2 -0.296875 C 2.125 -0.171875 2.273438 -0.109375 2.453125 -0.109375 L 2.65625 -0.109375 L 2.65625 0 L 0.484375 0 L 0.484375 -0.109375 L 0.671875 -0.109375 C 0.847656 -0.109375 1 -0.171875 1.125 -0.296875 C 1.257812 -0.421875 1.328125 -0.570312 1.328125 -0.75 L 1.328125 -6.25 C 1.328125 -6.675781 1.300781 -7.0625 1.25 -7.40625 L 1.234375 -7.578125 L 1.328125 -7.578125 L 7.109375 -1.40625 L 7.109375 -6.65625 C 7.097656 -6.84375 7.03125 -7 6.90625 -7.125 C 6.78125 -7.25 6.628906 -7.3125 6.453125 -7.3125 L 6.25 -7.3125 L 6.25 -7.421875 L 8.4375 -7.421875 L 8.4375 -7.3125 Z M 8.234375 -7.3125 "/></g></g><g style="fill:#ffffff;fill-opacity:1;"><g transform="translate(80.488217, 29.982602)"><path style="stroke:none" d="M 6.234375 -6.46875 C 6.234375 -6.644531 6.171875 -6.789062 6.046875 -6.90625 C 5.929688 -7.03125 5.796875 -7.097656 5.640625 -7.109375 L 3.625 -7.109375 L 3.625 -0.765625 C 3.632812 -0.578125 3.703125 -0.421875 3.828125 -0.296875 C 3.960938 -0.171875 4.117188 -0.109375 4.296875 -0.109375 L 4.4375 -0.109375 L 4.4375 0 L 2.125 0 L 2.125 -0.109375 L 2.25 -0.109375 C 2.4375 -0.109375 2.59375 -0.171875 2.71875 -0.296875 C 2.851562 -0.421875 2.925781 -0.570312 2.9375 -0.75 L 2.9375 -7.109375 L 0.921875 -7.109375 C 0.753906 -7.097656 0.609375 -7.03125 0.484375 -6.90625 C 0.367188 -6.789062 0.3125 -6.644531 0.3125 -6.46875 L 0.3125 -6.296875 L 0.21875 -6.28125 L 0.21875 -7.609375 C 0.320312 -7.566406 0.503906 -7.523438 0.765625 -7.484375 C 1.023438 -7.441406 1.265625 -7.421875 1.484375 -7.421875 L 5.0625 -7.421875 C 5.40625 -7.421875 5.691406 -7.445312 5.921875 -7.5 C 6.148438 -7.550781 6.289062 -7.585938 6.34375 -7.609375 L 6.34375 -6.28125 L 6.234375 -6.296875 Z M 6.234375 -6.46875 "/></g></g><g style="fill:#ffffff;fill-opacity:1;"><g transform="translate(87.02729, 29.982602)"><path style="stroke:none" d=""/></g></g><g style="fill:#ffffff;fill-opacity:1;"><g transform="translate(89.672546, 29.982602)"><path style="stroke:none" d="M 3.734375 -7.578125 C 4.347656 -7.578125 4.859375 -7.429688 5.265625 -7.140625 C 5.816406 -6.742188 6.09375 -6.125 6.09375 -5.28125 C 6.09375 -4.675781 5.921875 -4.160156 5.578125 -3.734375 C 5.210938 -3.273438 4.703125 -3.046875 4.046875 -3.046875 C 3.703125 -3.046875 3.390625 -3.125 3.109375 -3.28125 C 2.828125 -3.445312 2.660156 -3.734375 2.609375 -4.140625 L 2.703125 -4.171875 C 2.773438 -3.867188 2.953125 -3.65625 3.234375 -3.53125 C 3.429688 -3.445312 3.601562 -3.40625 3.75 -3.40625 C 4.332031 -3.40625 4.753906 -3.632812 5.015625 -4.09375 C 5.203125 -4.425781 5.296875 -4.820312 5.296875 -5.28125 C 5.296875 -6.007812 5.09375 -6.535156 4.6875 -6.859375 C 4.375 -7.117188 3.976562 -7.25 3.5 -7.25 C 3.382812 -7.25 3.285156 -7.242188 3.203125 -7.234375 C 3.117188 -7.222656 2.765625 -7.164062 2.140625 -7.0625 L 2.140625 -0.765625 C 2.148438 -0.578125 2.21875 -0.421875 2.34375 -0.296875 C 2.476562 -0.171875 2.632812 -0.109375 2.8125 -0.109375 L 2.953125 -0.109375 L 2.953125 0 L 0.640625 0 L 0.640625 -0.109375 L 0.765625 -0.109375 C 0.941406 -0.109375 1.097656 -0.171875 1.234375 -0.296875 C 1.367188 -0.421875 1.441406 -0.578125 1.453125 -0.765625 L 1.453125 -6.5 C 1.453125 -6.6875 1.398438 -6.832031 1.296875 -6.9375 C 1.191406 -7.039062 1.050781 -7.09375 0.875 -7.09375 C 0.84375 -7.09375 0.804688 -7.085938 0.765625 -7.078125 L 0.640625 -7.0625 L 0.625 -7.171875 C 0.988281 -7.203125 1.476562 -7.269531 2.09375 -7.375 C 2.71875 -7.476562 3.101562 -7.535156 3.25 -7.546875 C 3.394531 -7.566406 3.554688 -7.578125 3.734375 -7.578125 Z M 3.734375 -7.578125 "/></g></g><g style="fill:#ffffff;fill-opacity:1;"><g transform="translate(96.126913, 29.982602)"><path style="stroke:none" d="M 2.8125 -7.09375 L 2.140625 -7.09375 L 2.140625 -0.765625 C 2.140625 -0.585938 2.203125 -0.429688 2.328125 -0.296875 C 2.460938 -0.171875 2.625 -0.109375 2.8125 -0.109375 L 2.9375 -0.109375 L 2.953125 0 L 0.640625 0 L 0.640625 -0.109375 L 0.765625 -0.109375 C 0.953125 -0.109375 1.109375 -0.171875 1.234375 -0.296875 C 1.367188 -0.421875 1.441406 -0.578125 1.453125 -0.765625 L 1.453125 -6.640625 C 1.441406 -6.828125 1.367188 -6.984375 1.234375 -7.109375 C 1.109375 -7.242188 0.953125 -7.3125 0.765625 -7.3125 L 0.640625 -7.3125 L 0.640625 -7.421875 L 3.5 -7.421875 C 4.132812 -7.421875 4.632812 -7.238281 5 -6.875 C 5.375 -6.519531 5.5625 -6.054688 5.5625 -5.484375 C 5.5625 -4.921875 5.382812 -4.429688 5.03125 -4.015625 C 4.6875 -3.609375 4.265625 -3.40625 3.765625 -3.40625 C 3.867188 -3.351562 3.992188 -3.253906 4.140625 -3.109375 C 4.285156 -2.960938 4.414062 -2.8125 4.53125 -2.65625 C 5.132812 -1.789062 5.523438 -1.253906 5.703125 -1.046875 C 5.890625 -0.847656 6.019531 -0.710938 6.09375 -0.640625 C 6.175781 -0.566406 6.265625 -0.492188 6.359375 -0.421875 C 6.453125 -0.347656 6.539062 -0.289062 6.625 -0.25 C 6.832031 -0.15625 7.050781 -0.109375 7.28125 -0.109375 L 7.28125 0 L 6.703125 0 C 6.398438 0 6.117188 -0.0507812 5.859375 -0.15625 C 5.597656 -0.269531 5.398438 -0.382812 5.265625 -0.5 C 5.140625 -0.613281 5.023438 -0.722656 4.921875 -0.828125 C 4.828125 -0.941406 4.566406 -1.3125 4.140625 -1.9375 C 3.710938 -2.5625 3.460938 -2.914062 3.390625 -3 C 3.316406 -3.09375 3.242188 -3.179688 3.171875 -3.265625 C 2.941406 -3.503906 2.710938 -3.625 2.484375 -3.625 L 2.484375 -3.734375 C 2.546875 -3.722656 2.617188 -3.71875 2.703125 -3.71875 C 2.796875 -3.71875 2.910156 -3.722656 3.046875 -3.734375 C 3.921875 -3.753906 4.472656 -4.117188 4.703125 -4.828125 C 4.742188 -4.972656 4.765625 -5.101562 4.765625 -5.21875 C 4.765625 -5.34375 4.765625 -5.425781 4.765625 -5.46875 C 4.753906 -5.9375 4.628906 -6.316406 4.390625 -6.609375 C 4.160156 -6.898438 3.847656 -7.054688 3.453125 -7.078125 C 3.285156 -7.085938 3.070312 -7.09375 2.8125 -7.09375 Z M 2.8125 -7.09375 "/></g></g><g style="fill:#ffffff;fill-opacity:1;"><g transform="translate(102.813874, 29.982602)"><path style="stroke:none" d="M 1.546875 -6.5 C 2.304688 -7.207031 3.285156 -7.5625 4.484375 -7.5625 C 5.691406 -7.5625 6.671875 -7.207031 7.421875 -6.5 C 8.179688 -5.789062 8.5625 -4.859375 8.5625 -3.703125 C 8.5625 -2.554688 8.179688 -1.628906 7.421875 -0.921875 C 6.671875 -0.210938 5.691406 0.140625 4.484375 0.140625 C 3.285156 0.140625 2.304688 -0.210938 1.546875 -0.921875 C 0.796875 -1.628906 0.421875 -2.554688 0.421875 -3.703125 C 0.421875 -4.859375 0.796875 -5.789062 1.546875 -6.5 Z M 2.125 -1.140625 C 2.726562 -0.492188 3.515625 -0.171875 4.484375 -0.171875 C 5.460938 -0.171875 6.25 -0.492188 6.84375 -1.140625 C 7.445312 -1.796875 7.75 -2.648438 7.75 -3.703125 C 7.75 -4.765625 7.445312 -5.617188 6.84375 -6.265625 C 6.25 -6.921875 5.460938 -7.25 4.484375 -7.25 C 3.515625 -7.25 2.726562 -6.921875 2.125 -6.265625 C 1.53125 -5.617188 1.234375 -4.765625 1.234375 -3.703125 C 1.234375 -2.648438 1.53125 -1.796875 2.125 -1.140625 Z M 2.125 -1.140625 "/></g></g><g style="fill:#ffffff;fill-opacity:1;"><g transform="translate(111.786591, 29.982602)"><path style="stroke:none" d="M 0.640625 -0.4375 C 0.617188 -0.53125 0.609375 -0.71875 0.609375 -1 C 0.609375 -1.289062 0.660156 -1.59375 0.765625 -1.90625 L 0.875 -1.90625 C 0.863281 -1.832031 0.859375 -1.753906 0.859375 -1.671875 C 0.859375 -1.242188 0.988281 -0.882812 1.25 -0.59375 C 1.507812 -0.3125 1.851562 -0.171875 2.28125 -0.171875 C 2.726562 -0.171875 3.09375 -0.300781 3.375 -0.5625 C 3.664062 -0.832031 3.8125 -1.171875 3.8125 -1.578125 C 3.8125 -1.984375 3.675781 -2.316406 3.40625 -2.578125 L 1.359375 -4.453125 C 0.984375 -4.804688 0.796875 -5.234375 0.796875 -5.734375 C 0.796875 -6.242188 0.960938 -6.675781 1.296875 -7.03125 C 1.628906 -7.382812 2.082031 -7.5625 2.65625 -7.5625 C 2.925781 -7.5625 3.226562 -7.523438 3.5625 -7.453125 L 3.984375 -7.453125 L 3.984375 -6.15625 L 3.890625 -6.15625 C 3.890625 -6.488281 3.773438 -6.753906 3.546875 -6.953125 C 3.316406 -7.148438 3.019531 -7.25 2.65625 -7.25 C 2.300781 -7.25 2 -7.128906 1.75 -6.890625 C 1.507812 -6.648438 1.390625 -6.347656 1.390625 -5.984375 C 1.390625 -5.617188 1.53125 -5.304688 1.8125 -5.046875 L 3.90625 -3.125 C 4.25 -2.800781 4.421875 -2.351562 4.421875 -1.78125 C 4.421875 -1.21875 4.238281 -0.753906 3.875 -0.390625 C 3.519531 -0.0351562 3.046875 0.140625 2.453125 0.140625 C 2.140625 0.140625 1.804688 0.09375 1.453125 0 C 1.109375 -0.09375 0.835938 -0.238281 0.640625 -0.4375 Z M 0.640625 -0.4375 "/></g></g><g clip-rule="nonzero" clip-path="url(#ecac89826d)"><path style=" stroke:none;fill-rule:nonzero;fill:#ffffff;fill-opacity:1;" d="M 40.28125 23.519531 C 40.3125 23.457031 40.339844 23.414062 40.359375 23.378906 C 40.207031 23.285156 40.085938 23.171875 39.972656 23.066406 C 39.824219 22.925781 39.699219 22.789062 39.570312 22.667969 C 39.445312 22.542969 39.320312 22.453125 39.1875 22.34375 C 39.0625 22.242188 38.941406 22.148438 38.832031 22.058594 C 38.71875 21.964844 38.613281 21.878906 38.511719 21.800781 C 38.414062 21.71875 38.324219 21.648438 38.234375 21.5625 C 38.226562 21.554688 38.21875 21.546875 38.207031 21.535156 C 38.207031 21.542969 38.203125 21.550781 38.203125 21.558594 C 38.199219 21.574219 38.191406 21.59375 38.183594 21.613281 C 38.171875 21.640625 38.152344 21.667969 38.128906 21.6875 C 38.082031 21.726562 38.039062 21.738281 38.015625 21.757812 C 37.988281 21.773438 37.992188 21.777344 37.988281 21.792969 C 37.984375 21.804688 37.984375 21.816406 37.988281 21.832031 C 37.992188 21.851562 37.992188 21.859375 38 21.875 C 38.007812 21.894531 38.03125 21.917969 38.0625 21.945312 C 38.09375 21.972656 38.140625 21.996094 38.191406 22.035156 C 38.359375 22.167969 38.546875 22.316406 38.761719 22.484375 C 38.984375 22.644531 39.230469 22.820312 39.5 23.019531 C 39.570312 23.066406 39.636719 23.121094 39.710938 23.171875 C 39.78125 23.222656 39.855469 23.277344 39.929688 23.335938 C 40.03125 23.421875 40.136719 23.507812 40.246094 23.597656 C 40.257812 23.570312 40.269531 23.542969 40.28125 23.519531 Z M 42.019531 25.035156 C 42.023438 24.988281 42.027344 24.953125 42.03125 24.933594 C 41.992188 24.894531 41.929688 24.835938 41.847656 24.761719 C 41.695312 24.632812 41.515625 24.429688 41.292969 24.234375 C 41.089844 24.019531 40.886719 23.84375 40.746094 23.707031 C 40.699219 23.660156 40.660156 23.625 40.625 23.59375 C 40.613281 23.613281 40.59375 23.636719 40.578125 23.671875 C 40.566406 23.695312 40.550781 23.722656 40.539062 23.75 C 40.535156 23.765625 40.53125 23.78125 40.53125 23.789062 C 40.527344 23.804688 40.527344 23.796875 40.527344 23.800781 C 40.523438 23.796875 40.519531 23.800781 40.519531 23.804688 C 40.515625 23.8125 40.5625 23.875 40.644531 23.9375 C 40.683594 23.972656 40.734375 24.011719 40.789062 24.054688 C 40.84375 24.097656 40.910156 24.140625 40.980469 24.199219 C 41.117188 24.328125 41.246094 24.464844 41.382812 24.628906 L 41.421875 24.667969 L 41.457031 24.714844 C 41.480469 24.742188 41.5 24.769531 41.519531 24.796875 C 41.5625 24.851562 41.601562 24.902344 41.640625 24.953125 C 41.71875 25.050781 41.792969 25.136719 41.863281 25.214844 C 41.882812 25.230469 41.898438 25.25 41.917969 25.265625 L 41.941406 25.292969 C 41.949219 25.300781 41.960938 25.308594 41.960938 25.308594 C 41.964844 25.3125 41.972656 25.316406 41.980469 25.320312 C 41.984375 25.320312 41.992188 25.320312 41.996094 25.3125 C 41.996094 25.308594 41.996094 25.300781 41.996094 25.296875 L 41.996094 25.289062 C 41.996094 25.289062 41.996094 25.273438 41.996094 25.269531 C 42 25.234375 42.003906 25.207031 42.003906 25.179688 C 42.011719 25.121094 42.015625 25.074219 42.019531 25.035156 Z M 43.75 19.660156 C 43.800781 19.621094 43.855469 19.585938 43.90625 19.558594 C 43.691406 19.363281 43.511719 19.164062 43.339844 18.988281 C 43.285156 18.933594 43.226562 18.875 43.175781 18.820312 C 43.117188 18.769531 43.066406 18.71875 43.011719 18.667969 C 42.957031 18.621094 42.902344 18.578125 42.851562 18.53125 C 42.792969 18.488281 42.738281 18.4375 42.6875 18.390625 C 42.492188 18.207031 42.328125 18.039062 42.164062 17.9375 C 42.082031 17.886719 42.007812 17.859375 41.929688 17.851562 C 41.890625 17.84375 41.863281 17.847656 41.84375 17.855469 C 41.820312 17.863281 41.804688 17.878906 41.785156 17.902344 C 41.742188 17.953125 41.703125 18.035156 41.636719 18.085938 C 41.574219 18.136719 41.515625 18.167969 41.460938 18.195312 C 41.433594 18.207031 41.40625 18.214844 41.382812 18.222656 C 41.375 18.226562 41.367188 18.230469 41.363281 18.230469 C 41.351562 18.25 41.339844 18.269531 41.324219 18.296875 C 41.296875 18.332031 41.273438 18.386719 41.203125 18.4375 L 41.199219 18.441406 C 41.089844 18.519531 40.9375 18.507812 40.851562 18.566406 C 40.851562 18.566406 40.84375 18.570312 40.84375 18.570312 C 40.792969 18.597656 40.753906 18.660156 40.6875 18.753906 C 40.617188 18.863281 40.492188 18.925781 40.390625 18.976562 C 40.339844 19.007812 40.292969 19.03125 40.257812 19.070312 C 40.238281 19.089844 40.222656 19.101562 40.207031 19.128906 C 40.1875 19.15625 40.171875 19.179688 40.152344 19.207031 C 40.132812 19.238281 40.117188 19.265625 40.089844 19.300781 C 40.078125 19.316406 40.066406 19.335938 40.054688 19.351562 L 40.007812 19.398438 C 39.953125 19.464844 39.871094 19.511719 39.804688 19.554688 C 39.742188 19.59375 39.695312 19.632812 39.65625 19.6875 L 39.625 19.730469 L 39.597656 19.785156 C 39.578125 19.820312 39.5625 19.859375 39.539062 19.898438 C 39.519531 19.941406 39.496094 19.992188 39.460938 20.039062 C 39.425781 20.085938 39.382812 20.125 39.339844 20.160156 C 39.304688 20.1875 39.265625 20.21875 39.226562 20.25 C 39.191406 20.277344 39.148438 20.304688 39.121094 20.335938 C 39.089844 20.371094 39.058594 20.398438 39.03125 20.4375 C 39.003906 20.476562 38.976562 20.515625 38.945312 20.5625 C 38.929688 20.585938 38.917969 20.605469 38.902344 20.628906 L 38.878906 20.664062 L 38.84375 20.703125 C 38.820312 20.734375 38.800781 20.753906 38.777344 20.773438 L 38.75 20.800781 C 38.742188 20.808594 38.734375 20.816406 38.730469 20.824219 C 38.722656 20.835938 38.703125 20.855469 38.703125 20.863281 C 38.699219 20.871094 38.695312 20.875 38.695312 20.902344 C 38.695312 20.914062 38.695312 20.9375 38.691406 20.957031 C 38.6875 20.984375 38.683594 21.007812 38.671875 21.035156 C 38.605469 21.191406 38.09375 21.167969 38.375 21.417969 C 38.449219 21.484375 38.546875 21.554688 38.648438 21.632812 C 38.75 21.710938 38.855469 21.789062 38.96875 21.878906 C 39.082031 21.964844 39.203125 22.058594 39.332031 22.15625 C 39.453125 22.253906 39.605469 22.363281 39.738281 22.488281 C 39.871094 22.613281 40.003906 22.753906 40.144531 22.886719 C 40.257812 22.992188 40.375 23.097656 40.507812 23.175781 C 40.511719 23.167969 40.519531 23.164062 40.527344 23.15625 C 40.546875 23.136719 40.574219 23.109375 40.597656 23.085938 C 40.621094 23.0625 40.652344 23.03125 40.664062 23.023438 C 40.675781 23.007812 40.695312 22.992188 40.710938 22.980469 C 40.585938 22.851562 40.472656 22.734375 40.367188 22.625 C 40.230469 22.492188 40.105469 22.375 39.996094 22.265625 C 39.882812 22.160156 39.777344 22.070312 39.691406 21.988281 C 39.597656 21.910156 39.523438 21.832031 39.453125 21.773438 C 39.171875 21.539062 39.078125 21.425781 39.097656 21.398438 C 39.117188 21.371094 39.246094 21.429688 39.5625 21.636719 C 39.640625 21.683594 39.722656 21.753906 39.820312 21.832031 C 39.917969 21.90625 40.03125 21.992188 40.148438 22.09375 C 40.265625 22.199219 40.394531 22.320312 40.535156 22.449219 C 40.648438 22.558594 40.765625 22.679688 40.894531 22.808594 C 40.925781 22.777344 40.960938 22.75 40.996094 22.714844 C 41.070312 22.648438 41.148438 22.570312 41.234375 22.492188 C 41.152344 22.351562 41.058594 22.230469 40.960938 22.128906 C 40.851562 22.007812 40.746094 21.910156 40.644531 21.820312 C 40.445312 21.640625 40.28125 21.507812 40.160156 21.394531 C 39.917969 21.175781 39.847656 21.0625 39.871094 21.039062 C 39.894531 21.011719 40 21.074219 40.269531 21.257812 C 40.402344 21.351562 40.578125 21.46875 40.792969 21.644531 C 40.902344 21.730469 41.019531 21.835938 41.140625 21.960938 C 41.234375 22.058594 41.332031 22.175781 41.417969 22.316406 C 41.480469 22.261719 41.539062 22.203125 41.597656 22.144531 C 41.667969 22.082031 41.730469 22.015625 41.796875 21.949219 C 41.21875 21.515625 40.882812 21.164062 40.695312 20.921875 C 40.648438 20.859375 40.609375 20.804688 40.578125 20.757812 C 40.550781 20.707031 40.527344 20.667969 40.511719 20.636719 C 40.484375 20.570312 40.476562 20.539062 40.492188 20.527344 C 40.507812 20.519531 40.539062 20.53125 40.589844 20.578125 C 40.617188 20.597656 40.648438 20.628906 40.6875 20.667969 C 40.726562 20.707031 40.773438 20.75 40.828125 20.804688 C 41.039062 21.011719 41.386719 21.335938 41.96875 21.765625 C 42.074219 21.648438 42.183594 21.53125 42.296875 21.410156 C 42.304688 21.402344 42.3125 21.394531 42.320312 21.382812 C 42.042969 21.191406 41.847656 20.996094 41.6875 20.828125 C 41.511719 20.640625 41.386719 20.488281 41.296875 20.367188 C 41.117188 20.121094 41.074219 20.007812 41.097656 19.988281 C 41.128906 19.96875 41.21875 20.042969 41.429688 20.25 C 41.535156 20.355469 41.671875 20.496094 41.847656 20.667969 C 42.015625 20.824219 42.222656 21.015625 42.488281 21.199219 C 42.542969 21.140625 42.597656 21.078125 42.648438 21.023438 C 42.695312 20.96875 42.742188 20.914062 42.789062 20.863281 C 42.707031 20.730469 42.613281 20.617188 42.519531 20.515625 C 42.40625 20.390625 42.292969 20.285156 42.191406 20.195312 C 41.980469 20.007812 41.8125 19.867188 41.6875 19.75 C 41.4375 19.519531 41.367188 19.40625 41.390625 19.382812 C 41.414062 19.355469 41.523438 19.421875 41.800781 19.613281 C 41.9375 19.710938 42.117188 19.835938 42.339844 20.019531 C 42.449219 20.109375 42.570312 20.214844 42.699219 20.347656 C 42.78125 20.4375 42.871094 20.539062 42.953125 20.65625 C 42.953125 20.65625 42.953125 20.65625 42.957031 20.652344 C 43.03125 20.542969 43.105469 20.433594 43.175781 20.332031 C 42.914062 20.097656 42.726562 19.875 42.566406 19.699219 C 42.394531 19.503906 42.257812 19.355469 42.152344 19.246094 C 42.097656 19.191406 42.050781 19.144531 42.015625 19.105469 C 41.976562 19.070312 41.945312 19.035156 41.921875 19.011719 C 41.878906 18.957031 41.863281 18.925781 41.875 18.914062 C 41.882812 18.898438 41.914062 18.902344 41.980469 18.933594 C 42.011719 18.945312 42.054688 18.96875 42.101562 18.996094 C 42.152344 19.027344 42.203125 19.066406 42.269531 19.117188 C 42.398438 19.214844 42.550781 19.355469 42.734375 19.542969 C 42.898438 19.707031 43.085938 19.914062 43.324219 20.128906 C 43.367188 20.070312 43.40625 20.015625 43.449219 19.964844 C 43.488281 19.917969 43.527344 19.871094 43.566406 19.832031 C 43.519531 19.785156 43.472656 19.738281 43.429688 19.699219 C 43.375 19.648438 43.324219 19.601562 43.277344 19.5625 C 43.1875 19.476562 43.113281 19.410156 43.0625 19.351562 C 42.960938 19.230469 42.941406 19.171875 42.964844 19.148438 C 42.988281 19.121094 43.050781 19.136719 43.175781 19.214844 C 43.238281 19.253906 43.324219 19.308594 43.421875 19.382812 C 43.476562 19.421875 43.53125 19.464844 43.59375 19.515625 C 43.640625 19.558594 43.695312 19.609375 43.75 19.660156 Z M 45.554688 21.074219 C 45.550781 21.0625 45.542969 21.046875 45.539062 21.027344 C 45.527344 21.003906 45.511719 20.976562 45.496094 20.945312 C 45.425781 20.820312 45.253906 20.644531 44.992188 20.453125 C 44.804688 20.316406 44.644531 20.210938 44.511719 20.121094 C 44.320312 20.414062 44.113281 20.609375 43.945312 20.769531 C 43.769531 20.9375 43.628906 21.058594 43.523438 21.15625 C 43.472656 21.203125 43.425781 21.242188 43.386719 21.277344 C 43.351562 21.3125 43.320312 21.339844 43.296875 21.359375 C 43.242188 21.398438 43.214844 21.410156 43.199219 21.398438 C 43.1875 21.386719 43.191406 21.355469 43.21875 21.296875 C 43.234375 21.265625 43.253906 21.230469 43.28125 21.1875 C 43.3125 21.140625 43.347656 21.09375 43.394531 21.035156 C 43.484375 20.917969 43.617188 20.78125 43.785156 20.605469 C 43.898438 20.484375 44.359375 20.09375 44.273438 19.925781 C 44.144531 19.671875 43.824219 20 43.734375 20.085938 C 43.585938 20.234375 43.421875 20.445312 43.230469 20.710938 C 43.183594 20.773438 43.132812 20.84375 43.074219 20.917969 C 43.011719 20.992188 42.949219 21.054688 42.886719 21.125 C 42.757812 21.261719 42.617188 21.414062 42.472656 21.570312 C 41.902344 22.214844 41.429688 22.675781 41.125 22.996094 C 41.039062 23.085938 40.792969 23.234375 40.824219 23.382812 C 40.886719 23.695312 41.355469 23.15625 41.449219 23.058594 C 41.597656 22.898438 41.730469 22.746094 41.851562 22.609375 C 42.101562 22.335938 42.304688 22.136719 42.453125 21.976562 C 42.75 21.664062 42.882812 21.558594 42.910156 21.578125 C 42.9375 21.601562 42.851562 21.746094 42.585938 22.09375 C 42.453125 22.265625 42.261719 22.480469 42.027344 22.757812 C 41.910156 22.898438 41.78125 23.058594 41.628906 23.226562 C 41.484375 23.378906 41.324219 23.542969 41.105469 23.6875 C 41.203125 23.792969 41.320312 23.917969 41.460938 24.0625 C 41.585938 24.179688 41.699219 24.277344 41.800781 24.363281 C 41.816406 24.375 41.828125 24.386719 41.84375 24.398438 C 42.066406 24.1875 42.21875 23.96875 42.351562 23.792969 C 42.484375 23.609375 42.597656 23.46875 42.691406 23.367188 C 42.738281 23.316406 42.78125 23.273438 42.816406 23.242188 C 42.855469 23.210938 42.886719 23.1875 42.914062 23.167969 C 42.964844 23.132812 42.992188 23.128906 43.003906 23.140625 C 43.019531 23.152344 43.011719 23.183594 42.984375 23.234375 C 42.96875 23.261719 42.949219 23.292969 42.921875 23.332031 C 42.898438 23.371094 42.867188 23.421875 42.832031 23.476562 C 42.757812 23.585938 42.660156 23.734375 42.539062 23.921875 C 42.421875 24.101562 42.273438 24.320312 42.046875 24.546875 C 42.054688 24.550781 42.058594 24.554688 42.0625 24.558594 C 42.105469 24.585938 42.140625 24.609375 42.167969 24.628906 C 42.171875 24.628906 42.171875 24.628906 42.171875 24.628906 C 42.171875 24.628906 42.207031 24.59375 42.277344 24.53125 C 42.308594 24.492188 42.351562 24.449219 42.398438 24.390625 C 42.441406 24.332031 42.496094 24.261719 42.554688 24.175781 C 42.613281 24.089844 42.679688 23.988281 42.761719 23.878906 C 42.800781 23.824219 42.851562 23.769531 42.898438 23.710938 C 42.953125 23.65625 43.011719 23.601562 43.066406 23.542969 C 43.304688 23.320312 43.609375 23.113281 43.929688 22.871094 C 44.007812 22.808594 44.085938 22.75 44.152344 22.6875 C 44.1875 22.65625 44.222656 22.628906 44.253906 22.597656 C 44.285156 22.566406 44.316406 22.535156 44.34375 22.503906 C 44.375 22.472656 44.402344 22.441406 44.433594 22.410156 C 44.457031 22.378906 44.484375 22.347656 44.511719 22.3125 C 44.5625 22.253906 44.613281 22.1875 44.660156 22.128906 C 44.847656 21.882812 45 21.667969 45.140625 21.503906 C 45.28125 21.335938 45.398438 21.214844 45.484375 21.140625 C 45.511719 21.113281 45.535156 21.09375 45.554688 21.074219 Z M 48.679688 28.996094 C 48.703125 28.976562 48.734375 28.957031 48.769531 28.929688 C 48.648438 28.753906 48.535156 28.582031 48.425781 28.417969 C 48.183594 28.050781 47.949219 27.710938 47.726562 27.417969 C 47.671875 27.34375 47.613281 27.273438 47.554688 27.203125 C 47.496094 27.136719 47.441406 27.066406 47.386719 27.003906 C 47.28125 26.878906 47.167969 26.765625 47.070312 26.660156 C 46.859375 26.453125 46.671875 26.277344 46.515625 26.136719 C 46.363281 26 46.203125 25.816406 46.011719 25.734375 C 45.878906 25.679688 45.679688 25.585938 45.386719 25.464844 C 45.097656 25.351562 44.703125 25.195312 44.1875 25.179688 C 44.121094 25.179688 44.054688 25.171875 43.992188 25.183594 C 43.925781 25.1875 43.859375 25.191406 43.789062 25.207031 C 43.714844 25.222656 43.640625 25.238281 43.5625 25.25 C 43.523438 25.257812 43.484375 25.269531 43.445312 25.277344 C 43.402344 25.28125 43.355469 25.289062 43.3125 25.292969 C 43.140625 25.320312 42.941406 25.3125 42.746094 25.246094 C 42.605469 25.199219 42.476562 25.128906 42.351562 25.0625 C 42.347656 25.074219 42.34375 25.089844 42.339844 25.109375 C 42.332031 25.152344 42.320312 25.207031 42.308594 25.269531 C 42.300781 25.308594 42.289062 25.355469 42.28125 25.402344 C 42.273438 25.445312 42.261719 25.488281 42.242188 25.527344 C 42.339844 25.605469 42.441406 25.667969 42.546875 25.707031 C 42.6875 25.765625 42.835938 25.785156 42.984375 25.789062 C 43.277344 25.796875 43.5625 25.753906 43.824219 25.75 C 44.078125 25.746094 44.304688 25.742188 44.507812 25.738281 C 44.609375 25.734375 44.703125 25.738281 44.792969 25.742188 C 44.882812 25.742188 44.964844 25.75 45.039062 25.757812 C 45.285156 25.78125 45.46875 25.824219 45.59375 25.871094 C 45.652344 25.871094 45.734375 25.878906 45.839844 25.902344 C 45.949219 25.929688 46.074219 25.976562 46.210938 26.054688 C 46.347656 26.128906 46.492188 26.234375 46.632812 26.367188 C 46.917969 26.632812 47.1875 27.007812 47.457031 27.433594 C 47.585938 27.640625 47.722656 27.863281 47.863281 28.09375 C 47.9375 28.207031 48.011719 28.320312 48.089844 28.425781 C 48.167969 28.53125 48.261719 28.652344 48.347656 28.761719 C 48.429688 28.867188 48.515625 28.972656 48.601562 29.074219 C 48.601562 29.054688 48.609375 29.035156 48.625 29.027344 C 48.625 29.027344 48.644531 29.015625 48.679688 28.996094 Z M 49.59375 30.042969 C 49.59375 30.039062 49.589844 30.039062 49.589844 30.035156 C 49.546875 29.984375 49.507812 29.933594 49.464844 29.882812 C 49.425781 29.832031 49.382812 29.785156 49.34375 29.734375 C 49.304688 29.683594 49.269531 29.632812 49.230469 29.582031 C 49.132812 29.449219 49.039062 29.320312 48.949219 29.1875 C 48.929688 29.207031 48.914062 29.222656 48.898438 29.238281 C 48.875 29.265625 48.851562 29.28125 48.835938 29.292969 C 48.824219 29.308594 48.816406 29.3125 48.816406 29.3125 C 48.8125 29.316406 48.8125 29.316406 48.8125 29.316406 C 49.011719 29.539062 49.21875 29.742188 49.429688 29.914062 C 49.484375 29.960938 49.539062 30.003906 49.59375 30.042969 Z M 50.261719 27.554688 C 50.277344 27.535156 50.289062 27.519531 50.300781 27.507812 C 50.027344 27.308594 49.742188 27.140625 49.46875 26.984375 C 49.277344 26.871094 49.09375 26.765625 48.914062 26.664062 C 48.734375 26.546875 48.574219 26.449219 48.417969 26.332031 C 47.789062 25.894531 47.378906 25.414062 47.148438 25.058594 C 47.09375 24.96875 47.046875 24.894531 47.007812 24.824219 C 47 24.820312 46.988281 24.808594 46.972656 24.785156 C 46.964844 24.769531 46.953125 24.753906 46.941406 24.730469 C 46.933594 24.710938 46.914062 24.683594 46.898438 24.65625 C 46.882812 24.625 46.859375 24.589844 46.832031 24.554688 C 46.808594 24.515625 46.78125 24.476562 46.75 24.429688 C 46.6875 24.335938 46.605469 24.222656 46.527344 24.074219 C 46.515625 24.058594 46.503906 24.039062 46.496094 24.019531 C 46.488281 24 46.476562 23.976562 46.46875 23.957031 C 46.457031 23.933594 46.449219 23.910156 46.4375 23.890625 C 46.433594 23.867188 46.425781 23.84375 46.421875 23.820312 C 46.398438 23.726562 46.359375 23.625 46.351562 23.515625 C 46.34375 23.460938 46.332031 23.402344 46.324219 23.34375 C 46.320312 23.289062 46.316406 23.226562 46.3125 23.164062 C 46.304688 23.042969 46.304688 22.914062 46.304688 22.773438 C 46.3125 22.621094 46.339844 22.484375 46.355469 22.335938 C 46.375 22.191406 46.390625 22.039062 46.363281 21.902344 C 46.347656 21.835938 46.324219 21.78125 46.28125 21.726562 C 46.238281 21.671875 46.175781 21.617188 46.105469 21.5625 C 46.039062 21.507812 45.957031 21.453125 45.882812 21.378906 C 45.859375 21.359375 45.835938 21.332031 45.8125 21.308594 C 45.808594 21.3125 45.796875 21.320312 45.777344 21.328125 C 45.753906 21.347656 45.714844 21.375 45.671875 21.414062 C 45.644531 21.429688 45.621094 21.449219 45.589844 21.472656 C 45.566406 21.5 45.535156 21.527344 45.503906 21.554688 C 45.441406 21.613281 45.371094 21.683594 45.296875 21.765625 C 45.148438 21.929688 44.984375 22.140625 44.789062 22.375 C 44.742188 22.429688 44.691406 22.488281 44.636719 22.550781 C 44.585938 22.609375 44.523438 22.667969 44.46875 22.726562 C 44.347656 22.84375 44.210938 22.953125 44.074219 23.0625 C 43.800781 23.273438 43.535156 23.460938 43.324219 23.65625 C 43.265625 23.703125 43.222656 23.757812 43.175781 23.804688 C 43.152344 23.828125 43.128906 23.851562 43.105469 23.878906 C 43.085938 23.902344 43.066406 23.929688 43.046875 23.953125 C 42.972656 24.050781 42.910156 24.15625 42.851562 24.25 C 42.738281 24.445312 42.632812 24.609375 42.546875 24.71875 C 42.507812 24.769531 42.472656 24.804688 42.449219 24.832031 C 42.582031 24.90625 42.707031 24.972656 42.824219 25.011719 C 42.976562 25.0625 43.136719 25.070312 43.289062 25.050781 C 43.328125 25.046875 43.363281 25.042969 43.402344 25.035156 C 43.441406 25.027344 43.480469 25.023438 43.519531 25.015625 C 43.597656 25 43.671875 24.984375 43.746094 24.972656 C 43.820312 24.957031 43.902344 24.953125 43.976562 24.949219 C 44.054688 24.9375 44.125 24.949219 44.195312 24.949219 C 44.480469 24.960938 44.722656 25.027344 44.933594 25.089844 C 45.035156 25.125 45.128906 25.160156 45.21875 25.195312 C 45.304688 25.234375 45.386719 25.269531 45.460938 25.304688 C 45.75 25.449219 45.941406 25.566406 46.058594 25.648438 C 46.144531 25.710938 46.191406 25.753906 46.207031 25.773438 C 46.296875 25.835938 46.421875 25.929688 46.582031 26.054688 C 46.753906 26.179688 46.953125 26.34375 47.175781 26.546875 C 47.285156 26.652344 47.402344 26.761719 47.523438 26.886719 C 47.578125 26.949219 47.636719 27.015625 47.699219 27.082031 C 47.757812 27.148438 47.816406 27.214844 47.878906 27.292969 C 48.121094 27.589844 48.363281 27.921875 48.617188 28.285156 C 48.722656 28.433594 48.832031 28.589844 48.941406 28.75 C 48.984375 28.703125 49.027344 28.648438 49.078125 28.582031 C 49.171875 28.464844 49.285156 28.316406 49.457031 28.175781 C 49.476562 28.160156 49.5 28.140625 49.519531 28.125 C 49.539062 28.113281 49.5625 28.097656 49.578125 28.085938 C 49.621094 28.054688 49.65625 28.03125 49.695312 28.003906 C 49.765625 27.957031 49.835938 27.910156 49.898438 27.867188 C 50.019531 27.78125 50.113281 27.710938 50.179688 27.644531 C 50.195312 27.628906 50.210938 27.613281 50.226562 27.597656 C 50.238281 27.582031 50.25 27.566406 50.261719 27.554688 Z M 51.875 30.4375 C 51.90625 30.34375 51.90625 30.210938 51.886719 30.082031 C 51.867188 29.953125 51.835938 29.824219 51.796875 29.695312 C 51.71875 29.433594 51.613281 29.1875 51.507812 28.9375 L 51.464844 28.84375 L 51.453125 28.816406 L 51.445312 28.816406 L 51.445312 28.804688 L 51.429688 28.757812 L 51.386719 28.667969 L 51.363281 28.625 L 51.339844 28.585938 C 51.308594 28.53125 51.28125 28.480469 51.246094 28.429688 C 51.207031 28.378906 51.171875 28.328125 51.136719 28.277344 C 50.984375 28.078125 50.808594 27.90625 50.621094 27.753906 C 50.601562 27.738281 50.582031 27.722656 50.5625 27.703125 C 50.558594 27.707031 50.554688 27.710938 50.550781 27.714844 C 50.5 27.761719 50.429688 27.828125 50.332031 27.898438 C 50.140625 28.042969 49.855469 28.167969 49.605469 28.359375 C 49.488281 28.457031 49.394531 28.578125 49.3125 28.695312 C 49.242188 28.800781 49.175781 28.902344 49.109375 28.988281 C 49.214844 29.132812 49.324219 29.28125 49.4375 29.425781 C 49.472656 29.476562 49.511719 29.523438 49.550781 29.574219 C 49.589844 29.621094 49.628906 29.667969 49.667969 29.71875 C 49.710938 29.765625 49.75 29.8125 49.789062 29.863281 L 49.847656 29.933594 L 49.914062 30.003906 C 49.996094 30.078125 50.097656 30.15625 50.199219 30.222656 C 50.308594 30.289062 50.417969 30.355469 50.539062 30.40625 C 50.769531 30.515625 51.027344 30.59375 51.28125 30.625 C 51.410156 30.632812 51.535156 30.628906 51.652344 30.605469 L 51.738281 30.578125 L 51.78125 30.558594 C 51.792969 30.554688 51.792969 30.550781 51.800781 30.546875 C 51.832031 30.523438 51.855469 30.488281 51.875 30.4375 Z M 52.164062 30.042969 C 52.183594 30.195312 52.195312 30.355469 52.136719 30.535156 C 52.105469 30.621094 52.050781 30.710938 51.964844 30.773438 C 51.941406 30.785156 51.914062 30.804688 51.894531 30.8125 L 51.839844 30.839844 L 51.71875 30.875 C 51.5625 30.910156 51.402344 30.914062 51.253906 30.902344 C 51.050781 30.875 50.859375 30.828125 50.679688 30.761719 C 50.660156 30.757812 50.640625 30.757812 50.621094 30.753906 C 50.578125 30.742188 50.53125 30.730469 50.484375 30.71875 C 50.292969 30.679688 50.09375 30.601562 49.886719 30.503906 C 49.679688 30.402344 49.472656 30.273438 49.269531 30.117188 C 48.863281 29.800781 48.480469 29.390625 48.125 28.933594 C 48.035156 28.816406 47.953125 28.710938 47.863281 28.589844 C 47.78125 28.472656 47.703125 28.355469 47.632812 28.238281 C 47.488281 28.003906 47.359375 27.777344 47.234375 27.566406 C 46.984375 27.140625 46.742188 26.773438 46.492188 26.507812 C 46.257812 26.253906 46.023438 26.101562 45.839844 26.019531 C 45.8125 26.027344 45.753906 26.019531 45.65625 26 C 45.527344 25.972656 45.324219 25.9375 45.03125 25.933594 C 44.957031 25.929688 44.878906 25.929688 44.792969 25.933594 C 44.703125 25.933594 44.613281 25.9375 44.511719 25.945312 C 44.410156 25.949219 44.304688 25.957031 44.191406 25.960938 C 44.082031 25.96875 43.960938 25.972656 43.832031 25.980469 C 43.585938 25.988281 43.308594 26.039062 42.976562 26.035156 C 42.8125 26.03125 42.632812 26.007812 42.453125 25.9375 C 42.292969 25.875 42.140625 25.773438 42.003906 25.652344 C 41.964844 25.640625 41.921875 25.617188 41.878906 25.585938 C 41.84375 25.5625 41.816406 25.535156 41.785156 25.507812 C 41.757812 25.484375 41.746094 25.46875 41.726562 25.445312 C 41.691406 25.40625 41.65625 25.367188 41.621094 25.324219 C 41.550781 25.242188 41.484375 25.152344 41.414062 25.058594 C 41.34375 24.96875 41.277344 24.863281 41.203125 24.78125 C 41.144531 24.71875 41.089844 24.652344 41.035156 24.59375 C 40.976562 24.539062 40.917969 24.484375 40.867188 24.429688 C 40.765625 24.339844 40.636719 24.269531 40.539062 24.199219 C 40.4375 24.132812 40.355469 24.070312 40.296875 24.007812 C 40.269531 23.976562 40.242188 23.933594 40.230469 23.910156 C 40.226562 23.902344 40.222656 23.894531 40.21875 23.890625 L 40.214844 23.894531 C 40.0625 23.769531 39.914062 23.648438 39.773438 23.53125 C 39.707031 23.472656 39.632812 23.421875 39.5625 23.367188 C 39.492188 23.316406 39.421875 23.265625 39.355469 23.214844 C 39.085938 23.015625 38.84375 22.832031 38.625 22.667969 C 38.410156 22.496094 38.21875 22.332031 38.058594 22.195312 C 38.027344 22.167969 37.980469 22.136719 37.9375 22.097656 C 37.890625 22.058594 37.84375 22.011719 37.820312 21.945312 C 37.808594 21.914062 37.800781 21.875 37.800781 21.847656 C 37.796875 21.820312 37.796875 21.789062 37.804688 21.753906 C 37.8125 21.722656 37.832031 21.6875 37.855469 21.660156 C 37.878906 21.628906 37.90625 21.613281 37.929688 21.601562 C 37.976562 21.582031 38.011719 21.566406 38.019531 21.558594 C 38.027344 21.554688 38.03125 21.554688 38.035156 21.546875 C 38.039062 21.53125 38.046875 21.519531 38.054688 21.503906 C 38.074219 21.457031 38.085938 21.40625 38.097656 21.359375 C 38.097656 21.355469 38.097656 21.351562 38.097656 21.347656 C 38.09375 21.328125 38.09375 21.304688 38.097656 21.285156 C 38.117188 21.125 38.167969 21.0625 38.285156 20.972656 C 38.324219 20.945312 38.394531 20.984375 38.433594 20.9375 C 38.46875 20.898438 38.449219 20.8125 38.476562 20.765625 C 38.492188 20.71875 38.515625 20.695312 38.539062 20.664062 C 38.550781 20.648438 38.5625 20.636719 38.574219 20.625 L 38.609375 20.589844 C 38.628906 20.574219 38.648438 20.558594 38.65625 20.542969 L 38.675781 20.523438 L 38.695312 20.492188 C 38.710938 20.46875 38.726562 20.445312 38.742188 20.425781 C 38.769531 20.382812 38.804688 20.335938 38.839844 20.289062 C 38.871094 20.242188 38.914062 20.203125 38.953125 20.160156 C 38.992188 20.117188 39.035156 20.09375 39.078125 20.058594 C 39.117188 20.03125 39.152344 20 39.191406 19.972656 C 39.257812 19.917969 39.292969 19.875 39.328125 19.796875 C 39.347656 19.757812 39.371094 19.714844 39.390625 19.675781 C 39.402344 19.652344 39.414062 19.632812 39.425781 19.613281 C 39.441406 19.589844 39.457031 19.570312 39.46875 19.550781 C 39.527344 19.472656 39.617188 19.402344 39.6875 19.363281 C 39.828125 19.285156 39.898438 19.210938 39.976562 19.089844 C 39.996094 19.0625 40.019531 19.03125 40.039062 19 C 40.0625 18.972656 40.09375 18.941406 40.121094 18.914062 C 40.179688 18.863281 40.246094 18.832031 40.300781 18.804688 C 40.414062 18.75 40.5 18.710938 40.546875 18.644531 C 40.601562 18.578125 40.667969 18.472656 40.777344 18.425781 L 40.765625 18.429688 C 40.855469 18.382812 40.9375 18.378906 40.996094 18.371094 C 41.058594 18.363281 41.101562 18.355469 41.132812 18.339844 L 41.136719 18.335938 C 41.144531 18.3125 41.152344 18.285156 41.164062 18.257812 C 41.175781 18.238281 41.191406 18.21875 41.203125 18.199219 C 41.21875 18.179688 41.242188 18.167969 41.261719 18.148438 C 41.28125 18.132812 41.304688 18.121094 41.328125 18.105469 C 41.351562 18.09375 41.375 18.082031 41.398438 18.070312 C 41.441406 18.042969 41.488281 18.007812 41.53125 17.96875 C 41.566406 17.9375 41.589844 17.878906 41.640625 17.800781 C 41.667969 17.761719 41.710938 17.714844 41.769531 17.6875 C 41.828125 17.660156 41.890625 17.65625 41.945312 17.660156 C 41.972656 17.660156 41.996094 17.664062 42.027344 17.667969 C 42.050781 17.675781 42.082031 17.679688 42.109375 17.6875 C 42.164062 17.707031 42.21875 17.730469 42.265625 17.757812 C 42.46875 17.875 42.644531 18.046875 42.84375 18.222656 C 42.890625 18.265625 42.941406 18.304688 42.992188 18.347656 C 43.050781 18.394531 43.109375 18.441406 43.167969 18.488281 C 43.226562 18.539062 43.28125 18.59375 43.34375 18.648438 C 43.398438 18.703125 43.457031 18.761719 43.515625 18.816406 C 43.730469 19.03125 43.945312 19.273438 44.207031 19.496094 C 44.269531 19.503906 44.3125 19.527344 44.34375 19.550781 C 44.363281 19.570312 44.378906 19.585938 44.386719 19.605469 C 44.390625 19.605469 44.390625 19.605469 44.390625 19.609375 C 44.390625 19.609375 44.445312 19.691406 44.574219 19.816406 C 44.703125 19.9375 44.90625 20.09375 45.132812 20.257812 C 45.359375 20.425781 45.570312 20.585938 45.707031 20.742188 C 45.890625 20.949219 46.039062 21.195312 46.261719 21.367188 C 46.332031 21.425781 46.410156 21.492188 46.476562 21.574219 C 46.539062 21.65625 46.585938 21.761719 46.601562 21.855469 C 46.636719 22.050781 46.613281 22.214844 46.59375 22.367188 C 46.570312 22.519531 46.542969 22.664062 46.53125 22.78125 C 46.53125 22.910156 46.527344 23.039062 46.53125 23.15625 C 46.535156 23.214844 46.535156 23.273438 46.539062 23.328125 C 46.542969 23.382812 46.550781 23.433594 46.554688 23.484375 C 46.558594 23.589844 46.589844 23.679688 46.605469 23.765625 C 46.609375 23.789062 46.613281 23.8125 46.617188 23.832031 C 46.625 23.851562 46.632812 23.871094 46.640625 23.890625 C 46.648438 23.90625 46.652344 23.925781 46.660156 23.945312 C 46.667969 23.960938 46.675781 23.980469 46.683594 23.996094 C 46.746094 24.136719 46.816406 24.253906 46.871094 24.355469 C 46.894531 24.40625 46.921875 24.453125 46.9375 24.496094 C 46.957031 24.539062 46.976562 24.578125 46.984375 24.613281 C 46.988281 24.628906 46.992188 24.640625 46.996094 24.652344 C 47.019531 24.6875 47.046875 24.726562 47.074219 24.769531 C 47.121094 24.835938 47.175781 24.910156 47.238281 24.992188 C 47.488281 25.320312 47.90625 25.765625 48.527344 26.167969 C 49.128906 26.597656 49.988281 26.910156 50.789062 27.554688 C 50.984375 27.714844 51.175781 27.898438 51.347656 28.113281 C 51.386719 28.167969 51.425781 28.222656 51.46875 28.277344 C 51.507812 28.335938 51.542969 28.398438 51.582031 28.457031 C 51.601562 28.488281 51.617188 28.519531 51.628906 28.546875 L 51.675781 28.636719 L 51.699219 28.683594 L 51.703125 28.695312 L 51.710938 28.714844 L 51.722656 28.738281 L 51.761719 28.828125 C 51.871094 29.078125 51.976562 29.335938 52.0625 29.613281 C 52.105469 29.75 52.140625 29.894531 52.164062 30.042969 "/></g><g clip-rule="nonzero" clip-path="url(#5b1af433e9)"><path style=" stroke:none;fill-rule:nonzero;fill:#ffffff;fill-opacity:1;" d="M 51.234375 29.71875 C 51.296875 29.617188 51.308594 29.5 51.289062 29.433594 C 51.242188 29.25 50.945312 29.261719 50.835938 29.378906 C 50.78125 29.429688 50.738281 29.53125 50.753906 29.636719 C 50.761719 29.691406 50.785156 29.746094 50.824219 29.792969 C 50.859375 29.84375 50.914062 29.878906 50.960938 29.890625 C 51.011719 29.902344 51.066406 29.886719 51.117188 29.855469 C 51.164062 29.820312 51.203125 29.769531 51.234375 29.71875 Z M 51.566406 29.328125 C 51.601562 29.472656 51.570312 29.640625 51.480469 29.800781 C 51.4375 29.882812 51.375 29.960938 51.285156 30.03125 C 51.242188 30.066406 51.1875 30.09375 51.125 30.113281 C 51.058594 30.132812 50.984375 30.140625 50.914062 30.125 C 50.839844 30.109375 50.78125 30.078125 50.730469 30.039062 C 50.679688 30 50.644531 29.957031 50.605469 29.914062 C 50.539062 29.820312 50.503906 29.714844 50.496094 29.617188 C 50.484375 29.519531 50.5 29.425781 50.53125 29.347656 C 50.542969 29.308594 50.5625 29.273438 50.582031 29.238281 C 50.601562 29.207031 50.621094 29.175781 50.644531 29.152344 C 50.851562 28.921875 51.277344 28.90625 51.476562 29.144531 C 51.515625 29.191406 51.546875 29.253906 51.566406 29.328125 "/></g><g clip-rule="nonzero" clip-path="url(#3dc752dcc8)"><path style=" stroke:none;fill-rule:nonzero;fill:#ff5a53;fill-opacity:1;" d="M 21.640625 2.996094 L 6.546875 13.941406 C 6.546875 13.941406 5.851562 15.265625 5.929688 15.382812 C 6.007812 15.5 6.621094 16.199219 6.621094 16.199219 L 8.546875 15.695312 L 21.71875 5.605469 L 22.875 6.074219 L 32.847656 14.058594 L 35.851562 16.199219 L 37.355469 14.292969 L 27.148438 6.734375 Z M 21.640625 2.996094 "/></g><path style=" stroke:none;fill-rule:nonzero;fill:#f0f2fa;fill-opacity:1;" d="M 21.71875 5.605469 L 9.101562 14.9375 L 9.34375 24.28125 L 10.457031 23.894531 L 11.203125 24.453125 C 11.203125 24.453125 11.5625 25.210938 11.535156 25.097656 C 11.507812 24.984375 12.613281 24.59375 12.613281 24.59375 L 13.21875 25.265625 L 13.082031 25.90625 L 14.242188 25.769531 L 14.519531 26.660156 L 14.433594 27.835938 L 15.207031 28.003906 L 15.179688 30.179688 L 28.019531 30.460938 L 27.714844 27.609375 L 28.019531 27.582031 L 27.992188 26.269531 L 28.820312 25.488281 L 29.675781 25.488281 L 29.871094 24.371094 L 30.890625 23.5625 L 31.636719 23.894531 L 32.246094 24.34375 L 33.320312 23.617188 L 33.761719 23.644531 L 33.984375 14.847656 L 25.480469 8.285156 L 22.691406 5.882812 Z M 21.71875 5.605469 "/><path style=" stroke:none;fill-rule:nonzero;fill:#af7979;fill-opacity:1;" d="M 10.882812 3.363281 C 10.9375 3.351562 15.304688 3.511719 15.304688 3.511719 C 15.304688 3.511719 15.246094 7.703125 15.191406 7.722656 C 15.136719 7.742188 11.027344 10.597656 11.027344 10.597656 C 11.027344 10.597656 10.789062 3.378906 10.882812 3.363281 Z M 10.882812 3.363281 "/><path style=" stroke:none;fill-rule:nonzero;fill:#af7979;fill-opacity:1;" d="M 18.605469 20.75 L 24.570312 20.863281 L 24.515625 30.234375 L 18.550781 30.289062 Z M 18.605469 20.75 "/><path style=" stroke:none;fill-rule:nonzero;fill:#5bd0fc;fill-opacity:1;" d="M 11.511719 16.339844 L 16.859375 16.28125 L 16.613281 25.226562 L 13.3125 25.4375 L 12.894531 24.726562 L 11.644531 24.648438 L 11.378906 23.34375 L 11.511719 17.03125 Z M 11.511719 16.339844 "/><path style=" stroke:none;fill-rule:nonzero;fill:#5bd0fc;fill-opacity:1;" d="M 26.671875 17.816406 L 31.832031 17.492188 L 31.964844 24.054688 L 30.730469 23.75 L 29.820312 24.574219 L 29.675781 25.488281 L 28.605469 25.515625 L 27.992188 26.269531 L 26.898438 26.011719 L 26.40625 25.320312 Z M 26.671875 17.816406 "/><path style=" stroke:none;fill-rule:nonzero;fill:#5bd0fc;fill-opacity:1;" d="M 21.964844 10.523438 C 23.523438 10.554688 24.828125 12.234375 24.753906 13.460938 C 24.679688 14.691406 23.824219 17.089844 21.585938 16.761719 C 19.347656 16.4375 18.300781 15.035156 18.703125 13.632812 C 19.101562 12.234375 19.839844 10.488281 21.964844 10.523438 Z M 21.964844 10.523438 "/><path style=" stroke:none;fill-rule:nonzero;fill:#dba1a1;fill-opacity:1;" d="M 10.027344 2.851562 C 10.027344 2.953125 10.027344 3.0625 10.09375 3.140625 C 10.171875 3.230469 10.308594 3.238281 10.429688 3.234375 C 10.75 3.226562 11.035156 3.300781 11.355469 3.3125 C 11.769531 3.328125 12.183594 3.339844 12.59375 3.351562 C 13.410156 3.367188 14.226562 3.371094 15.042969 3.359375 C 15.25 3.359375 15.46875 3.351562 15.65625 3.261719 C 15.921875 3.132812 16.058594 2.832031 16.027344 2.546875 C 16.015625 2.441406 15.867188 1.285156 15.847656 1.285156 C 14.394531 1.332031 12.9375 1.378906 11.484375 1.425781 C 11.21875 1.433594 10.949219 1.441406 10.683594 1.460938 C 10.523438 1.472656 10.296875 1.460938 10.164062 1.574219 C 10.027344 1.6875 10.050781 1.898438 10.046875 2.058594 C 10.039062 2.320312 10.035156 2.585938 10.027344 2.851562 Z M 10.027344 2.851562 "/><g clip-rule="nonzero" clip-path="url(#6aa514d09d)"><path style=" stroke:none;fill-rule:nonzero;fill:#dba1a1;fill-opacity:1;" d="M 7.097656 30.933594 L 12.972656 30.15625 L 25.507812 30.050781 L 34.953125 30.554688 L 36.339844 30.746094 L 36.902344 32.089844 L 36.339844 33.160156 C 36.339844 33.160156 29.722656 33.285156 29.785156 33.304688 C 29.84375 33.328125 20.609375 33.03125 20.609375 33.03125 L 14.09375 33.179688 L 6.601562 32.800781 L 6.058594 32.066406 L 6.039062 31.351562 Z M 7.097656 30.933594 "/></g><path style=" stroke:none;fill-rule:nonzero;fill:#ed6d66;fill-opacity:1;" d="M 7.085938 27.992188 L 15.300781 28.023438 L 15.066406 30.199219 L 7.6875 30.5 Z M 7.085938 27.992188 "/><path style=" stroke:none;fill-rule:nonzero;fill:#ed6d66;fill-opacity:1;" d="M 28.019531 30.460938 L 27.714844 27.609375 L 35.996094 28.175781 L 35.464844 30.691406 Z M 28.019531 30.460938 "/><path style=" stroke:none;fill-rule:nonzero;fill:#cbe580;fill-opacity:1;" d="M 28.019531 27.582031 L 27.925781 26.089844 L 29.234375 25.371094 L 29.675781 25.488281 L 30.019531 24.164062 L 31.0625 23.78125 L 32.113281 24.195312 L 32.347656 24.554688 L 33.488281 23.824219 L 34.007812 24.320312 L 34.03125 25.40625 L 35.085938 25.832031 L 35.617188 26.628906 L 35.582031 27.367188 L 35.304688 27.972656 L 32.46875 27.984375 Z M 28.019531 27.582031 "/><path style=" stroke:none;fill-rule:nonzero;fill:#cbe580;fill-opacity:1;" d="M 8.15625 24.878906 C 8.3125 24.917969 8.460938 25.019531 8.617188 24.992188 C 8.78125 24.96875 8.890625 24.8125 9.003906 24.6875 C 9.277344 24.367188 9.671875 24.15625 10.082031 24.082031 C 10.441406 24.019531 10.933594 23.953125 11.179688 24.296875 C 11.261719 24.414062 11.316406 24.539062 11.351562 24.679688 C 11.378906 24.785156 11.378906 24.90625 11.472656 24.976562 C 11.4375 24.953125 11.960938 24.730469 12.011719 24.71875 C 12.175781 24.6875 12.34375 24.671875 12.492188 24.761719 C 12.839844 24.980469 13 25.445312 13.34375 25.652344 C 13.507812 25.75 13.710938 25.746094 13.894531 25.804688 C 14.136719 25.875 14.34375 26.054688 14.453125 26.285156 C 14.652344 26.710938 14.503906 27.210938 14.355469 27.65625 C 12.355469 27.71875 10.359375 27.785156 8.363281 27.851562 C 8.070312 27.859375 7.757812 27.863281 7.519531 27.691406 C 7.320312 27.546875 7.214844 27.308594 7.15625 27.070312 C 7.054688 26.667969 7.0625 26.238281 7.167969 25.839844 C 7.246094 25.5625 7.347656 25.25 7.578125 25.070312 C 7.75 24.9375 7.9375 24.828125 8.15625 24.878906 Z M 8.15625 24.878906 "/><g clip-rule="nonzero" clip-path="url(#e932f43ae0)"><path style=" stroke:none;fill-rule:nonzero;fill:#000000;fill-opacity:1;" d="M 36.640625 15.96875 C 36.996094 15.535156 37.328125 15.082031 37.644531 14.613281 C 37.726562 14.488281 37.707031 14.25 37.585938 14.152344 C 33.617188 11.019531 29.570312 7.984375 25.453125 5.054688 C 24.292969 4.230469 23.125 3.417969 21.953125 2.609375 C 21.800781 2.503906 21.613281 2.566406 21.488281 2.667969 C 20.796875 3.234375 20.097656 3.78125 19.394531 4.328125 C 18.304688 5.070312 17.238281 5.859375 16.164062 6.625 C 15.960938 6.769531 15.761719 6.910156 15.5625 7.054688 C 15.5625 6.988281 15.558594 6.921875 15.558594 6.859375 C 15.554688 6.453125 15.554688 6.046875 15.546875 5.636719 C 15.539062 5.253906 15.519531 4.867188 15.507812 4.480469 C 15.5 4.269531 15.507812 4.035156 15.484375 3.8125 C 15.808594 3.792969 16.113281 3.699219 16.265625 3.402344 C 16.394531 3.160156 16.367188 2.867188 16.347656 2.601562 C 16.324219 2.25 16.3125 1.851562 16.21875 1.507812 C 16.121094 1.167969 15.835938 1.136719 15.53125 1.121094 C 15.183594 1.105469 14.835938 1.09375 14.488281 1.089844 C 13.265625 0.882812 11.957031 1.003906 10.75 1.089844 C 10.484375 1.109375 10.15625 1.085938 9.933594 1.257812 C 9.683594 1.457031 9.730469 1.8125 9.71875 2.101562 C 9.710938 2.453125 9.671875 2.820312 9.6875 3.171875 C 9.703125 3.464844 9.855469 3.671875 10.148438 3.710938 C 10.355469 3.738281 10.578125 3.738281 10.792969 3.734375 C 10.765625 4.285156 10.785156 4.839844 10.777344 5.386719 C 10.765625 5.976562 10.75 6.5625 10.738281 7.148438 C 10.722656 7.742188 10.710938 8.332031 10.703125 8.925781 C 10.699219 9.453125 10.648438 10.007812 10.703125 10.539062 C 9.949219 11.078125 9.195312 11.621094 8.441406 12.160156 C 8.023438 12.460938 7.601562 12.761719 7.179688 13.066406 C 6.824219 13.324219 6.445312 13.578125 6.160156 13.917969 C 5.707031 14.457031 5.484375 15.269531 5.902344 15.902344 C 6.394531 16.65625 7.34375 16.472656 8.011719 16.09375 C 8.335938 15.910156 8.648438 15.695312 8.953125 15.472656 C 8.882812 16.828125 8.945312 18.195312 8.972656 19.550781 C 9.003906 21.023438 8.960938 22.53125 9.125 23.996094 C 9.125 24.019531 9.132812 24.042969 9.136719 24.0625 C 8.976562 24.226562 8.847656 24.425781 8.75 24.644531 C 8.523438 24.535156 8.261719 24.503906 8.003906 24.574219 C 7.53125 24.707031 7.210938 25.125 7.050781 25.578125 C 6.882812 26.058594 6.785156 27.078125 7.152344 27.597656 C 7.089844 27.59375 7.027344 27.59375 6.964844 27.59375 C 6.703125 27.582031 6.574219 27.839844 6.609375 28.066406 C 6.679688 28.539062 6.824219 29 6.960938 29.457031 C 7.027344 29.664062 7.09375 29.863281 7.183594 30.0625 C 7.222656 30.152344 7.261719 30.226562 7.308594 30.296875 C 6.953125 30.367188 6.609375 30.484375 6.3125 30.703125 C 5.605469 31.234375 5.203125 32.453125 6.078125 33.050781 C 6.515625 33.351562 7.15625 33.25 7.660156 33.257812 C 8.300781 33.269531 8.941406 33.277344 9.585938 33.285156 C 12.152344 33.320312 14.71875 33.34375 17.289062 33.363281 C 22.445312 33.398438 27.601562 33.414062 32.757812 33.394531 C 33.40625 33.394531 34.058594 33.394531 34.707031 33.375 C 35.269531 33.363281 35.90625 33.402344 36.457031 33.257812 C 37.367188 33.019531 37.367188 31.628906 37.050781 30.914062 C 36.871094 30.503906 36.535156 30.300781 36.121094 30.246094 C 36.238281 29.71875 36.339844 29.1875 36.421875 28.652344 C 36.460938 28.398438 36.5 28.132812 36.277344 27.949219 C 36.167969 27.855469 36.039062 27.820312 35.902344 27.804688 C 36.054688 27.179688 36.007812 26.492188 35.617188 25.96875 C 35.3125 25.5625 34.84375 25.296875 34.347656 25.28125 C 34.414062 24.773438 34.390625 24.230469 34.0625 23.851562 C 34.117188 23.632812 34.113281 23.410156 34.113281 23.160156 C 34.117188 22.753906 34.121094 22.34375 34.125 21.9375 C 34.128906 21.140625 34.132812 20.347656 34.140625 19.550781 C 34.152344 18.777344 34.167969 18.003906 34.164062 17.230469 C 34.160156 16.664062 34.226562 16.015625 34.15625 15.421875 C 34.589844 15.730469 35.023438 16.082031 35.488281 16.339844 C 35.984375 16.617188 36.324219 16.359375 36.640625 15.96875 Z M 10.351562 3.050781 C 10.445312 2.675781 10.375 2.175781 10.382812 1.789062 C 11.394531 1.679688 12.414062 1.632812 13.425781 1.683594 C 14 1.710938 14.574219 1.746094 15.148438 1.78125 C 15.289062 1.789062 15.449219 1.8125 15.59375 1.804688 C 15.59375 1.816406 15.59375 1.828125 15.59375 1.84375 C 15.589844 2.132812 15.664062 2.433594 15.679688 2.726562 C 15.683594 2.789062 15.71875 2.996094 15.675781 3.058594 C 15.625 3.136719 15.523438 3.117188 15.429688 3.117188 C 15.132812 3.121094 14.835938 3.109375 14.539062 3.105469 L 11.042969 3.0625 C 10.980469 3.058594 10.570312 3.054688 10.351562 3.050781 Z M 14.902344 7.527344 C 13.726562 8.367188 12.550781 9.210938 11.375 10.054688 C 11.382812 9.675781 11.363281 9.292969 11.363281 8.925781 C 11.363281 8.3125 11.355469 7.699219 11.347656 7.085938 C 11.339844 6.476562 11.339844 5.871094 11.324219 5.265625 C 11.308594 4.757812 11.300781 4.234375 11.207031 3.730469 C 11.597656 3.738281 11.988281 3.746094 12.378906 3.75 L 14.601562 3.785156 C 14.703125 3.789062 14.816406 3.796875 14.933594 3.804688 C 14.910156 4.007812 14.917969 4.21875 14.910156 4.417969 C 14.894531 4.824219 14.878906 5.230469 14.871094 5.636719 C 14.867188 6.023438 14.867188 6.410156 14.863281 6.792969 C 14.863281 7.03125 14.835938 7.296875 14.902344 7.527344 Z M 7.546875 26.21875 C 7.589844 25.90625 7.671875 25.5625 7.914062 25.34375 C 8.113281 25.164062 8.457031 25.089844 8.628906 25.34375 C 8.773438 25.554688 9.144531 25.554688 9.207031 25.265625 C 9.316406 24.75 9.628906 24.238281 10.195312 24.179688 C 10.777344 24.117188 11.074219 24.644531 11.171875 25.148438 C 11.21875 25.386719 11.523438 25.425781 11.679688 25.28125 C 11.910156 25.074219 12.339844 24.710938 12.648438 24.988281 C 12.707031 25.039062 12.746094 25.109375 12.769531 25.1875 C 12.769531 25.226562 12.777344 25.265625 12.792969 25.304688 C 12.8125 25.464844 12.785156 25.636719 12.757812 25.769531 C 12.6875 26.082031 13.042969 26.289062 13.277344 26.074219 C 13.585938 25.796875 13.992188 26.054688 14.148438 26.367188 C 14.328125 26.722656 14.285156 27.128906 14.207031 27.511719 C 13.789062 27.503906 13.371094 27.5 12.949219 27.496094 C 11.972656 27.484375 10.996094 27.484375 10.019531 27.5 C 9.277344 27.511719 8.527344 27.578125 7.78125 27.59375 C 7.546875 27.152344 7.480469 26.738281 7.546875 26.21875 Z M 33.402344 23.484375 C 32.972656 23.425781 32.582031 23.695312 32.265625 24.027344 C 32.246094 24.007812 32.230469 23.988281 32.210938 23.96875 C 32.289062 23.179688 32.203125 22.363281 32.191406 21.574219 C 32.183594 20.773438 32.175781 19.972656 32.183594 19.171875 C 32.1875 18.78125 32.195312 18.390625 32.207031 18 C 32.214844 17.714844 32.242188 17.410156 31.945312 17.261719 C 31.679688 17.132812 31.300781 17.21875 31.019531 17.230469 C 30.597656 17.25 30.175781 17.269531 29.753906 17.289062 C 28.996094 17.320312 28.238281 17.355469 27.484375 17.390625 C 27.199219 17.402344 26.8125 17.355469 26.558594 17.515625 C 26.257812 17.707031 26.296875 18.078125 26.292969 18.390625 C 26.277344 19.96875 26.265625 21.546875 26.253906 23.121094 C 26.246094 24.023438 26.1875 24.945312 26.230469 25.84375 C 26.242188 26.144531 26.398438 26.328125 26.695312 26.371094 C 26.988281 26.417969 27.300781 26.433594 27.605469 26.441406 C 27.527344 26.785156 27.554688 27.152344 27.699219 27.46875 C 27.148438 27.550781 27.320312 28.132812 27.386719 28.550781 C 27.460938 29.046875 27.515625 29.546875 27.652344 30.027344 C 26.734375 30 25.8125 29.980469 24.894531 29.960938 C 24.933594 28.660156 24.902344 27.355469 24.910156 26.054688 C 24.914062 24.683594 24.921875 23.3125 24.929688 21.9375 C 24.933594 21.507812 25.121094 20.636719 24.558594 20.484375 C 24.273438 20.40625 23.910156 20.464844 23.613281 20.460938 C 23.273438 20.460938 22.933594 20.460938 22.589844 20.457031 C 21.230469 20.453125 19.867188 20.445312 18.503906 20.441406 C 18.324219 20.441406 18.167969 20.597656 18.171875 20.777344 C 18.179688 22.378906 18.1875 23.980469 18.207031 25.582031 C 18.222656 27.015625 18.152344 28.488281 18.300781 29.921875 C 17.382812 29.929688 16.460938 29.941406 15.542969 29.960938 C 15.597656 29.613281 15.621094 29.253906 15.65625 28.914062 C 15.691406 28.582031 15.867188 27.988281 15.636719 27.699219 C 15.480469 27.503906 15.164062 27.488281 14.875 27.5 C 14.949219 26.882812 14.921875 26.242188 14.492188 25.75 C 14.445312 25.699219 14.398438 25.652344 14.347656 25.613281 C 14.769531 25.644531 15.1875 25.679688 15.609375 25.691406 C 15.929688 25.699219 16.460938 25.765625 16.738281 25.570312 C 17.054688 25.347656 16.957031 24.773438 16.972656 24.4375 C 17.054688 22.503906 17.148438 20.566406 17.226562 18.632812 C 17.246094 18.179688 17.261719 17.730469 17.269531 17.277344 C 17.273438 17.042969 17.277344 16.804688 17.273438 16.570312 C 17.269531 16.394531 17.277344 16.207031 17.144531 16.074219 C 16.90625 15.824219 16.324219 15.914062 16.011719 15.90625 C 15.5 15.890625 14.984375 15.886719 14.472656 15.886719 C 13.539062 15.894531 12.585938 15.902344 11.652344 16.003906 C 11.269531 16.042969 11.183594 16.292969 11.175781 16.640625 C 11.164062 17.160156 11.171875 17.683594 11.167969 18.203125 C 11.167969 19.285156 11.175781 20.367188 11.199219 21.449219 C 11.207031 22.011719 11.214844 22.578125 11.238281 23.140625 C 11.253906 23.4375 11.261719 23.730469 11.289062 24.027344 C 11.019531 23.726562 10.648438 23.53125 10.203125 23.558594 C 10.039062 23.570312 9.890625 23.605469 9.746094 23.65625 C 9.753906 23.511719 9.746094 23.363281 9.742188 23.226562 L 9.710938 22.066406 C 9.6875 21.25 9.652344 20.433594 9.621094 19.617188 C 9.566406 18.132812 9.546875 16.632812 9.367188 15.160156 C 9.714844 14.894531 10.054688 14.621094 10.402344 14.363281 C 11.261719 13.730469 12.125 13.09375 12.984375 12.457031 C 14.671875 11.210938 16.363281 9.960938 18.050781 8.714844 C 18.878906 8.105469 19.703125 7.492188 20.53125 6.882812 C 20.738281 6.730469 20.945312 6.578125 21.152344 6.425781 C 21.335938 6.289062 21.53125 6.097656 21.742188 6.011719 C 22.191406 5.824219 22.636719 6.355469 22.941406 6.621094 C 24.433594 7.933594 25.957031 9.207031 27.507812 10.445312 C 29.242188 11.832031 31.011719 13.175781 32.8125 14.472656 C 33.113281 14.6875 33.417969 14.902344 33.722656 15.117188 C 33.539062 15.761719 33.582031 16.519531 33.546875 17.167969 C 33.503906 17.960938 33.484375 18.757812 33.464844 19.550781 C 33.445312 20.324219 33.429688 21.097656 33.417969 21.871094 C 33.410156 22.28125 33.40625 22.6875 33.402344 23.097656 C 33.402344 23.230469 33.398438 23.359375 33.402344 23.484375 Z M 31.597656 20.859375 C 31.601562 21.011719 31.601562 21.164062 31.601562 21.316406 C 30.957031 21.304688 30.304688 21.351562 29.65625 21.382812 C 29.660156 20.757812 29.667969 20.132812 29.667969 19.507812 C 29.664062 19.1875 29.664062 18.863281 29.644531 18.539062 C 29.632812 18.347656 29.628906 18.140625 29.585938 17.949219 C 29.726562 17.941406 29.867188 17.933594 30.007812 17.929688 C 30.300781 17.914062 30.597656 17.898438 30.890625 17.886719 C 31.019531 17.878906 31.144531 17.875 31.269531 17.867188 C 31.347656 17.863281 31.503906 17.832031 31.617188 17.835938 C 31.636719 18.039062 31.59375 18.28125 31.59375 18.453125 C 31.589844 18.714844 31.585938 18.976562 31.585938 19.234375 C 31.585938 19.777344 31.589844 20.316406 31.597656 20.859375 Z M 29.648438 21.984375 C 30.300781 21.980469 30.964844 21.984375 31.605469 21.914062 C 31.613281 22.480469 31.632812 23.054688 31.710938 23.605469 C 31.28125 23.40625 30.773438 23.382812 30.34375 23.605469 C 30.027344 23.773438 29.796875 24.039062 29.660156 24.351562 C 29.632812 23.5625 29.640625 22.773438 29.648438 21.984375 Z M 29.210938 18.667969 C 29.207031 18.972656 29.207031 19.273438 29.203125 19.574219 C 29.1875 20.183594 29.167969 20.792969 29.144531 21.402344 C 28.738281 21.410156 28.332031 21.421875 27.925781 21.433594 C 27.597656 21.441406 27.246094 21.417969 26.917969 21.480469 C 26.921875 21.035156 26.925781 20.585938 26.933594 20.140625 C 26.9375 19.558594 26.941406 18.972656 26.949219 18.390625 C 26.949219 18.289062 26.929688 18.117188 26.976562 18.070312 C 27.023438 18.027344 27.277344 18.058594 27.355469 18.054688 C 27.652344 18.039062 27.945312 18.027344 28.238281 18.011719 C 28.574219 17.996094 28.90625 17.980469 29.238281 17.964844 C 29.203125 18.195312 29.214844 18.445312 29.210938 18.667969 Z M 26.882812 25.457031 L 26.898438 23.640625 C 26.90625 23.078125 26.910156 22.515625 26.914062 21.953125 C 27.222656 22.011719 27.550781 21.992188 27.859375 21.996094 C 28.28125 21.996094 28.703125 21.996094 29.125 21.992188 C 29.09375 23.042969 29.085938 24.09375 29.144531 25.144531 C 28.679688 25.175781 28.234375 25.382812 27.925781 25.769531 C 27.914062 25.78125 27.90625 25.792969 27.894531 25.808594 C 27.640625 25.777344 27.382812 25.761719 27.125 25.746094 L 26.882812 25.730469 C 26.882812 25.617188 26.882812 25.464844 26.882812 25.457031 Z M 24.253906 21.679688 C 24.253906 21.980469 24.253906 22.28125 24.25 22.582031 C 24.242188 23.824219 24.234375 25.070312 24.226562 26.3125 C 24.21875 27.523438 24.175781 28.738281 24.199219 29.949219 C 23.183594 29.933594 22.167969 29.921875 21.152344 29.914062 C 20.367188 29.914062 19.582031 29.914062 18.800781 29.917969 C 18.859375 29.253906 18.847656 28.585938 18.851562 27.917969 C 18.851562 27.117188 18.851562 26.316406 18.851562 25.515625 C 18.851562 24.050781 18.847656 22.585938 18.839844 21.121094 C 20.007812 21.125 21.171875 21.132812 22.335938 21.136719 C 22.933594 21.140625 23.527344 21.144531 24.125 21.148438 C 24.167969 21.148438 24.210938 21.148438 24.257812 21.148438 C 24.257812 21.152344 24.257812 21.160156 24.257812 21.164062 C 24.214844 21.300781 24.257812 21.535156 24.253906 21.679688 Z M 14.445312 16.488281 C 14.945312 16.484375 15.445312 16.488281 15.949219 16.503906 C 16.140625 16.507812 16.332031 16.515625 16.523438 16.523438 C 16.566406 16.527344 16.609375 16.527344 16.652344 16.53125 C 16.664062 16.53125 16.671875 16.535156 16.679688 16.535156 C 16.679688 16.613281 16.679688 16.710938 16.679688 16.699219 C 16.679688 17.128906 16.671875 17.558594 16.65625 17.988281 C 16.632812 18.683594 16.601562 19.382812 16.566406 20.078125 C 15.851562 20.09375 15.136719 20.101562 14.417969 20.113281 C 14.421875 19.511719 14.429688 18.910156 14.4375 18.304688 C 14.441406 17.953125 14.453125 17.601562 14.453125 17.246094 C 14.453125 17.003906 14.472656 16.738281 14.445312 16.488281 Z M 16.539062 20.648438 C 16.496094 21.445312 16.453125 22.242188 16.410156 23.039062 C 16.382812 23.503906 16.359375 23.972656 16.335938 24.4375 C 16.328125 24.546875 16.324219 24.652344 16.320312 24.757812 C 16.316406 24.820312 16.355469 24.953125 16.304688 25.003906 C 16.300781 25.007812 16.292969 25.007812 16.289062 25.011719 C 16.261719 25.027344 16.226562 25.027344 16.195312 25.027344 C 15.628906 25.039062 15.074219 25.019531 14.507812 24.988281 C 14.507812 24.292969 14.441406 23.589844 14.429688 22.894531 C 14.414062 22.148438 14.414062 21.398438 14.417969 20.652344 C 15.125 20.648438 15.832031 20.648438 16.539062 20.648438 Z M 11.757812 22.230469 C 11.753906 21.691406 11.75 21.152344 11.75 20.609375 C 12.066406 20.664062 12.402344 20.644531 12.71875 20.648438 C 13.085938 20.648438 13.457031 20.652344 13.824219 20.652344 C 13.8125 21.398438 13.808594 22.148438 13.824219 22.894531 C 13.835938 23.574219 13.828125 24.273438 13.902344 24.953125 C 13.859375 24.953125 13.816406 24.949219 13.773438 24.945312 C 13.632812 24.9375 13.480469 24.949219 13.332031 24.941406 C 13.265625 24.746094 13.148438 24.570312 12.964844 24.445312 C 12.558594 24.167969 12.121094 24.257812 11.742188 24.480469 C 11.828125 23.738281 11.765625 22.972656 11.757812 22.230469 Z M 13.894531 18.308594 C 13.871094 18.910156 13.855469 19.515625 13.839844 20.121094 C 13.488281 20.128906 13.132812 20.136719 12.78125 20.144531 C 12.449219 20.152344 12.085938 20.136719 11.75 20.195312 C 11.753906 20.03125 11.75 19.863281 11.753906 19.695312 C 11.757812 18.851562 11.757812 18.007812 11.761719 17.160156 C 11.761719 17.128906 11.769531 16.753906 11.769531 16.589844 C 11.773438 16.589844 11.777344 16.589844 11.78125 16.589844 C 11.890625 16.609375 12.054688 16.570312 12.164062 16.5625 C 12.59375 16.539062 13.019531 16.519531 13.445312 16.503906 C 13.621094 16.5 13.796875 16.496094 13.972656 16.492188 C 13.941406 16.722656 13.941406 16.964844 13.933594 17.1875 C 13.914062 17.558594 13.90625 17.933594 13.894531 18.308594 Z M 9.765625 28.199219 C 10.636719 28.183594 11.507812 28.183594 12.378906 28.1875 C 13.246094 28.195312 14.117188 28.210938 14.988281 28.226562 C 15 28.226562 15.011719 28.226562 15.019531 28.226562 C 15.023438 28.25 15.023438 28.269531 15.019531 28.292969 C 15 28.5 14.976562 28.707031 14.949219 28.914062 C 14.90625 29.265625 14.832031 29.621094 14.792969 29.976562 C 14.347656 29.988281 13.902344 30 13.457031 30.011719 C 12.171875 30.046875 10.882812 30.09375 9.597656 30.148438 C 8.996094 30.171875 8.390625 30.175781 7.792969 30.230469 C 7.777344 29.882812 7.710938 29.558594 7.628906 29.207031 C 7.554688 28.898438 7.496094 28.585938 7.425781 28.277344 C 8.195312 28.191406 9 28.214844 9.765625 28.199219 Z M 36.1875 31.058594 C 36.335938 31.144531 36.386719 31.332031 36.410156 31.492188 C 36.453125 31.734375 36.523438 32.390625 36.246094 32.492188 C 36.023438 32.578125 35.695312 32.546875 35.457031 32.558594 C 35.167969 32.574219 34.875 32.585938 34.582031 32.59375 C 33.996094 32.609375 33.410156 32.613281 32.820312 32.617188 C 28.09375 32.652344 23.363281 32.660156 18.636719 32.632812 C 16.261719 32.621094 13.886719 32.597656 11.511719 32.570312 C 10.3125 32.558594 9.113281 32.542969 7.914062 32.523438 C 7.636719 32.519531 7.359375 32.515625 7.082031 32.511719 C 6.871094 32.507812 6.597656 32.550781 6.445312 32.375 C 6.152344 32.042969 6.46875 31.566406 6.75 31.363281 C 7.160156 31.066406 7.695312 31.027344 8.183594 31.003906 C 8.738281 30.976562 9.292969 30.957031 9.847656 30.933594 C 11.03125 30.882812 12.210938 30.839844 13.394531 30.804688 C 15.765625 30.734375 18.136719 30.695312 20.511719 30.675781 C 25.046875 30.644531 29.578125 30.753906 34.113281 30.90625 C 34.542969 30.929688 34.976562 30.949219 35.40625 30.972656 C 35.640625 30.984375 35.980469 30.9375 36.1875 31.058594 Z M 35.691406 28.523438 C 35.652344 28.683594 35.613281 29.070312 35.601562 29.128906 C 35.53125 29.496094 35.441406 29.859375 35.347656 30.21875 C 34.917969 30.222656 34.488281 30.238281 34.0625 30.238281 C 33.636719 30.238281 33.207031 30.234375 32.78125 30.230469 C 32.773438 30.230469 32.765625 30.230469 32.757812 30.226562 C 31.476562 30.160156 30.195312 30.109375 28.910156 30.066406 C 28.667969 30.054688 28.421875 30.050781 28.179688 30.042969 C 28.191406 29.75 28.167969 29.464844 28.136719 29.164062 C 28.113281 28.949219 28.089844 28.734375 28.066406 28.523438 C 28.058594 28.449219 28.03125 28.3125 28.011719 28.183594 C 28.09375 28.183594 28.179688 28.183594 28.261719 28.179688 C 28.472656 28.179688 28.683594 28.175781 28.898438 28.175781 C 29.34375 28.175781 29.785156 28.179688 30.230469 28.1875 C 31.097656 28.203125 31.964844 28.238281 32.832031 28.289062 C 33.679688 28.339844 34.523438 28.40625 35.367188 28.488281 C 35.464844 28.496094 35.585938 28.519531 35.691406 28.523438 Z M 35.167969 26.4375 C 35.40625 26.835938 35.378906 27.308594 35.246094 27.738281 C 34.0625 27.628906 32.878906 27.546875 31.691406 27.5 C 31.054688 27.472656 30.421875 27.457031 29.785156 27.449219 C 29.273438 27.445312 28.746094 27.421875 28.226562 27.433594 C 28.082031 27.011719 28.085938 26.519531 28.363281 26.164062 C 28.695312 25.738281 29.320312 25.621094 29.789062 25.867188 C 30.074219 26.019531 30.328125 25.722656 30.203125 25.445312 C 30.003906 24.992188 30.222656 24.375 30.667969 24.164062 C 31.167969 23.929688 31.746094 24.234375 31.957031 24.714844 C 32.0625 24.957031 32.375 24.882812 32.496094 24.714844 C 32.722656 24.410156 33.164062 23.851562 33.566406 24.230469 C 33.925781 24.566406 33.769531 25.148438 33.671875 25.5625 C 33.613281 25.792969 33.820312 26.015625 34.054688 25.949219 C 34.492188 25.832031 34.9375 26.046875 35.167969 26.4375 Z M 32.796875 13.53125 C 31.28125 12.433594 29.789062 11.304688 28.324219 10.136719 C 26.832031 8.953125 25.367188 7.738281 23.925781 6.484375 C 23.359375 5.992188 22.683594 5.160156 21.855469 5.207031 C 21.429688 5.234375 21.101562 5.53125 20.773438 5.773438 C 20.359375 6.078125 19.945312 6.382812 19.535156 6.6875 C 16.328125 9.054688 13.125 11.421875 9.921875 13.789062 C 9.171875 14.34375 8.441406 14.980469 7.636719 15.449219 C 7.367188 15.605469 6.953125 15.816406 6.644531 15.632812 C 6.355469 15.460938 6.355469 15.042969 6.464844 14.757812 C 6.597656 14.414062 6.902344 14.15625 7.1875 13.933594 C 7.574219 13.636719 7.976562 13.355469 8.371094 13.066406 C 9.207031 12.457031 10.046875 11.851562 10.882812 11.242188 C 12.695312 9.921875 14.507812 8.601562 16.316406 7.277344 C 16.757812 6.953125 17.203125 6.632812 17.648438 6.3125 C 19.097656 5.472656 20.460938 4.46875 21.773438 3.425781 C 25.804688 6.203125 29.765625 9.078125 33.65625 12.054688 C 34.714844 12.859375 35.765625 13.675781 36.808594 14.5 C 36.585938 14.820312 36.355469 15.132812 36.109375 15.433594 C 35.992188 15.578125 35.957031 15.722656 35.777344 15.628906 C 35.535156 15.496094 35.304688 15.304688 35.078125 15.144531 C 34.3125 14.617188 33.550781 14.078125 32.796875 13.53125 Z M 32.796875 13.53125 "/></g><path style=" stroke:none;fill-rule:nonzero;fill:#000000;fill-opacity:1;" d="M 19.691406 24.535156 C 19.476562 24.664062 19.351562 24.917969 19.394531 25.167969 C 19.441406 25.460938 19.703125 25.640625 19.996094 25.617188 C 20.375 25.582031 20.644531 25.195312 20.527344 24.824219 C 20.414062 24.464844 19.996094 24.359375 19.691406 24.535156 Z M 19.691406 24.535156 "/><path style=" stroke:none;fill-rule:nonzero;fill:#000000;fill-opacity:1;" d="M 22.566406 10.285156 C 21.597656 10.113281 20.59375 10.460938 19.835938 11.066406 C 19.414062 11.402344 19.035156 11.839844 18.824219 12.347656 C 18.621094 12.699219 18.464844 13.082031 18.375 13.480469 C 17.960938 15.261719 19.523438 16.714844 21.164062 16.929688 C 22.828125 17.148438 24.535156 16.097656 24.914062 14.402344 C 25.285156 12.75 24.324219 10.59375 22.566406 10.285156 Z M 21.460938 16.351562 C 20.222656 16.277344 18.78125 15.371094 18.816406 13.996094 C 18.820312 13.859375 18.835938 13.71875 18.863281 13.582031 C 19.246094 13.710938 19.691406 13.710938 20.085938 13.726562 C 20.546875 13.746094 21.003906 13.753906 21.464844 13.753906 C 21.445312 14.621094 21.445312 15.484375 21.460938 16.351562 Z M 21.476562 13.222656 C 21.054688 13.230469 20.632812 13.234375 20.210938 13.242188 C 19.800781 13.253906 19.335938 13.222656 18.925781 13.324219 C 19.027344 12.972656 19.199219 12.632812 19.398438 12.320312 C 19.929688 11.5625 20.710938 11.003906 21.652344 10.882812 C 21.503906 11.644531 21.492188 12.445312 21.476562 13.222656 Z M 24.375 13.746094 C 24.355469 15.0625 23.316406 16.097656 22.089844 16.3125 C 22.066406 15.460938 22.058594 14.605469 22.070312 13.75 C 22.453125 13.746094 22.835938 13.742188 23.21875 13.734375 C 23.472656 13.726562 23.730469 13.714844 23.984375 13.703125 C 24.125 13.699219 24.257812 13.703125 24.375 13.671875 C 24.375 13.699219 24.375 13.722656 24.375 13.746094 Z M 23.34375 13.175781 C 22.925781 13.191406 22.503906 13.203125 22.082031 13.210938 C 22.109375 12.429688 22.167969 11.636719 22.101562 10.863281 C 22.75 10.882812 23.351562 11.15625 23.738281 11.707031 C 24.019531 12.113281 24.230469 12.628906 24.320312 13.140625 C 24.011719 13.078125 23.628906 13.164062 23.34375 13.175781 Z M 23.34375 13.175781 "/></g></svg>